SplineFontDB: 3.0
FontName: LinLibertineSlantedOZ
FullName: Linux Libertine Slanted O Semibold
FamilyName: Linux Libertine Slanted O
Weight: Semibold
Copyright: Linux Libertine by Philipp H. Poll,\nOpen Font under Terms of following Free Software Licenses:\nGPL (General Public License) with font-exception and OFL (Open Font License).\nCreated with FontForge (http://fontforge.sf.net)\nSept 2003, 2004, 2005, 2006, 2007, 2008, 2009, 2010, 2011
UComments: "2003-08-29: Created.+AAoA-2004-07-25: v(1.0) release candidate+AAoA-2005-12-28: v(1.1.0) stable+AAoA-2006-01-01: v(2.0.0) stable+AAoA-2006-09-05: v(2.2.0) stable+AAoA-2006-12-04: v(2.3.0) stable+AAoA-2007-03-11: v(2.4.0) stable+AAoA-2007-06-11: v(2.6.0) stable+AAoA-2007-12-00: v(2.7.0) stable+AAoA-2008-06-00: v(2.8.14) stable+AAoA" 
Version: 5.0.0
ItalicAngle: 0
UnderlinePosition: -98
UnderlineWidth: 40
Ascent: 754
Descent: 246
LayerCount: 2
Layer: 0 0 "Back"  1
Layer: 1 0 "Fore"  0
NeedsXUIDChange: 1
XUID: [1021 993 1524925707 4740893]
FSType: 0
OS2Version: 0
OS2_WeightWidthSlopeOnly: 0
OS2_UseTypoMetrics: 0
CreationTime: 1156455862
ModificationTime: 1305486626
PfmFamily: 17
TTFWeight: 700
TTFWidth: 5
LineGap: 0
VLineGap: 0
OS2TypoAscent: 894
OS2TypoAOffset: 0
OS2TypoDescent: -246
OS2TypoDOffset: 0
OS2TypoLinegap: 0
OS2WinAscent: 894
OS2WinAOffset: 0
OS2WinDescent: 246
OS2WinDOffset: 0
HheadAscent: 894
HheadAOffset: 0
HheadDescent: -246
HheadDOffset: 0
OS2FamilyClass: 261
OS2Vendor: 'PfEd'
Lookup: 3 0 0 "'aalt' Alle Alternativen zeigen"  {"LinLibertine-'aalt' Alle Alternativen zeigen 1"  } ['aalt' ('DFLT' <'dflt' > 'cyrl' <'dflt' > 'grek' <'dflt' > 'latn' <'AZE ' 'CRT ' 'DEU ' 'MOL ' 'ROM ' 'TRK ' 'dflt' > ) ]
Lookup: 1 0 0 "'locl' Localized Forms Romaenisch"  {"'locl' Localized Forms Romaenisch 1"  } ['locl' ('latn' <'MOL ' 'ROM ' > ) ]

StartChar: exclam
Encoding: 33 33 0
Width: 244
Flags: HW
HStem: -10 111<76.9218 165.078> 638 20G<106.5 140.5>
VStem: 50 144<431.981 638.446> 65 112<1.84669 89.0782> 92 58<188.926 423.897>
LayerCount: 2
Fore
SplineSet
261.862304688 658 m 0
 298.862304688 658 328.760742188 634 317.920898438 583 c 0
 310.481445312 548 294.404296875 510 281.389648438 477 c 0
 244.280273438 379.099609375 210.303710938 279 198.887695312 230 c 0
 194.44921875 211 185.060546875 188 161.9609375 188 c 0
 135.860351562 188 137.211914062 208 143.438476562 242 c 0
 152.27734375 289.700195312 163.86328125 409.599609375 166.02734375 480 c 0
 166.466796875 515 165.630859375 544 173.920898438 583 c 0
 185.823242188 639 230.862304688 658 261.862304688 658 c 0
74.5654296875 45 m 0
 81.154296875 76 111.467773438 101 142.467773438 101 c 0
 173.467773438 101 193.154296875 76 186.565429688 45 c 0
 180.188476562 15 149.874023438 -10 118.874023438 -10 c 0
 87.8740234375 -10 68.1884765625 15 74.5654296875 45 c 0
EndSplineSet
EndChar

StartChar: quotedbl
Encoding: 34 34 1
Width: 366
Flags: HW
HStem: 421 224
VStem: 63 110<498.128 631.224> 194 110<498.128 631.224>
LayerCount: 2
Fore
SplineSet
199.486328125 421 m 1
 185.336914062 425 l 1
 185.336914062 425 187.345703125 585 188.62109375 591 c 0
 193.509765625 614 222.098632812 645 265.098632812 645 c 0
 307.098632812 645 306.060546875 626 302.234375 608 c 0
 299.045898438 593 226.76171875 427 226.76171875 427 c 1
 199.486328125 421 l 1
330.486328125 421 m 1
 316.336914062 425 l 1
 316.336914062 425 318.345703125 585 319.62109375 591 c 0
 324.509765625 614 353.098632812 645 396.098632812 645 c 0
 438.098632812 645 437.060546875 626 433.234375 608 c 0
 430.045898438 593 357.76171875 427 357.76171875 427 c 1
 330.486328125 421 l 1
EndSplineSet
EndChar

StartChar: numbersign
Encoding: 35 35 2
Width: 463
Flags: HMW
HStem: 181 56<25 105 185 248 324 413> 337 56<50 130 209 272 349 437>
DStem2: 79 13 149 13 0.157407 0.987534<11.0677 170.025 238.005 328.652 396.633 555.108> 221 13 289 13 0.155692 0.987806<10.5669 170.026 237.429 328.654 396.057 555.034>
LayerCount: 2
Fore
SplineSet
306.375976562 237 m 1
 343.631835938 337 l 1
 273.631835938 337 l 1
 260.192382812 302 248.815429688 272 235.375976562 237 c 1
 306.375976562 237 l 1
411.631835938 337 m 1
 374.375976562 237 l 1
 471.375976562 237 l 1
 451.47265625 181 l 1
 354.47265625 181 l 1
 333.569335938 125 312.241210938 67 291.763671875 13 c 1
 223.763671875 13 l 1
 286.47265625 181 l 1
 215.47265625 181 l 1
 193.569335938 125 173.241210938 67 151.763671875 13 c 1
 81.763671875 13 l 1
 143.47265625 181 l 1
 55.47265625 181 l 1
 75.3759765625 237 l 1
 164.375976562 237 l 1
 177.815429688 272 189.192382812 302 201.631835938 337 c 1
 112.631835938 337 l 1
 133.747070312 394 l 1
 222.747070312 394 l 1
 243.225585938 448 264.766601562 507 285.244140625 561 c 1
 356.244140625 561 l 1
 292.747070312 394 l 1
 364.747070312 394 l 1
 385.225585938 448 405.766601562 507 426.244140625 561 c 1
 494.244140625 561 l 1
 432.747070312 394 l 1
 528.747070312 394 l 1
 508.631835938 337 l 1
 411.631835938 337 l 1
EndSplineSet
EndChar

StartChar: dollar
Encoding: 36 36 3
Width: 438
VWidth: 999
Flags: HW
HStem: -12 37<149.499 273.822> -1 21G<57 67.5> 537 35<158.733 275.685>
VStem: 41 44<92.0509 146.477> 42 84<389.052 501.84> 194 40<-81 627> 310 92<66.2433 194.593> 318 49<435 492.733>
LayerCount: 2
Fore
SplineSet
93.1259765625 10 m 0
 77.1259765625 10 77.787109375 -1 56.787109375 -1 c 1
 64.65234375 36 68.1298828125 90 72.033203125 146 c 1
 116.670898438 149 l 1
 119.33203125 88.599609375 136.91796875 34.900390625 199.569335938 26.2001953125 c 1
 249.03125 258.900390625 l 1
 189.546875 282.5 111.208007812 325.599609375 134.25 434 c 0
 152.359375 519.200195312 247.1328125 563.299804688 315.327148438 570.799804688 c 1
 327.2734375 627 l 1
 367.2734375 627 l 1
 355.4765625 571.5 l 1
 403.208007812 569.299804688 441.4375 560.5 466.881835938 564 c 1
 460.31640625 519 458.901367188 470 456.486328125 421 c 1
 412.635742188 417 l 1
 410.461914062 435 l 1
 405.38671875 499.099609375 396.43359375 529.900390625 347.909179688 535.900390625 c 1
 304.802734375 333.099609375 l 1
 360.806640625 314.299804688 456.435546875 256.099609375 435.159179688 156 c 0
 418.600585938 78.099609375 362.456054688 -3.5 231.577148438 -11.400390625 c 1
 216.783203125 -81 l 1
 176.783203125 -81 l 1
 191.577148438 -11.400390625 l 1
 139.141601562 -7.7998046875 112.025390625 10 93.1259765625 10 c 0
239.696289062 26.7998046875 m 1
 276.114257812 33 322.073242188 56.7998046875 336.995117188 127 c 0
 347.856445312 178.099609375 326.825195312 217 285.438476562 242 c 1
 239.696289062 26.7998046875 l 1
307.78125 535.299804688 m 1
 263.887695312 527.799804688 231.30078125 495.400390625 219.099609375 438 c 0
 211.51171875 402.299804688 238.857421875 367.700195312 268.139648438 348.799804688 c 1
 307.78125 535.299804688 l 1
EndSplineSet
EndChar

StartChar: percent
Encoding: 37 37 4
Width: 637
VWidth: 999
Flags: HW
HStem: -19 33<453.88 513.386> 214 36<488.444 553.315> 297 33<132.255 189.354> 474 45<280.914 457.718> 529 36<164.255 232.725>
VStem: 53 69<333.529 483.072> 240 43<388.136 494.674> 375 68<18.5507 160.828> 562 42<70.2274 208.803>
DStem2: 96 -4 150 -16 0.588938 0.808178<22.1045 620.449 651.051 709.262>
LayerCount: 2
Fore
SplineSet
459.3671875 77 m 0
 451.077148438 38 460.975585938 14 479.975585938 14 c 0
 531.975585938 14 583.680664062 102 595.37109375 157 c 0
 606.424804688 209 582.487304688 214 568.487304688 214 c 0
 525.487304688 214 471.482421875 134 459.3671875 77 c 0
394.342773438 91 m 0
 411.34765625 171 476.138671875 250 565.138671875 250 c 0
 613.138671875 250 653.100585938 231 637.796875 159 c 0
 616.752929688 60 545.9609375 -19 466.9609375 -19 c 0
 404.9609375 -19 380.526367188 26 394.342773438 91 c 0
474.31640625 519 m 0
 516.31640625 519 584.591796875 525 634.944335938 569 c 1
 677.481445312 548 l 1
 146.598632812 -16 l 1
 95.1494140625 -4 l 1
 567.640625 497 l 1
 525.239257812 481 484.751953125 474 454.751953125 474 c 0
 431.751953125 474 401.876953125 484 385.215820312 495 c 1
 385.514648438 487 385.452148438 482 383.751953125 474 c 0
 365.897460938 390 294.12890625 297 207.12890625 297 c 0
 145.12890625 297 125.056640625 339 139.297851562 406 c 0
 157.365234375 491 228.094726562 565 310.094726562 565 c 0
 338.094726562 565 365.181640625 556 372.630859375 544 c 1
 421.31640625 519 456.31640625 519 474.31640625 519 c 0
205.322265625 392 m 0
 197.032226562 353 207.143554688 330 225.143554688 330 c 0
 271.143554688 330 328.2109375 415 340.5390625 473 c 0
 350.954101562 522 331.442382812 529 313.442382812 529 c 0
 264.442382812 529 217.650390625 450 205.322265625 392 c 0
EndSplineSet
EndChar

StartChar: parenleft
Encoding: 40 40 5
Width: 315
Flags: HW
HStem: -213 21G<154.5 286.75>
VStem: 36 115<108.014 396.52>
LayerCount: 2
Fore
SplineSet
89.7763671875 253 m 0
 128.461914062 435 268.021484375 607 423.041015625 720 c 1
 443.813476562 686 l 1
 406.374023438 651 260.891601562 517 204.776367188 253 c 0
 148.662109375 -11 235.1796875 -145 259.52734375 -181 c 1
 222.725585938 -213 l 1
 37.38671875 -17 80.2119140625 208 89.7763671875 253 c 0
EndSplineSet
Substitution2: "LinLibertine-'case' Versalformen 1" parenleft.sc
Substitution2: "LinLibertine-'c2sc' Versale nach Kapitaelchen 1" parenleft.sc
Substitution2: "LinLibertine-'sinf' Wissenschaftliche Indices 1" parenleft.inferior
Substitution2: "LinLibertine-'sups' Hochgestellte 1" parenleft.superior
AlternateSubs2: "LinLibertine-'aalt' Alle Alternativen zeigen 1" parenleft.sc
EndChar

StartChar: parenright
Encoding: 41 41 6
Width: 315
VWidth: 999
Flags: HW
HStem: 696 21<28.25 160.5>
VStem: 164 115<107.48 395.986>
LayerCount: 2
Fore
SplineSet
332.3515625 251 m 0
 293.666015625 69 154.106445312 -103 -0.912109375 -216 c 1
 -21.685546875 -182 l 1
 15.75390625 -147 161.236328125 -13 217.3515625 251 c 0
 273.466796875 515 186.94921875 649 162.6015625 685 c 1
 199.403320312 717 l 1
 384.7421875 521 341.916992188 296 332.3515625 251 c 0
EndSplineSet
Substitution2: "LinLibertine-'case' Versalformen 1" parenright.sc
Substitution2: "LinLibertine-'c2sc' Versale nach Kapitaelchen 1" parenright.sc
Substitution2: "LinLibertine-'sinf' Wissenschaftliche Indices 1" parenright.inferior
Substitution2: "LinLibertine-'sups' Hochgestellte 1" parenright.superior
AlternateSubs2: "LinLibertine-'aalt' Alle Alternativen zeigen 1" parenright.sc
EndChar

StartChar: asterisk
Encoding: 42 42 7
Width: 433
VWidth: 999
Flags: HW
HStem: 571 69<77.0607 155.725 271.439 350.068>
VStem: 114 99<486.481 523.5> 173 78<621.002 713.184>
LayerCount: 2
Fore
SplineSet
317.306640625 566 m 1
 304.732421875 568 292.794921875 573 277.370117188 571 c 0
 230.668945312 563 194.668945312 563 204.234375 608 c 0
 207.209960938 622 220.036132812 640 244.036132812 640 c 0
 278.036132812 640 288.021484375 607 327.983398438 588 c 1
 332.485351562 628 311.799804688 653 317.326171875 679 c 0
 321.790039062 700 345.615234375 718 363.615234375 718 c 0
 381.615234375 718 401.27734375 707 396.17578125 683 c 0
 390.4375 656 359.360351562 618 350.983398438 588 c 1
 400.021484375 607 418.4609375 642 451.4609375 642 c 0
 482.4609375 642 485.360351562 618 483.234375 608 c 0
 476.857421875 578 440.732421875 568 405.732421875 568 c 0
 386.732421875 568 369.732421875 568 351.094726562 565 c 1
 377.442382812 529 428.8671875 531 418.02734375 480 c 0
 414.201171875 462 393.86328125 451 379.86328125 451 c 0
 330.86328125 451 347.041992188 513 330.331054688 552 c 1
 295.766601562 507 297.86328125 451 238.86328125 451 c 0
 221.86328125 451 212.625976562 464 215.814453125 479 c 0
 227.29296875 533 276.229492188 528 317.306640625 566 c 1
EndSplineSet
EndChar

StartChar: plus
Encoding: 43 43 8
Width: 537
Flags: HW
HStem: 195 74<61 232 306 477> 413 20G<232 306>
VStem: 232 74<32 195 269 433>
LayerCount: 2
Fore
SplineSet
363.177734375 269 m 1
 534.177734375 269 l 1
 518.448242188 195 l 1
 347.448242188 195 l 1
 312.801757812 32 l 1
 238.801757812 32 l 1
 273.448242188 195 l 1
 102.448242188 195 l 1
 118.177734375 269 l 1
 289.177734375 269 l 1
 324.037109375 433 l 1
 398.037109375 433 l 1
 363.177734375 269 l 1
EndSplineSet
Substitution2: "LinLibertine-'sinf' Wissenschaftliche Indices 1" plus.inferior
Substitution2: "LinLibertine-'sups' Hochgestellte 1" plus.superior
AlternateSubs2: "LinLibertine-'aalt' Alle Alternativen zeigen 1" plus.superior plus.inferior uni2098
EndChar

StartChar: slash
Encoding: 47 47 9
Width: 316
Flags: HW
VStem: 2 300
DStem2: 2 -21 65 -21 0.319461 0.947599<20.126 741.875>
LayerCount: 2
Fore
SplineSet
446.963867188 682 m 1
 60.5361328125 -21 l 1
 -2.4638671875 -21 l 1
 383.963867188 682 l 1
 446.963867188 682 l 1
EndSplineSet
Ligature2: "LinLibertine-'frac' Brueche 1" uni2215
AlternateSubs2: "LinLibertine-'aalt' Alle Alternativen zeigen 1" uni2215
EndChar

StartChar: one
Encoding: 49 49 10
Width: 490
Flags: HW
HStem: -2 34<102.77 190.845 326.501 400.23> 444 21G<70.0909 103.5>
VStem: 207 110<46.0723 482.998>
LayerCount: 2
Fore
SplineSet
224.216796875 81 m 2
 298.399414062 430 l 2
 309.126953125 480 303.665039062 483 292.665039062 483 c 0
 280.665039062 483 225.263671875 467 175.375 444 c 1
 164.389648438 477 l 1
 244.829101562 512 334.094726562 565 391.045898438 593 c 0
 412.383789062 604 428.659179688 610 436.659179688 610 c 0
 443.659179688 610 448.809570312 606 446.045898438 593 c 2
 446.045898438 593 429.655273438 530 418.389648438 477 c 2
 334.216796875 81 l 2
 324.126953125 34 355.65234375 36 403.801757812 32 c 1
 408.526367188 26 403.850585938 4 396.575195312 -2 c 1
 364.787109375 -1 302.400390625 0 263 0 c 0
 217 0 137.787109375 -1 105.575195312 -2 c 1
 100.850585938 4 105.526367188 26 112.801757812 32 c 1
 156.439453125 35 214.439453125 35 224.216796875 81 c 2
EndSplineSet
Substitution2: "LinLibertine-'onum' Minuskelziffern 1" one.taboldstyle
Substitution2: "LinLibertine-'pnum' Proportionalziffern 1" one.fitted
Substitution2: "LinLibertine-'sinf' Wissenschaftliche Indices 1" one.inferior
Substitution2: "LinLibertine-'sups' Hochgestellte 1" one.superior
AlternateSubs2: "LinLibertine-'aalt' Alle Alternativen zeigen 1" one.oldstyle one.superior one.fitted
EndChar

StartChar: two
Encoding: 50 50 11
Width: 490
Flags: HW
HStem: 0 79<154 361.39> 570 40<167.661 269.828>
VStem: 51 97<79 87.375 429.277 510.487> 51 90<446.757 529.309> 306 119<379.79 535.222> 386 43<106.6 156.465>
LayerCount: 2
Fore
SplineSet
149.838867188 465 m 0
 162.8046875 526 245.659179688 610 364.659179688 610 c 0
 453.659179688 610 547.857421875 578 521.712890625 455 c 0
 505.771484375 380 429.16796875 316 326.525390625 233 c 0
 281.661132812 196 181.20703125 128 170.791992188 79 c 1
 332.791992188 79 l 2
 370.791992188 79 388.405273438 96 420.859375 164 c 1
 461.946289062 155 l 1
 438.680664062 102 419.927734375 42 407 0 c 1
 50 0 l 1
 62.541015625 59 92.10546875 104 213.63671875 210 c 1
 301.791015625 286 l 2
 364.481445312 341 387.833984375 385 401.86328125 451 c 0
 421.41796875 543 376.157226562 570 349.157226562 570 c 0
 296.157226562 570 254.504882812 534 249.616210938 511 c 0
 247.278320312 500 246.578125 492 248.08984375 485 c 0
 249.389648438 477 247.689453125 469 246.625976562 464 c 0
 240.037109375 433 210.69921875 422 189.69921875 422 c 0
 162.69921875 422 144.737304688 441 149.838867188 465 c 0
EndSplineSet
Substitution2: "LinLibertine-'onum' Minuskelziffern 1" two.taboldstyle
Substitution2: "LinLibertine-'pnum' Proportionalziffern 1" two.fitted
Substitution2: "LinLibertine-'sinf' Wissenschaftliche Indices 1" two.inferior
Substitution2: "LinLibertine-'sups' Hochgestellte 1" two.superior
AlternateSubs2: "LinLibertine-'aalt' Alle Alternativen zeigen 1" two.oldstyle two.superior two.fitted
EndChar

StartChar: three
Encoding: 51 51 12
Width: 490
Flags: HW
HStem: -11 41<160.981 259.712> 305 40<154.95 206.92> 440 21G<76 117.5> 570 40<170.716 273.517>
VStem: 54 90<446.622 534.023> 296 103<436.812 549.429> 315 116<106.537 277.13>
LayerCount: 2
Fore
SplineSet
355.157226562 570 m 0
 325.057617188 570 262.181640625 556 249.215820312 495 c 0
 244.96484375 475 231.524414062 440 190.524414062 440 c 0
 148.524414062 440 154.751953125 474 155.389648438 477 c 0
 162.616210938 511 224.659179688 610 382.659179688 610 c 0
 496.659179688 610 514.41796875 543 505.278320312 500 c 0
 500.176757812 476 464.447265625 402 367.370117188 364 c 1
 429.8828125 357 495.404296875 303 474.361328125 204 c 0
 444.603515625 64 320.662109375 -11 194.662109375 -11 c 0
 128.662109375 -11 46.4013671875 16 55.328125 58 c 0
 58.94140625 75 85.193359375 95 115.193359375 95 c 0
 146.193359375 95 153.854492188 84 159.666015625 69 c 0
 166.052734375 52 183.376953125 30 216.376953125 30 c 0
 243.376953125 30 327.965820312 61 355.385742188 190 c 0
 378.5546875 299 319.955078125 315 274.955078125 315 c 0
 267.955078125 315 249.10546875 311 220.830078125 305 c 1
 223.33203125 345 l 1
 346.071289062 372 388.887695312 437 398.876953125 484 c 0
 410.993164062 541 384.157226562 570 355.157226562 570 c 0
EndSplineSet
Substitution2: "LinLibertine-'onum' Minuskelziffern 1" three.taboldstyle
Substitution2: "LinLibertine-'pnum' Proportionalziffern 1" three.fitted
Substitution2: "LinLibertine-'sinf' Wissenschaftliche Indices 1" three.inferior
Substitution2: "LinLibertine-'sups' Hochgestellte 1" three.superior
AlternateSubs2: "LinLibertine-'aalt' Alle Alternativen zeigen 1" three.oldstyle three.superior three.fitted
EndChar

StartChar: four
Encoding: 52 52 13
Width: 490
VWidth: 487
Flags: HW
HStem: -2 34<186.77 259.892 381.03 447.23> 169 50<90 271 374 478.453>
VStem: 271 103<41.5879 169 219 493.017>
LayerCount: 2
Fore
SplineSet
375.790039062 493 m 1
 286.767578125 398.799804688 205.322265625 301.200195312 136.549804688 219 c 1
 317.549804688 219 l 1
 375.790039062 493 l 1
513.549804688 219 m 2
 524.549804688 219 527.274414062 213 525.149414062 203 c 0
 522.598632812 191 502.921875 169 488.921875 169 c 2
 409.921875 169 l 1
 391.216796875 81 l 2
 381.2265625 34 402.65234375 36 450.801757812 32 c 1
 455.526367188 26 450.850585938 4 443.575195312 -2 c 1
 411.787109375 -1 347.400390625 0 308 0 c 0
 262 0 221.787109375 -1 189.575195312 -2 c 1
 184.850585938 4 189.526367188 26 196.801757812 32 c 1
 240.439453125 35 278.439453125 35 288.216796875 81 c 2
 306.921875 169 l 1
 102.921875 169 l 2
 72.921875 169 73.298828125 199 73.4873046875 214 c 1
 195.3828125 357 346.848632812 521.5 426.321289062 599 c 0
 430.977539062 603.5 437.659179688 610 444.659179688 610 c 2
 503.659179688 610 l 1
 505.234375 608 l 1
 501.875976562 600.200195312 493.244140625 561 482.616210938 511 c 2
 420.549804688 219 l 1
 513.549804688 219 l 2
EndSplineSet
Substitution2: "LinLibertine-'onum' Minuskelziffern 1" four.taboldstyle
Substitution2: "LinLibertine-'pnum' Proportionalziffern 1" four.fitted
Substitution2: "LinLibertine-'sinf' Wissenschaftliche Indices 1" four.inferior
Substitution2: "LinLibertine-'sups' Hochgestellte 1" four.superior
AlternateSubs2: "LinLibertine-'aalt' Alle Alternativen zeigen 1" four.oldstyle four.superior four.fitted
EndChar

StartChar: five
Encoding: 53 53 14
Width: 490
Flags: HW
HStem: -13 44<163.658 259.663> 344 57<145.439 267.871> 526 75<157.417 397.388>
VStem: 316 115<113.894 288.439>
LayerCount: 2
Fore
SplineSet
355.53515625 186 m 0
 376.579101562 285 342.119140625 344 292.119140625 344 c 0
 250.119140625 344 215.418945312 336 148.892578125 310 c 1
 247.021484375 607 l 1
 294.171875 603 334.74609375 601 369.74609375 601 c 0
 419.74609375 601 465.383789062 604 527.872070312 611 c 1
 544.74609375 601 l 1
 515.080078125 532 l 1
 463.229492188 528 432.8046875 526 402.8046875 526 c 0
 366.8046875 526 299.229492188 528 272.8671875 531 c 1
 257.02734375 480 244.587890625 445 227.53515625 393 c 1
 247.384765625 397 303.235351562 401 329.235351562 401 c 0
 450.235351562 401 496.254882812 307 475.211914062 208 c 0
 450.129882812 90 336.236328125 -13 208.236328125 -13 c 0
 142.236328125 -13 50.67578125 22 59.81640625 65 c 0
 64.4921875 87 86.7431640625 107 116.743164062 107 c 0
 147.743164062 107 159.91796875 89 165.666015625 69 c 0
 173.565429688 45 197.588867188 31 213.588867188 31 c 0
 265.588867188 31 334.91796875 89 355.53515625 186 c 0
EndSplineSet
Substitution2: "LinLibertine-'onum' Minuskelziffern 1" five.taboldstyle
Substitution2: "LinLibertine-'pnum' Proportionalziffern 1" five.fitted
Substitution2: "LinLibertine-'sinf' Wissenschaftliche Indices 1" five.inferior
Substitution2: "LinLibertine-'sups' Hochgestellte 1" five.superior
AlternateSubs2: "LinLibertine-'aalt' Alle Alternativen zeigen 1" five.oldstyle five.superior five.fitted
EndChar

StartChar: six
Encoding: 54 54 15
Width: 490
Flags: HW
HStem: -10 38<210.287 295.504> 319 42<174.993 284.066> 579 33<329.938 415.848>
VStem: 40 113<114.614 296.134> 330 113<87.8768 268.712>
LayerCount: 2
Fore
SplineSet
213.515625 280 m 1
 210.177734375 269 206.3515625 251 204.013671875 240 c 0
 167.454101562 68 220.951171875 28 262.951171875 28 c 0
 298.951171875 28 344.241210938 67 366.984375 174 c 0
 376.974609375 221 379.805664062 319 300.805664062 319 c 0
 285.805664062 319 257.380859375 317 213.515625 280 c 1
542.0703125 579 m 1
 493.432617188 576 431.58203125 572 347.703125 502 c 0
 305.051757812 466 264.1484375 410 235.26953125 340 c 1
 266.032226562 353 300.733398438 361 328.733398438 361 c 0
 497.733398438 361 492.100585938 231 481.685546875 182 c 0
 466.168945312 109 401.874023438 -10 245.874023438 -10 c 0
 161.874023438 -10 46.8017578125 32 91.6513671875 243 c 0
 111.84375 338 164.612304688 431 253.978515625 508 c 0
 334.645507812 577 419.596679688 605 545.084960938 612 c 1
 542.0703125 579 l 1
EndSplineSet
Substitution2: "LinLibertine-'onum' Minuskelziffern 1" six.taboldstyle
Substitution2: "LinLibertine-'pnum' Proportionalziffern 1" six.fitted
Substitution2: "LinLibertine-'sinf' Wissenschaftliche Indices 1" six.inferior
Substitution2: "LinLibertine-'sups' Hochgestellte 1" six.superior
AlternateSubs2: "LinLibertine-'aalt' Alle Alternativen zeigen 1" six.oldstyle six.superior six.fitted
EndChar

StartChar: seven
Encoding: 55 55 16
Width: 490
Flags: HW
HStem: -13 21G<117 216> 444 21G<55 102> 517 77<112.287 352>
VStem: 55 39<450.564 497.42>
LayerCount: 2
Fore
SplineSet
254.258789062 594 m 2
 563.258789062 594 l 1
 565.55859375 586 l 1
 401.380859375 317 306.497070312 167 215.575195312 -2 c 1
 119.236328125 -13 l 1
 117 0 l 1
 217.095703125 151 380.833984375 385 461.891601562 517 c 1
 268.891601562 517 l 2
 236.891601562 517 219.041992188 513 188.375 444 c 1
 151.075195312 452 l 1
 181.7421875 521 196.96875 555 208.534179688 600 c 1
 216.534179688 600 l 1
 223.258789062 594 247.258789062 594 254.258789062 594 c 2
EndSplineSet
Substitution2: "LinLibertine-'onum' Minuskelziffern 1" seven.taboldstyle
Substitution2: "LinLibertine-'pnum' Proportionalziffern 1" seven.fitted
Substitution2: "LinLibertine-'sinf' Wissenschaftliche Indices 1" seven.inferior
Substitution2: "LinLibertine-'sups' Hochgestellte 1" seven.superior
AlternateSubs2: "LinLibertine-'aalt' Alle Alternativen zeigen 1" seven.oldstyle seven.superior seven.fitted
EndChar

StartChar: nine
Encoding: 57 57 17
Width: 490
VWidth: 487
Flags: HW
HStem: -12 33<70.6515 156.562> 239 42<202.434 311.507> 572 38<190.996 276.213>
VStem: 43.5 113<331.288 512.123> 333.5 113<303.866 485.386>
LayerCount: 2
Fore
SplineSet
400.518554688 320 m 1
 403.856445312 331 407.682617188 349 410.020507812 360 c 0
 446.580078125 532 393.08203125 572 351.08203125 572 c 0
 315.08203125 572 269.79296875 533 247.048828125 426 c 0
 237.05859375 379 234.228515625 281 313.228515625 281 c 0
 328.228515625 281 356.653320312 283 400.518554688 320 c 1
71.9638671875 21 m 1
 120.6015625 24 182.451171875 28 266.330078125 98 c 0
 308.982421875 134 349.885742188 190 378.764648438 260 c 1
 348.001953125 247 313.30078125 239 285.30078125 239 c 0
 116.30078125 239 121.93359375 369 132.348632812 418 c 0
 147.865234375 491 212.159179688 610 368.159179688 610 c 0
 452.159179688 610 567.232421875 568 522.3828125 357 c 0
 502.189453125 262 449.421875 169 360.055664062 92 c 0
 279.388671875 23 194.4375 -5 68.94921875 -12 c 1
 71.9638671875 21 l 1
EndSplineSet
Substitution2: "LinLibertine-'onum' Minuskelziffern 1" nine.taboldstyle
Substitution2: "LinLibertine-'pnum' Proportionalziffern 1" nine.fitted
Substitution2: "LinLibertine-'sinf' Wissenschaftliche Indices 1" nine.inferior
Substitution2: "LinLibertine-'sups' Hochgestellte 1" nine.superior
AlternateSubs2: "LinLibertine-'aalt' Alle Alternativen zeigen 1" nine.oldstyle nine.superior nine.fitted
EndChar

StartChar: colon
Encoding: 58 58 18
Width: 219
VWidth: 999
Flags: HW
HStem: 39 111<85.9218 174.078> 302 111<85.9218 174.078>
VStem: 74 112<50.8467 138.078 313.847 401.078>
LayerCount: 2
Fore
SplineSet
149.8828125 357 m 0
 156.471679688 388 186.786132812 413 217.786132812 413 c 0
 248.786132812 413 268.471679688 388 261.8828125 357 c 0
 255.505859375 327 225.192382812 302 194.192382812 302 c 0
 163.192382812 302 143.505859375 327 149.8828125 357 c 0
93.98046875 94 m 0
 100.569335938 125 130.883789062 150 161.883789062 150 c 0
 192.883789062 150 212.569335938 125 205.98046875 94 c 0
 199.603515625 64 169.290039062 39 138.290039062 39 c 0
 107.290039062 39 87.603515625 64 93.98046875 94 c 0
EndSplineSet
EndChar

StartChar: less
Encoding: 60 60 19
Width: 512
Flags: HW
DStem2: 42 262 153 240 0.939793 0.341743<96.7987 435.295> 153 240 42 218 0.939793 -0.341743<0 338.496>
LayerCount: 2
Fore
SplineSet
204.013671875 240 m 1
 497.357421875 124 l 1
 484.178710938 62 l 1
 88.3369140625 218 l 1
 97.689453125 262 l 1
 559.848632812 418 l 1
 546.669921875 356 l 1
 204.013671875 240 l 1
EndSplineSet
EndChar

StartChar: equal
Encoding: 61 61 20
Width: 551
Flags: HW
HStem: 142 56<59 493> 266 57<59 493>
LayerCount: 2
Fore
SplineSet
535.0859375 198 m 1
 523.182617188 142 l 1
 89.1826171875 142 l 1
 101.0859375 198 l 1
 535.0859375 198 l 1
561.65625 323 m 1
 549.540039062 266 l 1
 115.540039062 266 l 1
 127.65625 323 l 1
 561.65625 323 l 1
EndSplineSet
Substitution2: "LinLibertine-'sinf' Wissenschaftliche Indices 1" equal.inferior
Substitution2: "LinLibertine-'sups' Hochgestellte 1" equal.superior
AlternateSubs2: "LinLibertine-'aalt' Alle Alternativen zeigen 1" equal.superior
EndChar

StartChar: greater
Encoding: 62 62 21
Width: 512
Flags: HW
DStem2: 42 416 42 354 0.939088 -0.343676<21.3079 358.865> 42 122 42 60 0.940496 0.339806<0 337.555>
LayerCount: 2
Fore
SplineSet
409.588867188 238 m 1
 117.245117188 354 l 1
 130.423828125 416 l 1
 526.051757812 259 l 1
 516.69921875 215 l 1
 54.7529296875 60 l 1
 67.931640625 122 l 1
 409.588867188 238 l 1
EndSplineSet
EndChar

StartChar: question
Encoding: 63 63 22
Width: 430
Flags: HW
HStem: -10 111<147.922 236.078> 623 36<147.137 243.576>
VStem: 25 102<504.183 589.152> 136 112<1.84669 89.0782> 158 69<173.053 308.691> 284 117<435.475 583.004>
LayerCount: 2
Fore
SplineSet
248.370117188 571 m 0
 243.90625 550 251.630859375 544 245.891601562 517 c 0
 240.578125 492 214.176757812 476 184.176757812 476 c 0
 160.176757812 476 131.427734375 496 139.504882812 534 c 0
 146.944335938 569 170.833007812 592 210.78515625 620 c 0
 246.098632812 645 295.075195312 659 356.075195312 659 c 0
 470.075195312 659 528.108398438 598 508.553710938 506 c 0
 492.82421875 432 419.833984375 385 361.969726562 348 c 0
 329.71875 328 290.979492188 301 275.67578125 229 c 2
 270.787109375 206 l 2
 266.110351562 184 259.559570312 172 228.559570312 172 c 0
 197.559570312 172 197.110351562 184 201.787109375 206 c 2
 207.100585938 231 l 2
 215.815429688 272 229.930664062 329 314.747070312 394 c 0
 356.336914062 425 384.4140625 463 395.041992188 513 c 0
 407.370117188 571 394.522460938 623 338.422851562 623 c 0
 294.422851562 623 254.321289062 599 248.370117188 571 c 0
145.565429688 45 m 0
 152.154296875 76 182.467773438 101 213.467773438 101 c 0
 244.467773438 101 264.154296875 76 257.565429688 45 c 0
 251.188476562 15 220.874023438 -10 189.874023438 -10 c 0
 158.874023438 -10 139.188476562 15 145.565429688 45 c 0
EndSplineSet
EndChar

StartChar: at
Encoding: 64 64 23
Width: 988
Flags: HW
HStem: -160 39<407.274 632.859> 19 42<603 706.824> 30 42<431.029 515.602> 382 33<504.201 588.744> 584 37<401.936 597.238>
VStem: 92 94<102.389 345.27> 317 97<85.6604 259.227> 805 85<185.117 389.903>
LayerCount: 2
Fore
SplineSet
674.018554688 320 m 0
 681.458007812 355 663.196289062 382 638.196289062 382 c 0
 624.196289062 382 591.984375 381 548.907226562 343 c 0
 493.704101562 295 462.25 227 448.859375 164 c 0
 438.869140625 117 438.303710938 72 485.303710938 72 c 0
 515.303710938 72 572.743164062 107 618.0234375 193 c 0
 635.038085938 226 668.916992188 296 674.018554688 320 c 0
655.94140625 75 m 0
 653.178710938 62 659.965820312 61 670.965820312 61 c 0
 707.965820312 61 832.419921875 129 863.028320312 273 c 0
 910.002929688 494 745.1328125 584 628.1328125 584 c 0
 473.1328125 584 283.563476562 459 234.462890625 228 c 0
 203.004882812 80 251.280273438 -121 495.280273438 -121 c 0
 572.280273438 -121 648.381835938 -97 721.22265625 -46 c 1
 736.05859375 -75 l 1
 661.642578125 -124 590.991210938 -160 467.991210938 -160 c 0
 230.991210938 -160 90.51171875 -7 138.974609375 221 c 0
 182.974609375 428 391.998046875 621 644.998046875 621 c 0
 870.998046875 621 991.176757812 476 951.00390625 287 c 0
 921.24609375 147 776.0390625 19 642.0390625 19 c 0
 572.0390625 19 561.690429688 55 566.154296875 76 c 1
 517.077148438 38 474.376953125 30 450.376953125 30 c 0
 334.376953125 30 341.869140625 117 350.583984375 158 c 0
 381.404296875 303 527.2109375 415 642.2109375 415 c 0
 690.2109375 415 715.59765625 398 728.133789062 377 c 1
 772.1484375 410 l 1
 796.810546875 399 l 1
 682.970703125 141 l 2
 671.444335938 115 658.280273438 86 655.94140625 75 c 0
EndSplineSet
EndChar

StartChar: A
Encoding: 65 65 24
Width: 699
Flags: HW
HStem: -1 34<10 60.0229 142.897 211 414 482.841 622.594 692> 241 47<234.168 403> 638 20G<348.5 364.5>
DStem2: 89 91 148 79 0.384126 0.923281<-23.1403 196.063 246.684 479.281> 399 627 320 514 0.352654 -0.935754<77.8806 318.631 368.607 561.264>
LayerCount: 2
Fore
SplineSet
314.215820312 288 m 2
 464.215820312 288 l 1
 429.25390625 514 l 1
 297.766601562 300 l 1
 295.853515625 291 296.215820312 288 314.215820312 288 c 2
164.791992188 79 m 2
 147.627929688 50 143.014648438 33 202.014648438 33 c 0
 218.014648438 33 222.588867188 31 220.888671875 23 c 2
 216.637695312 3 l 1
 210.787109375 -1 l 1
 210.787109375 -1 119.212890625 1 95.212890625 1 c 0
 70.212890625 1 9.787109375 -1 9.787109375 -1 c 1
 2.4248046875 2 l 1
 6.888671875 23 l 2
 9.0146484375 33 17.0146484375 33 29.0146484375 33 c 0
 49.0146484375 33 82.6279296875 50 108.342773438 91 c 2
 445.2734375 627 l 2
 460.374023438 651 482.862304688 658 493.862304688 658 c 0
 514.862304688 658 528.736328125 648 532.2734375 627 c 2
 620.342773438 91 l 2
 626.478515625 54 636.014648438 33 661.014648438 33 c 2
 689.014648438 33 l 2
 704.014648438 33 703.588867188 31 701.888671875 23 c 2
 697.637695312 3 l 1
 691.787109375 -1 l 1
 691.787109375 -1 596.212890625 1 558.212890625 1 c 0
 522.212890625 1 413.787109375 -1 413.787109375 -1 c 1
 406.850585938 4 l 1
 410.888671875 23 l 2
 412.588867188 31 421.014648438 33 439.014648438 33 c 2
 466.014648438 33 l 2
 483.014648438 33 493.352539062 44 496.541015625 59 c 0
 497.603515625 64 498.87890625 70 497.516601562 73 c 2
 471.2265625 241 l 1
 287.2265625 241 l 2
 267.2265625 241 262.013671875 240 253.25 227 c 2
 164.791992188 79 l 2
EndSplineSet
Substitution2: "LinLibertine-'c2sc' Versale nach Kapitaelchen 1" a.sc
Position2: "'cpsp' Versalabstaende 1" dx=2 dy=0 dh=5 dv=0
EndChar

StartChar: B
Encoding: 66 66 25
Width: 620
Flags: HW
HStem: 0 40<225.077 375.965> 0 33<23 96.4211> 334 42<221 356.422> 605 42<224.143 359.733> 613 34<24 96.3856>
VStem: 99 122<45.449 334 376 599.529> 403 120<424.816 565.405> 450 127<106.58 268.4>
LayerCount: 2
Fore
SplineSet
340.45703125 562 m 2
 300.920898438 376 l 1
 356.920898438 376 l 2
 427.920898438 376 489.935546875 409 506.940429688 489 c 0
 527.770507812 587 465.596679688 605 419.596679688 605 c 0
 354.596679688 605 346.62109375 591 340.45703125 562 c 2
291.994140625 334 m 1
 238.854492188 84 l 2
 232.690429688 55 235.501953125 40 295.501953125 40 c 0
 427.501953125 40 476.995117188 127 489.748046875 187 c 0
 508.028320312 273 465.994140625 334 362.994140625 334 c 2
 291.994140625 334 l 1
26.4638671875 21 m 2
 27.951171875 28 32.0146484375 33 47.0146484375 33 c 2
 76.0146484375 33 l 2
 99.0146484375 33 107.927734375 42 114.729492188 74 c 2
 220.58203125 572 l 2
 226.958984375 602 223.296875 613 199.296875 613 c 2
 166.296875 613 l 2
 155.296875 613 152.934570312 616 154.422851562 623 c 2
 159.098632812 645 l 1
 161.524414062 647 l 1
 161.524414062 647 261.798828125 645 291.798828125 645 c 0
 321.798828125 645 371.524414062 647 421.524414062 647 c 0
 623.32421875 647 642.03125 560 627.365234375 491 c 0
 616.524414062 440 562.833984375 385 503.733398438 361 c 1
 503.307617188 359 l 1
 603.356445312 331 633.115234375 264 614.41015625 176 c 0
 595.91796875 89 511 0 306 0 c 2
 23 0 l 1
 22.212890625 1 l 1
 26.4638671875 21 l 2
EndSplineSet
Substitution2: "LinLibertine-'c2sc' Versale nach Kapitaelchen 1" b.sc
Position2: "'cpsp' Versalabstaende 1" dx=2 dy=0 dh=5 dv=0
EndChar

StartChar: C
Encoding: 67 67 26
Width: 666
Flags: HW
HStem: -10 44<290.062 474.801> 437 21G<558.5 612> 617 41<295.135 462.38>
VStem: 34 130<195.747 434.804> 574 38<443.526 484.717>
LayerCount: 2
Fore
SplineSet
368.874023438 -10 m 0
 140.874023438 -10 66.7333984375 154 100.955078125 315 c 0
 142.829101562 512 326.862304688 658 511.862304688 658 c 0
 644.862304688 658 669.509765625 614 720.509765625 614 c 1
 712.181640625 556 708.278320312 500 706.587890625 445 c 1
 666.887695312 437 l 1
 656.080078125 532 631.147460938 617 503.147460938 617 c 0
 406.147460938 617 277.080078125 532 234.994140625 334 c 0
 204.810546875 192 238.2265625 34 377.2265625 34 c 0
 458.2265625 34 538.028320312 66 633.521484375 153 c 1
 658.419921875 129 l 1
 571.290039062 39 474.874023438 -10 368.874023438 -10 c 0
EndSplineSet
Substitution2: "LinLibertine-'c2sc' Versale nach Kapitaelchen 1" c.sc
Position2: "'cpsp' Versalabstaende 1" dx=2 dy=0 dh=5 dv=0
EndChar

StartChar: D
Encoding: 68 68 27
Width: 718
Flags: HW
HStem: 0 40<222.92 424.983> 0 33<24 92.1445> 606 40<223.637 384.847> 613 33<24 92.1445>
VStem: 99 122<44.4801 601.64> 549 132<185.589 421.599>
LayerCount: 2
Fore
SplineSet
236.94140625 75 m 2
 230.77734375 46 238.501953125 40 316.501953125 40 c 0
 444.501953125 40 567.705078125 88 609.366210938 284 c 0
 641.461914062 435 608.809570312 606 411.809570312 606 c 0
 375.809570312 606 349.171875 603 342.370117188 571 c 2
 236.94140625 75 l 2
24 0 m 1
 22.4248046875 2 l 1
 27.1015625 24 l 2
 28.376953125 30 33.0146484375 33 37.0146484375 33 c 2
 51.0146484375 33 l 2
 91.0146484375 33 108.565429688 45 115.3671875 77 c 2
 219.944335938 569 l 2
 226.74609375 601 214.296875 613 174.296875 613 c 2
 160.296875 613 l 2
 156.296875 613 152.934570312 616 153.998046875 621 c 2
 158.88671875 644 l 1
 161.311523438 646 l 1
 457.311523438 646 l 2
 660.311523438 646 786.002929688 494 746.6796875 309 c 0
 694.390625 63 487 0 338 0 c 2
 24 0 l 1
EndSplineSet
Substitution2: "LinLibertine-'c2sc' Versale nach Kapitaelchen 1" d.sc
Position2: "'cpsp' Versalabstaende 1" dx=2 dy=0 dh=5 dv=0
EndChar

StartChar: E
Encoding: 69 69 28
Width: 562
Flags: HW
HStem: 0 46<224.232 442.935> 0 33<27 94.1445> 323 42<224 361.625> 427 20G<383 415> 600 46<224.232 421.482> 613 33<27 94.1445>
VStem: 101 123<46.578 323 365 599.422> 372 36<251.814 315.565 372.621 436.233> 474 40<482.425 531.807> 499 43<118.211 170.628>
LayerCount: 2
Fore
SplineSet
27 0 m 1
 24.4248046875 2 l 1
 29.1015625 24 l 2
 30.376953125 30 35.0146484375 33 39.0146484375 33 c 2
 53.0146484375 33 l 2
 93.0146484375 33 110.565429688 45 117.3671875 77 c 2
 221.944335938 569 l 2
 228.74609375 601 216.296875 613 176.296875 613 c 2
 162.296875 613 l 2
 158.296875 613 154.934570312 616 155.998046875 621 c 2
 160.88671875 644 l 1
 164.311523438 646 l 1
 630.311523438 646 l 1
 621.983398438 588 617.717773438 535 616.876953125 484 c 1
 574.96484375 475 l 1
 571.8046875 526 562.534179688 600 495.534179688 600 c 2
 365.534179688 600 l 2
 356.534179688 600 349.833007812 592 345.370117188 571 c 2
 301.583007812 365 l 1
 414.583007812 365 l 2
 439.583007812 365 450.172851562 396 464.674804688 436 c 0
 465.524414062 440 473.012695312 447 483.012695312 447 c 2
 504.012695312 447 l 1
 507.887695312 437 l 1
 502.486328125 421 488.984375 381 481.119140625 344 c 0
 473.467773438 308 469.96484375 268 468.3515625 251 c 1
 460.438476562 242 l 1
 439.438476562 242 l 2
 429.438476562 242 424.713867188 248 425.564453125 252 c 0
 428.279296875 293 430.65625 323 405.65625 323 c 2
 292.65625 323 l 1
 239.94140625 75 l 2
 235.052734375 52 238.77734375 46 247.77734375 46 c 2
 400.77734375 46 l 2
 455.77734375 46 504.318359375 105 537.047851562 179 c 1
 577.921875 169 l 1
 556.65625 116 533.478515625 54 515 0 c 1
 27 0 l 1
EndSplineSet
Substitution2: "LinLibertine-'c2sc' Versale nach Kapitaelchen 1" e.sc
Position2: "'cpsp' Versalabstaende 1" dx=2 dy=0 dh=5 dv=0
EndChar

StartChar: F
Encoding: 70 70 29
Width: 513
Flags: HW
HStem: -2 34<26 94.7241 230.184 298> 323 42<223 360.625> 427 20G<382 414> 600 46<223.232 420.482> 613 33<27 94.1445>
VStem: 101 122<37.5094 323 365 599.422> 371 36<251.813 315.565 372.621 436.232> 473 40<482.425 531.807>
LayerCount: 2
Fore
SplineSet
239.154296875 76 m 2
 233.203125 48 243.801757812 32 284.801757812 32 c 2
 298.801757812 32 l 2
 303.801757812 32 306.1640625 29 304.888671875 23 c 2
 300 0 l 1
 297.575195312 -2 l 1
 297.575195312 -2 198 0 162 0 c 0
 123 0 25.5751953125 -2 25.5751953125 -2 c 1
 24 0 l 1
 28.888671875 23 l 2
 30.1640625 29 34.8017578125 32 38.8017578125 32 c 2
 52.8017578125 32 l 2
 92.8017578125 32 110.352539062 44 117.154296875 76 c 2
 221.944335938 569 l 2
 228.74609375 601 216.296875 613 176.296875 613 c 2
 162.296875 613 l 2
 158.296875 613 154.934570312 616 155.998046875 621 c 2
 160.88671875 644 l 1
 164.311523438 646 l 1
 629.311523438 646 l 1
 620.983398438 588 616.717773438 535 615.876953125 484 c 1
 573.96484375 475 l 1
 570.8046875 526 561.534179688 600 494.534179688 600 c 2
 364.534179688 600 l 2
 355.534179688 600 348.833007812 592 344.370117188 571 c 2
 300.583007812 365 l 1
 413.583007812 365 l 2
 438.583007812 365 449.172851562 396 463.674804688 436 c 0
 464.524414062 440 472.012695312 447 482.012695312 447 c 2
 503.012695312 447 l 1
 506.887695312 437 l 1
 501.486328125 421 487.856445312 380.400390625 480.119140625 344 c 0
 472.3828125 307.599609375 468.96484375 268 467.3515625 251 c 1
 459.438476562 242 l 1
 438.438476562 242 l 2
 428.438476562 242 423.713867188 248 424.564453125 252 c 0
 427.279296875 293 429.65625 323 404.65625 323 c 2
 291.65625 323 l 1
 239.154296875 76 l 2
EndSplineSet
Substitution2: "LinLibertine-'c2sc' Versale nach Kapitaelchen 1" f.sc
Position2: "'cpsp' Versalabstaende 1" dx=2 dy=0 dh=5 dv=0
EndChar

StartChar: G
Encoding: 71 71 30
Width: 727
Flags: HW
HStem: -10 44<306.541 502.262> 272 34<440 520.715 652.798 706> 437 21G<571 624> 617 41<300.747 473.546>
VStem: 29 130<202 430.82> 532 117<85.3282 262.125> 585 39<443.564 488.517>
LayerCount: 2
Fore
SplineSet
697.67578125 229 m 2
 673.231445312 114 l 2
 670.04296875 99 672.555664062 92 679.067382812 85 c 1
 596.526367188 26 509.874023438 -10 383.874023438 -10 c 0
 170.874023438 -10 57.482421875 134 94.4677734375 308 c 0
 141.229492188 528 344.862304688 658 522.862304688 658 c 0
 657.862304688 658 681.509765625 614 732.509765625 614 c 1
 723.181640625 556 720.278320312 500 718.587890625 445 c 1
 677.887695312 437 l 1
 669.8671875 531 640.147460938 617 513.147460938 617 c 0
 392.147460938 617 264.853515625 498 228.505859375 327 c 0
 196.41015625 176 250.2265625 34 411.2265625 34 c 0
 454.2265625 34 507.77734375 46 547.729492188 74 c 1
 580.67578125 229 l 2
 587.264648438 260 557.815429688 272 517.815429688 272 c 2
 503.815429688 272 l 2
 499.815429688 272 496.453125 275 497.728515625 281 c 2
 502.6171875 304 l 1
 505.041992188 306 l 1
 505.041992188 306 601.6171875 304 640.6171875 304 c 0
 676.6171875 304 771.041992188 306 771.041992188 306 c 1
 772.6171875 304 l 1
 767.728515625 281 l 2
 766.453125 275 762.815429688 272 757.815429688 272 c 2
 751.815429688 272 l 2
 710.815429688 272 703.4140625 256 697.67578125 229 c 2
EndSplineSet
Substitution2: "LinLibertine-'c2sc' Versale nach Kapitaelchen 1" g.sc
Position2: "'cpsp' Versalabstaende 1" dx=2 dy=0 dh=5 dv=0
EndChar

StartChar: grave
Encoding: 96 96 31
Width: 392
VWidth: 999
Flags: HW
LayerCount: 2
Fore
SplineSet
347.21484375 702 m 1
 389.857421875 578 l 2
 392.370117188 571 395.03125 560 393.331054688 552 c 0
 391.41796875 543 381.930664062 536 372.930664062 536 c 0
 364.930664062 536 355.993164062 541 342.181640625 556 c 2
 243.5 661 l 1
 247.837890625 672 l 1
 257.750976562 681 291.639648438 704 327.639648438 704 c 0
 332.639648438 704 343.427734375 703 347.21484375 702 c 1
EndSplineSet
Substitution2: "LinLibertine-'case' Versalformen 1" uni0358
EndChar

StartChar: ograve
Encoding: 242 242 32
Width: 519
VWidth: 999
Flags: HW
HStem: -10 43<223.814 325.852> 403 41<203.326 303.665>
VStem: 34 122<119.406 317.729> 364 121<118.762 320.282>
LayerCount: 2
Fore
SplineSet
387.262695312 674 m 1
 429.90625 550 l 2
 432.41796875 543 435.080078125 532 433.379882812 524 c 0
 431.466796875 515 421.978515625 508 412.978515625 508 c 0
 404.978515625 508 396.041992188 513 382.229492188 528 c 2
 283.547851562 633 l 1
 287.88671875 644 l 1
 297.799804688 653 331.688476562 676 367.688476562 676 c 0
 372.688476562 676 383.475585938 675 387.262695312 674 c 1
335.66015625 403 m 0
 271.66015625 403 222.743164062 314 204.67578125 229 c 0
 188.946289062 155 200.014648438 33 282.014648438 33 c 0
 318.014648438 33 376.116210938 57 403.110351562 184 c 0
 433.505859375 327 403.66015625 403 335.66015625 403 c 0
77.9990234375 207 m 0
 107.119140625 344 209.375 444 354.375 444 c 0
 517.375 444 553.23046875 321 530.912109375 216 c 0
 509.444335938 115 411.874023438 -10 256.874023438 -10 c 0
 109.874023438 -10 56.10546875 104 77.9990234375 207 c 0
EndSplineSet
Substitution2: "LinLibertine-'smcp' Gemeine nach Kapitaelchen 1" ograve.sc
AlternateSubs2: "LinLibertine-'aalt' Alle Alternativen zeigen 1" ograve.sc
EndChar

StartChar: oacute
Encoding: 243 243 33
Width: 519
VWidth: 999
Flags: HW
HStem: -10 43<223.814 325.852> 403 41<203.326 303.665>
VStem: 34 122<119.406 317.729> 364 121<118.762 320.282>
LayerCount: 2
Fore
SplineSet
425.262695312 674 m 1
 428.475585938 675 436.688476562 676 441.688476562 676 c 0
 471.688476562 676 487.712890625 662 493.586914062 652 c 1
 498.698242188 629 l 1
 355.7421875 521 l 2
 339.19140625 509 324.340820312 505 314.340820312 505 c 0
 306.340820312 505 300.041992188 513 301.31640625 519 c 0
 302.591796875 525 306.504882812 534 314.41796875 543 c 2
 425.262695312 674 l 1
335.66015625 403 m 0
 271.66015625 403 222.743164062 314 204.67578125 229 c 0
 188.946289062 155 200.014648438 33 282.014648438 33 c 0
 318.014648438 33 376.116210938 57 403.110351562 184 c 0
 433.505859375 327 403.66015625 403 335.66015625 403 c 0
77.9990234375 207 m 0
 107.119140625 344 209.375 444 354.375 444 c 0
 517.375 444 553.23046875 321 530.912109375 216 c 0
 509.444335938 115 411.874023438 -10 256.874023438 -10 c 0
 109.874023438 -10 56.10546875 104 77.9990234375 207 c 0
EndSplineSet
Substitution2: "LinLibertine-'smcp' Gemeine nach Kapitaelchen 1" oacute.sc
AlternateSubs2: "LinLibertine-'aalt' Alle Alternativen zeigen 1" oacute.sc
EndChar

StartChar: ocircumflex
Encoding: 244 244 34
Width: 519
VWidth: 999
Flags: HW
HStem: -10 43<223.814 325.852> 403 41<203.326 303.665>
VStem: 34 122<119.406 317.729> 364 121<118.762 320.282>
LayerCount: 2
Fore
SplineSet
417.94921875 649 m 1
 437.534179688 600 466.181640625 556 494.466796875 515 c 1
 465.427734375 496 l 1
 427.954101562 522 403.206054688 542 376.0703125 579 c 1
 329.780273438 540 297.954101562 522 252.427734375 496 c 1
 231.466796875 515 l 1
 276.181640625 556 325.74609375 601 365.94921875 649 c 1
 417.94921875 649 l 1
335.66015625 403 m 0
 271.66015625 403 222.743164062 314 204.67578125 229 c 0
 188.946289062 155 200.014648438 33 282.014648438 33 c 0
 318.014648438 33 376.116210938 57 403.110351562 184 c 0
 433.505859375 327 403.66015625 403 335.66015625 403 c 0
77.9990234375 207 m 0
 107.119140625 344 209.375 444 354.375 444 c 0
 517.375 444 553.23046875 321 530.912109375 216 c 0
 509.444335938 115 411.874023438 -10 256.874023438 -10 c 0
 109.874023438 -10 56.10546875 104 77.9990234375 207 c 0
EndSplineSet
Substitution2: "LinLibertine-'smcp' Gemeine nach Kapitaelchen 1" ocircumflex.sc
AlternateSubs2: "LinLibertine-'aalt' Alle Alternativen zeigen 1" ocircumflex.sc
EndChar

StartChar: otilde
Encoding: 245 245 35
Width: 519
VWidth: 999
Flags: HW
HStem: -10 43<223.814 325.852> 403 41<203.326 303.665> 516 58<267 350.543> 570 59<148.743 235.285>
VStem: 34 122<119.406 317.729> 113 25<524.76 550.045> 364 26<596.869 622.692> 364 121<118.762 320.282>
LayerCount: 2
Fore
SplineSet
441.0078125 574 m 0
 463.0078125 574 477.920898438 583 502.3359375 632 c 1
 528.209960938 622 l 1
 500.755859375 554 462.25390625 514 414.25390625 514 c 0
 391.25390625 514 372.442382812 529 355.630859375 544 c 1
 338.393554688 557 321.157226562 570 303.157226562 570 c 0
 276.157226562 570 261.96875 555 242.891601562 517 c 1
 218.591796875 525 l 1
 247.045898438 593 279.123046875 631 324.123046875 631 c 0
 355.123046875 631 374.72265625 615 391.321289062 599 c 0
 406.345703125 585 421.0078125 574 441.0078125 574 c 0
335.66015625 403 m 0
 271.66015625 403 222.743164062 314 204.67578125 229 c 0
 188.946289062 155 200.014648438 33 282.014648438 33 c 0
 318.014648438 33 376.116210938 57 403.110351562 184 c 0
 433.505859375 327 403.66015625 403 335.66015625 403 c 0
77.9990234375 207 m 0
 107.119140625 344 209.375 444 354.375 444 c 0
 517.375 444 553.23046875 321 530.912109375 216 c 0
 509.444335938 115 411.874023438 -10 256.874023438 -10 c 0
 109.874023438 -10 56.10546875 104 77.9990234375 207 c 0
EndSplineSet
Substitution2: "LinLibertine-'smcp' Gemeine nach Kapitaelchen 1" otilde.sc
AlternateSubs2: "LinLibertine-'aalt' Alle Alternativen zeigen 1" otilde.sc
EndChar

StartChar: odieresis
Encoding: 246 246 36
Width: 519
VWidth: 999
Flags: HW
HStem: -10 43<223.814 325.852> 403 41<203.326 303.665> 518 107<120.97 207.324 301.676 388.03>
VStem: 34 122<119.406 317.729> 110 108<529.388 613.537> 291 108<529.388 613.537> 364 121<118.762 320.282>
LayerCount: 2
Fore
SplineSet
412.370117188 571 m 0
 418.74609375 601 447.84765625 625 477.84765625 625 c 0
 506.84765625 625 526.74609375 601 520.370117188 571 c 0
 514.206054688 542 484.104492188 518 455.104492188 518 c 0
 425.104492188 518 406.206054688 542 412.370117188 571 c 0
231.370117188 571 m 0
 237.74609375 601 267.84765625 625 296.84765625 625 c 0
 326.84765625 625 345.74609375 601 339.370117188 571 c 0
 333.206054688 542 304.104492188 518 274.104492188 518 c 0
 245.104492188 518 225.206054688 542 231.370117188 571 c 0
335.66015625 403 m 0
 271.66015625 403 222.743164062 314 204.67578125 229 c 0
 188.946289062 155 200.014648438 33 282.014648438 33 c 0
 318.014648438 33 376.116210938 57 403.110351562 184 c 0
 433.505859375 327 403.66015625 403 335.66015625 403 c 0
77.9990234375 207 m 0
 107.119140625 344 209.375 444 354.375 444 c 0
 517.375 444 553.23046875 321 530.912109375 216 c 0
 509.444335938 115 411.874023438 -10 256.874023438 -10 c 0
 109.874023438 -10 56.10546875 104 77.9990234375 207 c 0
EndSplineSet
Substitution2: "LinLibertine-'smcp' Gemeine nach Kapitaelchen 1" odieresis.sc
AlternateSubs2: "LinLibertine-'aalt' Alle Alternativen zeigen 1" odieresis.sc
EndChar

StartChar: divide
Encoding: 247 247 37
Width: 537
VWidth: 999
Flags: HW
HStem: 53.6 93<231.309 305.197> 195 74<71 466> 321.6 93<231.309 305.197>
VStem: 221.3 93.9<63.5478 136.66> 221.3 93.9<331.548 404.66>
LayerCount: 2
Fore
SplineSet
299.45703125 367.700195312 m 0
 304.983398438 393.700195312 330.42578125 414.599609375 356.42578125 414.599609375 c 0
 382.42578125 414.599609375 398.883789062 393.700195312 393.357421875 367.700195312 c 0
 388.021484375 342.599609375 362.658203125 321.599609375 336.658203125 321.599609375 c 0
 310.658203125 321.599609375 294.122070312 342.599609375 299.45703125 367.700195312 c 0
242.4921875 99.7001953125 m 0
 248.018554688 125.700195312 273.4609375 146.599609375 299.4609375 146.599609375 c 0
 325.4609375 146.599609375 341.91796875 125.700195312 336.391601562 99.7001953125 c 0
 331.056640625 74.599609375 305.693359375 53.599609375 279.693359375 53.599609375 c 0
 253.693359375 53.599609375 237.15625 74.599609375 242.4921875 99.7001953125 c 0
523.177734375 269 m 1
 507.448242188 195 l 1
 112.448242188 195 l 1
 128.177734375 269 l 1
 523.177734375 269 l 1
EndSplineSet
EndChar

StartChar: ugrave
Encoding: 249 249 38
Width: 550
VWidth: 999
Flags: HW
HStem: -10 50<215.254 312.397> 28 31<479.262 526> 402 34<29 58 293 346.026>
VStem: 87 110<56.8091 398.969> 352 110<69.9839 399.25>
LayerCount: 2
Fore
SplineSet
382.262695312 674 m 1
 424.90625 550 l 2
 427.41796875 543 430.080078125 532 428.379882812 524 c 0
 426.466796875 515 416.978515625 508 407.978515625 508 c 0
 399.978515625 508 391.041992188 513 377.229492188 528 c 2
 278.547851562 633 l 1
 282.88671875 644 l 1
 292.799804688 653 326.688476562 676 362.688476562 676 c 0
 367.688476562 676 378.475585938 675 382.262695312 674 c 1
486.444335938 115 m 2
 480.067382812 85 485.178710938 62 538.541015625 59 c 1
 532.951171875 28 l 1
 439.401367188 16 412.637695312 3 383.44921875 -12 c 1
 349.44921875 -12 l 1
 362.439453125 35 l 1
 309.0625 5 260.874023438 -10 223.874023438 -10 c 0
 107.874023438 -10 99.328125 58 114.20703125 128 c 2
 161.8203125 352 l 2
 168.196289062 382 166.103515625 398.5 143.022460938 400 c 2
 112.447265625 402 l 1
 109.873046875 404 l 1
 116.25 434 l 1
 121.674804688 436 l 1
 121.674804688 436 200.25 434 232.25 434 c 0
 246.25 434 290.674804688 436 290.674804688 436 c 1
 290.674804688 436 280.109375 391 272.245117188 354 c 2
 227.182617188 142 l 2
 209.328125 58 238.501953125 40 259.501953125 40 c 0
 281.501953125 40 324.565429688 45 368.3671875 77 c 1
 426.8203125 352 l 2
 433.622070312 384 427.022460938 400 409.022460938 400 c 1
 378.447265625 402 l 1
 374.873046875 404 l 1
 381.25 434 l 1
 385.674804688 436 l 1
 385.674804688 436 469.25 434 496.25 434 c 0
 517.25 434 556.674804688 436 556.674804688 436 c 1
 556.674804688 436 545.853515625 394.5 537.245117188 354 c 2
 486.444335938 115 l 2
EndSplineSet
Substitution2: "LinLibertine-'smcp' Gemeine nach Kapitaelchen 1" ugrave.sc
AlternateSubs2: "LinLibertine-'aalt' Alle Alternativen zeigen 1" ugrave.sc
EndChar

StartChar: uacute
Encoding: 250 250 39
Width: 550
VWidth: 999
Flags: HW
HStem: -10 50<215.254 312.397> 28 31<479.262 526> 402 34<29 58 293 346.026>
VStem: 87 110<56.8091 398.969> 352 110<69.9839 399.25>
LayerCount: 2
Fore
SplineSet
452.262695312 674 m 1
 455.475585938 675 463.688476562 676 468.688476562 676 c 0
 498.688476562 676 514.712890625 662 520.586914062 652 c 1
 525.698242188 629 l 1
 382.7421875 521 l 2
 366.19140625 509 351.340820312 505 341.340820312 505 c 0
 333.340820312 505 327.041992188 513 328.31640625 519 c 0
 329.591796875 525 333.504882812 534 341.41796875 543 c 2
 452.262695312 674 l 1
486.444335938 115 m 2
 480.067382812 85 485.178710938 62 538.541015625 59 c 1
 532.951171875 28 l 1
 439.401367188 16 412.637695312 3 383.44921875 -12 c 1
 349.44921875 -12 l 1
 362.439453125 35 l 1
 309.0625 5 260.874023438 -10 223.874023438 -10 c 0
 107.874023438 -10 99.328125 58 114.20703125 128 c 2
 161.8203125 352 l 2
 168.196289062 382 166.103515625 398.5 143.022460938 400 c 2
 112.447265625 402 l 1
 109.873046875 404 l 1
 116.25 434 l 1
 121.674804688 436 l 1
 121.674804688 436 200.25 434 232.25 434 c 0
 246.25 434 290.674804688 436 290.674804688 436 c 1
 290.674804688 436 280.109375 391 272.245117188 354 c 2
 227.182617188 142 l 2
 209.328125 58 238.501953125 40 259.501953125 40 c 0
 281.501953125 40 324.565429688 45 368.3671875 77 c 1
 426.8203125 352 l 2
 433.622070312 384 427.022460938 400 409.022460938 400 c 1
 378.447265625 402 l 1
 374.873046875 404 l 1
 381.25 434 l 1
 385.674804688 436 l 1
 385.674804688 436 469.25 434 496.25 434 c 0
 517.25 434 556.674804688 436 556.674804688 436 c 1
 556.674804688 436 545.853515625 394.5 537.245117188 354 c 2
 486.444335938 115 l 2
EndSplineSet
Substitution2: "LinLibertine-'smcp' Gemeine nach Kapitaelchen 1" uacute.sc
AlternateSubs2: "LinLibertine-'aalt' Alle Alternativen zeigen 1" uacute.sc
EndChar

StartChar: ucircumflex
Encoding: 251 251 40
Width: 550
VWidth: 999
Flags: HW
HStem: -10 50<215.254 312.397> 28 31<479.262 526> 402 34<29 58 293 346.026>
VStem: 87 110<56.8091 398.969> 352 110<69.9839 399.25>
LayerCount: 2
Fore
SplineSet
422.94921875 649 m 1
 442.534179688 600 471.181640625 556 499.466796875 515 c 1
 470.427734375 496 l 1
 432.954101562 522 408.206054688 542 381.0703125 579 c 1
 334.780273438 540 302.954101562 522 257.427734375 496 c 1
 236.466796875 515 l 1
 281.181640625 556 330.74609375 601 370.94921875 649 c 1
 422.94921875 649 l 1
486.444335938 115 m 2
 480.067382812 85 485.178710938 62 538.541015625 59 c 1
 532.951171875 28 l 1
 439.401367188 16 412.637695312 3 383.44921875 -12 c 1
 349.44921875 -12 l 1
 362.439453125 35 l 1
 309.0625 5 260.874023438 -10 223.874023438 -10 c 0
 107.874023438 -10 99.328125 58 114.20703125 128 c 2
 161.8203125 352 l 2
 168.196289062 382 166.103515625 398.5 143.022460938 400 c 2
 112.447265625 402 l 1
 109.873046875 404 l 1
 116.25 434 l 1
 121.674804688 436 l 1
 121.674804688 436 200.25 434 232.25 434 c 0
 246.25 434 290.674804688 436 290.674804688 436 c 1
 290.674804688 436 280.109375 391 272.245117188 354 c 2
 227.182617188 142 l 2
 209.328125 58 238.501953125 40 259.501953125 40 c 0
 281.501953125 40 324.565429688 45 368.3671875 77 c 1
 426.8203125 352 l 2
 433.622070312 384 427.022460938 400 409.022460938 400 c 1
 378.447265625 402 l 1
 374.873046875 404 l 1
 381.25 434 l 1
 385.674804688 436 l 1
 385.674804688 436 469.25 434 496.25 434 c 0
 517.25 434 556.674804688 436 556.674804688 436 c 1
 556.674804688 436 545.853515625 394.5 537.245117188 354 c 2
 486.444335938 115 l 2
EndSplineSet
Substitution2: "LinLibertine-'smcp' Gemeine nach Kapitaelchen 1" ucircumflex.sc
AlternateSubs2: "LinLibertine-'aalt' Alle Alternativen zeigen 1" ucircumflex.sc
EndChar

StartChar: ebreve
Encoding: 277 277 41
Width: 461
VWidth: 999
Flags: HW
HStem: -10 56<218.732 346.305> 245 40<154 316> 402 42<199.114 288.493> 498 62<172.853 307.87>
VStem: 34 115<124.669 245 285 306.603> 105 32<604.278 639.062> 316 115<259 363.973> 344 31<605.121 639.161>
LayerCount: 2
Fore
SplineSet
271.799804688 653 m 1
 262.321289062 599 296.819335938 559 359.819335938 559 c 0
 406.819335938 559 470.196289062 589 486.799804688 653 c 1
 515.611328125 638 l 1
 483.29296875 533 397.215820312 495 346.215820312 495 c 0
 265.215820312 495 225.393554688 557 235.611328125 638 c 1
 271.799804688 653 l 1
214.579101562 285 m 1
 374.579101562 285 l 1
 377.00390625 287 377.641601562 290 378.916992188 296 c 0
 395.920898438 376 360.447265625 402 333.447265625 402 c 0
 312.447265625 402 250.259765625 387 214.579101562 285 c 1
420.168945312 109 m 1
 440.705078125 88 l 1
 387.763671875 13 312.874023438 -10 243.874023438 -10 c 0
 91.8740234375 -10 52.705078125 88 76.0859375 198 c 0
 108.607421875 351 238.375 444 343.375 444 c 0
 490.375 444 505.607421875 351 487.540039062 266 c 0
 484.564453125 252 468.076171875 245 444.076171875 245 c 2
 201.076171875 245 l 1
 200.013671875 240 197.038085938 226 195.549804688 219 c 0
 174.719726562 121 216.77734375 46 294.77734375 46 c 0
 332.77734375 46 373.603515625 64 420.168945312 109 c 1
EndSplineSet
EndChar

StartChar: Edotaccent
Encoding: 278 278 42
Width: 562
VWidth: 999
Flags: HW
HStem: 0 33<27 94.1445> 0 46<224.232 442.935> 323 42<224 361.625> 427 20<383 415> 600 46<224.232 421.482> 613 33<27 94.1445> 681 120<245.745 338.255>
VStem: 101 123<46.578 323 365 599.422> 232 120<694.745 787.255> 372 36<251.814 315.565 372.621 436.233> 474 40<482.425 531.807> 499 43<118.211 170.628>
LayerCount: 2
Fore
SplineSet
387.504882812 741 m 0
 394.731445312 775 428.682617188 803 462.682617188 803 c 0
 496.682617188 803 518.731445312 775 511.504882812 741 c 0
 504.27734375 707 470.326171875 679 436.326171875 679 c 0
 402.326171875 679 380.27734375 707 387.504882812 741 c 0
27 0 m 1
 24.4248046875 2 l 1
 29.1015625 24 l 2
 30.376953125 30 35.0146484375 33 39.0146484375 33 c 2
 53.0146484375 33 l 2
 93.0146484375 33 110.565429688 45 117.3671875 77 c 2
 221.944335938 569 l 2
 228.74609375 601 216.296875 613 176.296875 613 c 2
 162.296875 613 l 2
 158.296875 613 154.934570312 616 155.998046875 621 c 2
 160.88671875 644 l 1
 164.311523438 646 l 1
 630.311523438 646 l 1
 621.983398438 588 617.717773438 535 616.876953125 484 c 1
 574.96484375 475 l 1
 571.8046875 526 562.534179688 600 495.534179688 600 c 2
 365.534179688 600 l 2
 356.534179688 600 349.833007812 592 345.370117188 571 c 2
 301.583007812 365 l 1
 414.583007812 365 l 2
 439.583007812 365 450.172851562 396 464.674804688 436 c 0
 465.524414062 440 473.012695312 447 483.012695312 447 c 2
 504.012695312 447 l 1
 507.887695312 437 l 1
 502.486328125 421 488.984375 381 481.119140625 344 c 0
 473.467773438 308 469.96484375 268 468.3515625 251 c 1
 460.438476562 242 l 1
 439.438476562 242 l 2
 429.438476562 242 424.713867188 248 425.564453125 252 c 0
 428.279296875 293 430.65625 323 405.65625 323 c 2
 292.65625 323 l 1
 239.94140625 75 l 2
 235.052734375 52 238.77734375 46 247.77734375 46 c 2
 400.77734375 46 l 2
 455.77734375 46 504.318359375 105 537.047851562 179 c 1
 577.921875 169 l 1
 556.65625 116 533.478515625 54 515 0 c 1
 27 0 l 1
EndSplineSet
Position2: "'cpsp' Versalabstaende 1" dx=2 dy=0 dh=5 dv=0
EndChar

StartChar: edotaccent
Encoding: 279 279 43
Width: 461
VWidth: 999
Flags: HW
HStem: -10 56<218.732 346.305> 245 40<154 316> 402 42<199.114 288.493> 512 120<195.745 288.255>
VStem: 34 115<124.669 245 285 306.603> 182 120<525.745 618.255> 316 115<259 363.973>
LayerCount: 2
Fore
SplineSet
301.58203125 572 m 0
 308.809570312 606 342.760742188 634 376.760742188 634 c 0
 410.760742188 634 432.809570312 606 425.58203125 572 c 0
 418.35546875 538 384.404296875 510 350.404296875 510 c 0
 316.404296875 510 294.35546875 538 301.58203125 572 c 0
214.579101562 285 m 1
 374.579101562 285 l 1
 377.00390625 287 377.641601562 290 378.916992188 296 c 0
 395.920898438 376 360.447265625 402 333.447265625 402 c 0
 312.447265625 402 250.259765625 387 214.579101562 285 c 1
420.168945312 109 m 1
 440.705078125 88 l 1
 387.763671875 13 312.874023438 -10 243.874023438 -10 c 0
 91.8740234375 -10 52.705078125 88 76.0859375 198 c 0
 108.607421875 351 238.375 444 343.375 444 c 0
 490.375 444 505.607421875 351 487.540039062 266 c 0
 484.564453125 252 468.076171875 245 444.076171875 245 c 2
 201.076171875 245 l 1
 200.013671875 240 197.038085938 226 195.549804688 219 c 0
 174.719726562 121 216.77734375 46 294.77734375 46 c 0
 332.77734375 46 373.603515625 64 420.168945312 109 c 1
EndSplineSet
EndChar

StartChar: Eogonek
Encoding: 280 280 44
Width: 562
VWidth: 999
Flags: HW
HStem: -224 39<385.181 468.941> 0 25<454.256 490.88> 0 33<27 94.1445> 0 46<224.232 442.935> 323 42<224 361.625> 427 20<383 415> 600 46<224.232 421.482> 613 33<27 94.1445>
VStem: 101 123<46.578 323 365 599.422> 311 60<-173.091 -74.5789> 372 36<251.814 315.565 372.621 436.233> 474 40<482.425 531.807> 499 43<118.211 170.628>
LayerCount: 2
Fore
SplineSet
356.387695312 -224 m 0
 303.387695312 -224 269.9765625 -193 281.455078125 -139 c 0
 291.55078125 -91.5 343.900390625 -33.400390625 411.200195312 0 c 1
 27 0 l 1
 24.4248046875 2 l 1
 29.1015625 24 l 2
 30.376953125 30 35.0146484375 33 39.0146484375 33 c 2
 53.0146484375 33 l 2
 93.0146484375 33 110.565429688 45 117.3671875 77 c 2
 221.944335938 569 l 2
 228.74609375 601 216.296875 613 176.296875 613 c 2
 162.296875 613 l 2
 158.296875 613 154.934570312 616 155.998046875 621 c 2
 160.88671875 644 l 1
 164.311523438 646 l 1
 630.311523438 646 l 1
 621.983398438 588 617.717773438 535 616.876953125 484 c 1
 574.96484375 475 l 1
 571.8046875 526 562.534179688 600 495.534179688 600 c 2
 365.534179688 600 l 2
 356.534179688 600 349.833007812 592 345.370117188 571 c 2
 301.583007812 365 l 1
 414.583007812 365 l 2
 439.583007812 365 450.172851562 396 464.674804688 436 c 0
 465.524414062 440 473.012695312 447 483.012695312 447 c 2
 504.012695312 447 l 1
 507.887695312 437 l 1
 502.486328125 421 488.984375 381 481.119140625 344 c 0
 473.467773438 308 469.96484375 268 468.3515625 251 c 1
 460.438476562 242 l 1
 439.438476562 242 l 2
 429.438476562 242 424.713867188 248 425.564453125 252 c 0
 428.279296875 293 430.65625 323 405.65625 323 c 2
 292.65625 323 l 1
 239.94140625 75 l 2
 235.052734375 52 238.77734375 46 247.77734375 46 c 2
 400.77734375 46 l 2
 455.77734375 46 504.318359375 105 537.047851562 179 c 1
 577.921875 169 l 1
 556.65625 116 533.478515625 54 515 0 c 1
 506 0 l 2
 426 0 355.05859375 -75 344.217773438 -126 c 0
 337.416015625 -158 353.676757812 -185 389.676757812 -185 c 0
 419.676757812 -185 442.865234375 -170 467.329101562 -149 c 1
 480.62890625 -157 l 1
 446.638671875 -204 392.387695312 -224 356.387695312 -224 c 0
EndSplineSet
Substitution2: "LinLibertine-'c2sc' Versale nach Kapitaelchen 1" eogonek.sc
Position2: "'cpsp' Versalabstaende 1" dx=2 dy=0 dh=5 dv=0
EndChar

StartChar: eogonek
Encoding: 281 281 45
Width: 461
VWidth: 999
Flags: HW
HStem: -218 40<269.1 348.306> -10 56<218.732 346.305> 245 40<154 316> 402 42<199.114 288.493>
VStem: 34 115<124.669 245 285 306.603> 184 72<-166.748 -67.9608> 316 115<259 363.973>
LayerCount: 2
Fore
SplineSet
214.579101562 285 m 1
 374.579101562 285 l 1
 377.00390625 287 377.641601562 290 378.916992188 296 c 0
 395.920898438 376 360.447265625 402 333.447265625 402 c 0
 312.447265625 402 250.259765625 387 214.579101562 285 c 1
420.168945312 109 m 1
 440.705078125 88 l 1
 410.22265625 44.7998046875 372.396484375 18.7998046875 332.677734375 4.599609375 c 1
 285.92578125 -31.400390625 241.099609375 -70.099609375 229.217773438 -126 c 0
 223.69140625 -152 242.165039062 -178 273.165039062 -178 c 0
 290.165039062 -178 311.140625 -164 337.2421875 -140 c 1
 355.840820312 -156 l 1
 319.125976562 -197 279.663085938 -218 240.663085938 -218 c 0
 184.663085938 -218 144.251953125 -187 155.942382812 -132 c 0
 165.2734375 -88.099609375 208.271484375 -45.2998046875 256.337890625 -9.7001953125 c 1
 252.1953125 -9.900390625 247.974609375 -10 243.874023438 -10 c 0
 91.8740234375 -10 52.705078125 88 76.0859375 198 c 0
 108.607421875 351 238.375 444 343.375 444 c 0
 490.375 444 505.607421875 351 487.540039062 266 c 0
 484.564453125 252 468.076171875 245 444.076171875 245 c 2
 201.076171875 245 l 1
 200.013671875 240 197.038085938 226 195.549804688 219 c 0
 174.719726562 121 216.77734375 46 294.77734375 46 c 0
 332.77734375 46 373.603515625 64 420.168945312 109 c 1
EndSplineSet
Substitution2: "LinLibertine-'smcp' Gemeine nach Kapitaelchen 1" eogonek.sc
AlternateSubs2: "LinLibertine-'aalt' Alle Alternativen zeigen 1" eogonek.sc
EndChar

StartChar: Ecaron
Encoding: 282 282 46
Width: 562
VWidth: 999
Flags: HW
HStem: 0 33<27 94.1445> 0 46<224.232 442.935> 323 42<224 361.625> 427 20<383 415> 600 46<224.232 421.482> 613 33<27 94.1445>
VStem: 101 123<46.578 323 365 599.422> 372 36<251.814 315.565 372.621 436.233> 474 40<482.425 531.807> 499 43<118.211 170.628>
LayerCount: 2
Fore
SplineSet
416.15234375 697 m 1
 394.016601562 734 365.393554688 764 335.344726562 792 c 1
 355.595703125 812 l 1
 390.982421875 795 420.944335938 776 448.629882812 751 c 1
 491.15625 777 527.1953125 796 568.595703125 812 c 1
 579.344726562 792 l 1
 535.180664062 763 496.37890625 731 459.15234375 697 c 1
 416.15234375 697 l 1
27 0 m 1
 24.4248046875 2 l 1
 29.1015625 24 l 2
 30.376953125 30 35.0146484375 33 39.0146484375 33 c 2
 53.0146484375 33 l 2
 93.0146484375 33 110.565429688 45 117.3671875 77 c 2
 221.944335938 569 l 2
 228.74609375 601 216.296875 613 176.296875 613 c 2
 162.296875 613 l 2
 158.296875 613 154.934570312 616 155.998046875 621 c 2
 160.88671875 644 l 1
 164.311523438 646 l 1
 630.311523438 646 l 1
 621.983398438 588 617.717773438 535 616.876953125 484 c 1
 574.96484375 475 l 1
 571.8046875 526 562.534179688 600 495.534179688 600 c 2
 365.534179688 600 l 2
 356.534179688 600 349.833007812 592 345.370117188 571 c 2
 301.583007812 365 l 1
 414.583007812 365 l 2
 439.583007812 365 450.172851562 396 464.674804688 436 c 0
 465.524414062 440 473.012695312 447 483.012695312 447 c 2
 504.012695312 447 l 1
 507.887695312 437 l 1
 502.486328125 421 488.984375 381 481.119140625 344 c 0
 473.467773438 308 469.96484375 268 468.3515625 251 c 1
 460.438476562 242 l 1
 439.438476562 242 l 2
 429.438476562 242 424.713867188 248 425.564453125 252 c 0
 428.279296875 293 430.65625 323 405.65625 323 c 2
 292.65625 323 l 1
 239.94140625 75 l 2
 235.052734375 52 238.77734375 46 247.77734375 46 c 2
 400.77734375 46 l 2
 455.77734375 46 504.318359375 105 537.047851562 179 c 1
 577.921875 169 l 1
 556.65625 116 533.478515625 54 515 0 c 1
 27 0 l 1
EndSplineSet
Substitution2: "LinLibertine-'c2sc' Versale nach Kapitaelchen 1" ecaron.sc
Position2: "'cpsp' Versalabstaende 1" dx=2 dy=0 dh=5 dv=0
EndChar

StartChar: ecaron
Encoding: 283 283 47
Width: 461
VWidth: 999
Flags: HW
HStem: -10 56<218.732 346.305> 245 40<154 316> 402 42<199.114 288.493>
VStem: 34 115<124.669 245 285 306.603> 316 115<259 363.973>
LayerCount: 2
Fore
SplineSet
366.640625 497 m 1
 316.640625 497 l 1
 297.41796875 543 268.55859375 586 242.060546875 626 c 1
 269.88671875 644 l 1
 303.147460938 617 325.108398438 598 354.03125 560 c 1
 395.68359375 596 430.147460938 617 474.88671875 644 c 1
 495.060546875 626 l 1
 450.55859375 586 405.630859375 544 366.640625 497 c 1
214.579101562 285 m 1
 374.579101562 285 l 1
 377.00390625 287 377.641601562 290 378.916992188 296 c 0
 395.920898438 376 360.447265625 402 333.447265625 402 c 0
 312.447265625 402 250.259765625 387 214.579101562 285 c 1
420.168945312 109 m 1
 440.705078125 88 l 1
 387.763671875 13 312.874023438 -10 243.874023438 -10 c 0
 91.8740234375 -10 52.705078125 88 76.0859375 198 c 0
 108.607421875 351 238.375 444 343.375 444 c 0
 490.375 444 505.607421875 351 487.540039062 266 c 0
 484.564453125 252 468.076171875 245 444.076171875 245 c 2
 201.076171875 245 l 1
 200.013671875 240 197.038085938 226 195.549804688 219 c 0
 174.719726562 121 216.77734375 46 294.77734375 46 c 0
 332.77734375 46 373.603515625 64 420.168945312 109 c 1
EndSplineSet
Substitution2: "LinLibertine-'smcp' Gemeine nach Kapitaelchen 1" ecaron.sc
AlternateSubs2: "LinLibertine-'aalt' Alle Alternativen zeigen 1" ecaron.sc
EndChar

StartChar: Gcircumflex
Encoding: 284 284 48
Width: 727
VWidth: 999
Flags: HW
HStem: -10 44<306.541 502.262> 272 34<440 520.715 652.798 706> 437 21<571 624> 617 41<300.747 473.546>
VStem: 29 130<202 430.82> 532 117<85.3282 262.125> 585 39<443.564 488.517>
LayerCount: 2
Fore
SplineSet
556.108398438 805 m 1
 578.456054688 769 606.8671875 738 637.127929688 711 c 1
 616.6640625 690 l 1
 581.490234375 708 551.528320312 727 523.842773438 752 c 1
 481.103515625 725 445.27734375 707 403.6640625 690 c 1
 394.127929688 711 l 1
 437.079101562 739 474.880859375 771 513.108398438 805 c 1
 556.108398438 805 l 1
697.67578125 229 m 2
 673.231445312 114 l 2
 670.04296875 99 672.555664062 92 679.067382812 85 c 1
 596.526367188 26 509.874023438 -10 383.874023438 -10 c 0
 170.874023438 -10 57.482421875 134 94.4677734375 308 c 0
 141.229492188 528 344.862304688 658 522.862304688 658 c 0
 657.862304688 658 681.509765625 614 732.509765625 614 c 1
 723.181640625 556 720.278320312 500 718.587890625 445 c 1
 677.887695312 437 l 1
 669.8671875 531 640.147460938 617 513.147460938 617 c 0
 392.147460938 617 264.853515625 498 228.505859375 327 c 0
 196.41015625 176 250.2265625 34 411.2265625 34 c 0
 454.2265625 34 507.77734375 46 547.729492188 74 c 1
 580.67578125 229 l 2
 587.264648438 260 557.815429688 272 517.815429688 272 c 2
 503.815429688 272 l 2
 499.815429688 272 496.453125 275 497.728515625 281 c 2
 502.6171875 304 l 1
 505.041992188 306 l 1
 505.041992188 306 601.6171875 304 640.6171875 304 c 0
 676.6171875 304 771.041992188 306 771.041992188 306 c 1
 772.6171875 304 l 1
 767.728515625 281 l 2
 766.453125 275 762.815429688 272 757.815429688 272 c 2
 751.815429688 272 l 2
 710.815429688 272 703.4140625 256 697.67578125 229 c 2
EndSplineSet
Position2: "'cpsp' Versalabstaende 1" dx=2 dy=0 dh=5 dv=0
EndChar

StartChar: gcircumflex
Encoding: 285 285 49
Width: 508
VWidth: 999
Flags: HW
HStem: -238 42<178.622 331.027> -12 68<200.45 373.262> 135 37<205.129 289.171> 409 35<196.474 280.87> 424 43<370.607 460>
VStem: 38 94<-154.282 -55.8943> 62 106<210.3 365.373> 71 84<55.4643 131.752> 316 108<211.187 370.331> 406 91<-121.914 -39.1241>
LayerCount: 2
Fore
SplineSet
405.736328125 648 m 1
 425.321289062 599 453.96875 555 482.25390625 514 c 1
 453.215820312 495 l 1
 415.7421875 521 390.993164062 541 363.857421875 578 c 1
 317.568359375 539 285.7421875 521 240.215820312 495 c 1
 219.25390625 514 l 1
 263.96875 555 313.534179688 600 353.736328125 648 c 1
 405.736328125 648 l 1
372.366210938 284 m 0
 389.158203125 363 366.935546875 409 319.935546875 409 c 0
 280.935546875 409 243.708984375 375 227.979492188 301 c 0
 217.138671875 250 220.559570312 172 282.559570312 172 c 0
 308.559570312 172 351.9609375 188 372.366210938 284 c 0
179.811523438 -15 m 0
 167.811523438 -15 156.811523438 -15 147.662109375 -11 c 1
 121.985351562 -33 114.821289062 -62 107.594726562 -96 c 0
 92.5029296875 -167 161.338867188 -196 189.338867188 -196 c 0
 264.338867188 -196 368.840820312 -156 384.783203125 -81 c 0
 398.811523438 -15 298.44921875 -12 253.44921875 -12 c 0
 244.44921875 -12 235.236328125 -13 222.024414062 -14 c 0
 206.811523438 -15 190.811523438 -15 179.811523438 -15 c 0
528.409179688 383 m 0
 503.409179688 383 498.810546875 399 497.573242188 412 c 1
 495.848632812 418 494.124023438 424 485.124023438 424 c 0
 475.124023438 424 462.423828125 416 452.297851562 406 c 1
 480.346679688 378 492.907226562 343 481.00390625 287 c 0
 460.172851562 189 363.6953125 135 269.6953125 135 c 0
 238.6953125 135 208.2578125 140 189.383789062 150 c 1
 181.833007812 138 175.869140625 117 172.467773438 101 c 0
 163.965820312 61 188.415039062 49 206.415039062 49 c 0
 215.415039062 49 263.903320312 56 301.903320312 56 c 0
 464.903320312 56 489.38671875 -17 481.309570312 -55 c 0
 457.927734375 -165 291.411132812 -238 152.411132812 -238 c 0
 70.4111328125 -238 -9.57421875 -205 9.34375 -116 c 0
 17.6328125 -77 55.7734375 -34 115.212890625 1 c 1
 90.826171875 18 75.927734375 42 82.7294921875 74 c 0
 89.318359375 105 118.439453125 138.5 154.390625 166.5 c 1
 122.810546875 192 109.651367188 243 120.06640625 292 c 0
 139.833984375 385 240.375 444 336.375 444 c 0
 381.375 444 410.461914062 435 426.336914062 425 c 1
 460.86328125 451 509.263671875 467 536.263671875 467 c 0
 574.263671875 467 584.950195312 442 580.911132812 423 c 0
 575.810546875 399 556.409179688 383 528.409179688 383 c 0
EndSplineSet
EndChar

StartChar: Gbreve
Encoding: 286 286 50
Width: 727
VWidth: 999
Flags: HW
HStem: -10 44<306.541 502.262> 272 34<440 520.715 652.798 706> 437 21<571 624> 617 41<300.747 473.546> 693 52<292.738 450.296> 786 20<236 268 476.5 507>
VStem: 29 130<202 430.82> 236 28<781.047 806> 480 27<780.76 806> 532 117<85.3282 262.125> 585 39<443.564 488.517>
LayerCount: 2
Fore
SplineSet
678.3203125 806 m 1
 657.229492188 735 585.301757812 693 519.301757812 693 c 0
 446.301757812 693 397.44140625 736 407.3203125 806 c 1
 435.3203125 806 l 1
 435.03125 767 477.354492188 745 530.354492188 745 c 0
 579.354492188 745 636.03125 767 651.3203125 806 c 1
 678.3203125 806 l 1
697.67578125 229 m 2
 673.231445312 114 l 2
 670.04296875 99 672.555664062 92 679.067382812 85 c 1
 596.526367188 26 509.874023438 -10 383.874023438 -10 c 0
 170.874023438 -10 57.482421875 134 94.4677734375 308 c 0
 141.229492188 528 344.862304688 658 522.862304688 658 c 0
 657.862304688 658 681.509765625 614 732.509765625 614 c 1
 723.181640625 556 720.278320312 500 718.587890625 445 c 1
 677.887695312 437 l 1
 669.8671875 531 640.147460938 617 513.147460938 617 c 0
 392.147460938 617 264.853515625 498 228.505859375 327 c 0
 196.41015625 176 250.2265625 34 411.2265625 34 c 0
 454.2265625 34 507.77734375 46 547.729492188 74 c 1
 580.67578125 229 l 2
 587.264648438 260 557.815429688 272 517.815429688 272 c 2
 503.815429688 272 l 2
 499.815429688 272 496.453125 275 497.728515625 281 c 2
 502.6171875 304 l 1
 505.041992188 306 l 1
 505.041992188 306 601.6171875 304 640.6171875 304 c 0
 676.6171875 304 771.041992188 306 771.041992188 306 c 1
 772.6171875 304 l 1
 767.728515625 281 l 2
 766.453125 275 762.815429688 272 757.815429688 272 c 2
 751.815429688 272 l 2
 710.815429688 272 703.4140625 256 697.67578125 229 c 2
EndSplineSet
Substitution2: "LinLibertine-'c2sc' Versale nach Kapitaelchen 1" gbreve.sc
Position2: "'cpsp' Versalabstaende 1" dx=2 dy=0 dh=5 dv=0
EndChar

StartChar: gbreve
Encoding: 287 287 51
Width: 508
VWidth: 999
Flags: HW
HStem: -238 42<178.622 331.027> -12 68<200.45 373.262> 135 37<205.129 289.171> 409 35<196.474 280.87> 424 43<370.607 460> 494 62<164.853 299.87>
VStem: 38 94<-154.282 -55.8943> 62 106<210.3 365.373> 71 84<55.4643 131.752> 97 32<600.278 635.062> 316 108<211.187 370.331> 336 31<601.121 635.161> 406 91<-121.914 -39.1241>
LayerCount: 2
Fore
SplineSet
262.94921875 649 m 1
 253.470703125 595 287.96875 555 350.96875 555 c 0
 397.96875 555 461.345703125 585 477.94921875 649 c 1
 506.760742188 634 l 1
 474.442382812 529 388.365234375 491 337.365234375 491 c 0
 256.365234375 491 216.543945312 553 226.760742188 634 c 1
 262.94921875 649 l 1
372.366210938 284 m 0
 389.158203125 363 366.935546875 409 319.935546875 409 c 0
 280.935546875 409 243.708984375 375 227.979492188 301 c 0
 217.138671875 250 220.559570312 172 282.559570312 172 c 0
 308.559570312 172 351.9609375 188 372.366210938 284 c 0
179.811523438 -15 m 0
 167.811523438 -15 156.811523438 -15 147.662109375 -11 c 1
 121.985351562 -33 114.821289062 -62 107.594726562 -96 c 0
 92.5029296875 -167 161.338867188 -196 189.338867188 -196 c 0
 264.338867188 -196 368.840820312 -156 384.783203125 -81 c 0
 398.811523438 -15 298.44921875 -12 253.44921875 -12 c 0
 244.44921875 -12 235.236328125 -13 222.024414062 -14 c 0
 206.811523438 -15 190.811523438 -15 179.811523438 -15 c 0
528.409179688 383 m 0
 503.409179688 383 498.810546875 399 497.573242188 412 c 1
 495.848632812 418 494.124023438 424 485.124023438 424 c 0
 475.124023438 424 462.423828125 416 452.297851562 406 c 1
 480.346679688 378 492.907226562 343 481.00390625 287 c 0
 460.172851562 189 363.6953125 135 269.6953125 135 c 0
 238.6953125 135 208.2578125 140 189.383789062 150 c 1
 181.833007812 138 175.869140625 117 172.467773438 101 c 0
 163.965820312 61 188.415039062 49 206.415039062 49 c 0
 215.415039062 49 263.903320312 56 301.903320312 56 c 0
 464.903320312 56 489.38671875 -17 481.309570312 -55 c 0
 457.927734375 -165 291.411132812 -238 152.411132812 -238 c 0
 70.4111328125 -238 -9.57421875 -205 9.34375 -116 c 0
 17.6328125 -77 55.7734375 -34 115.212890625 1 c 1
 90.826171875 18 75.927734375 42 82.7294921875 74 c 0
 89.318359375 105 118.439453125 138.5 154.390625 166.5 c 1
 122.810546875 192 109.651367188 243 120.06640625 292 c 0
 139.833984375 385 240.375 444 336.375 444 c 0
 381.375 444 410.461914062 435 426.336914062 425 c 1
 460.86328125 451 509.263671875 467 536.263671875 467 c 0
 574.263671875 467 584.950195312 442 580.911132812 423 c 0
 575.810546875 399 556.409179688 383 528.409179688 383 c 0
EndSplineSet
Substitution2: "LinLibertine-'smcp' Gemeine nach Kapitaelchen 1" gbreve.sc
AlternateSubs2: "LinLibertine-'aalt' Alle Alternativen zeigen 1" gbreve.sc
EndChar

StartChar: Gdotaccent
Encoding: 288 288 52
Width: 727
VWidth: 999
Flags: HW
HStem: -10 44<306.541 502.262> 272 34<440 520.715 652.798 706> 437 21<571 624> 617 41<300.747 473.546> 694 120<340.745 433.255>
VStem: 29 130<202 430.82> 327 120<707.745 800.255> 532 117<85.3282 262.125> 585 39<443.564 488.517>
LayerCount: 2
Fore
SplineSet
485.267578125 754 m 0
 492.494140625 788 526.446289062 816 560.446289062 816 c 0
 594.446289062 816 616.494140625 788 609.267578125 754 c 0
 602.041015625 720 568.088867188 692 534.088867188 692 c 0
 500.088867188 692 478.041015625 720 485.267578125 754 c 0
697.67578125 229 m 2
 673.231445312 114 l 2
 670.04296875 99 672.555664062 92 679.067382812 85 c 1
 596.526367188 26 509.874023438 -10 383.874023438 -10 c 0
 170.874023438 -10 57.482421875 134 94.4677734375 308 c 0
 141.229492188 528 344.862304688 658 522.862304688 658 c 0
 657.862304688 658 681.509765625 614 732.509765625 614 c 1
 723.181640625 556 720.278320312 500 718.587890625 445 c 1
 677.887695312 437 l 1
 669.8671875 531 640.147460938 617 513.147460938 617 c 0
 392.147460938 617 264.853515625 498 228.505859375 327 c 0
 196.41015625 176 250.2265625 34 411.2265625 34 c 0
 454.2265625 34 507.77734375 46 547.729492188 74 c 1
 580.67578125 229 l 2
 587.264648438 260 557.815429688 272 517.815429688 272 c 2
 503.815429688 272 l 2
 499.815429688 272 496.453125 275 497.728515625 281 c 2
 502.6171875 304 l 1
 505.041992188 306 l 1
 505.041992188 306 601.6171875 304 640.6171875 304 c 0
 676.6171875 304 771.041992188 306 771.041992188 306 c 1
 772.6171875 304 l 1
 767.728515625 281 l 2
 766.453125 275 762.815429688 272 757.815429688 272 c 2
 751.815429688 272 l 2
 710.815429688 272 703.4140625 256 697.67578125 229 c 2
EndSplineSet
Position2: "'cpsp' Versalabstaende 1" dx=2 dy=0 dh=5 dv=0
EndChar

StartChar: gdotaccent
Encoding: 289 289 53
Width: 508
VWidth: 999
Flags: HW
HStem: -238 42<178.622 331.027> -12 68<200.45 373.262> 135 37<205.129 289.171> 409 35<196.474 280.87> 424 43<370.607 460> 511 120<183.745 276.255>
VStem: 38 94<-154.282 -55.8943> 62 106<210.3 365.373> 71 84<55.4643 131.752> 170 120<524.745 617.255> 316 108<211.187 370.331> 406 91<-121.914 -39.1241>
LayerCount: 2
Fore
SplineSet
289.370117188 571 m 0
 296.596679688 605 330.547851562 633 364.547851562 633 c 0
 398.547851562 633 420.596679688 605 413.370117188 571 c 0
 406.142578125 537 372.19140625 509 338.19140625 509 c 0
 304.19140625 509 282.142578125 537 289.370117188 571 c 0
372.366210938 284 m 0
 389.158203125 363 366.935546875 409 319.935546875 409 c 0
 280.935546875 409 243.708984375 375 227.979492188 301 c 0
 217.138671875 250 220.559570312 172 282.559570312 172 c 0
 308.559570312 172 351.9609375 188 372.366210938 284 c 0
179.811523438 -15 m 0
 167.811523438 -15 156.811523438 -15 147.662109375 -11 c 1
 121.985351562 -33 114.821289062 -62 107.594726562 -96 c 0
 92.5029296875 -167 161.338867188 -196 189.338867188 -196 c 0
 264.338867188 -196 368.840820312 -156 384.783203125 -81 c 0
 398.811523438 -15 298.44921875 -12 253.44921875 -12 c 0
 244.44921875 -12 235.236328125 -13 222.024414062 -14 c 0
 206.811523438 -15 190.811523438 -15 179.811523438 -15 c 0
528.409179688 383 m 0
 503.409179688 383 498.810546875 399 497.573242188 412 c 1
 495.848632812 418 494.124023438 424 485.124023438 424 c 0
 475.124023438 424 462.423828125 416 452.297851562 406 c 1
 480.346679688 378 492.907226562 343 481.00390625 287 c 0
 460.172851562 189 363.6953125 135 269.6953125 135 c 0
 238.6953125 135 208.2578125 140 189.383789062 150 c 1
 181.833007812 138 175.869140625 117 172.467773438 101 c 0
 163.965820312 61 188.415039062 49 206.415039062 49 c 0
 215.415039062 49 263.903320312 56 301.903320312 56 c 0
 464.903320312 56 489.38671875 -17 481.309570312 -55 c 0
 457.927734375 -165 291.411132812 -238 152.411132812 -238 c 0
 70.4111328125 -238 -9.57421875 -205 9.34375 -116 c 0
 17.6328125 -77 55.7734375 -34 115.212890625 1 c 1
 90.826171875 18 75.927734375 42 82.7294921875 74 c 0
 89.318359375 105 118.439453125 138.5 154.390625 166.5 c 1
 122.810546875 192 109.651367188 243 120.06640625 292 c 0
 139.833984375 385 240.375 444 336.375 444 c 0
 381.375 444 410.461914062 435 426.336914062 425 c 1
 460.86328125 451 509.263671875 467 536.263671875 467 c 0
 574.263671875 467 584.950195312 442 580.911132812 423 c 0
 575.810546875 399 556.409179688 383 528.409179688 383 c 0
EndSplineSet
EndChar

StartChar: Gcommaaccent
Encoding: 290 290 54
Width: 727
VWidth: 999
Flags: HW
HStem: -231 17<330 351.215> -134 81<329.998 402.485> -10 44<306.541 502.262> 272 34<440 520.715 652.798 706> 437 21<571 624> 617 41<300.747 473.546>
VStem: 29 130<202 430.82> 405 32<-177.598 -107.5> 532 117<85.3282 262.125> 585 39<443.564 488.517>
LayerCount: 2
Fore
SplineSet
363.734375 -53 m 0
 402.734375 -53 417.870117188 -90 410.430664062 -125 c 0
 404.904296875 -151 371.75 -227 280.899414062 -231 c 1
 280.512695312 -214 l 1
 359.701171875 -199 375.029296875 -141 376.3046875 -135 c 0
 377.155273438 -131 376.79296875 -128 376.430664062 -125 c 1
 364.155273438 -131 353.517578125 -134 345.517578125 -134 c 0
 304.517578125 -134 300.831054688 -109 304.232421875 -93 c 0
 307.6328125 -77 327.734375 -53 363.734375 -53 c 0
697.67578125 229 m 2
 673.231445312 114 l 2
 670.04296875 99 672.555664062 92 679.067382812 85 c 1
 596.526367188 26 509.874023438 -10 383.874023438 -10 c 0
 170.874023438 -10 57.482421875 134 94.4677734375 308 c 0
 141.229492188 528 344.862304688 658 522.862304688 658 c 0
 657.862304688 658 681.509765625 614 732.509765625 614 c 1
 723.181640625 556 720.278320312 500 718.587890625 445 c 1
 677.887695312 437 l 1
 669.8671875 531 640.147460938 617 513.147460938 617 c 0
 392.147460938 617 264.853515625 498 228.505859375 327 c 0
 196.41015625 176 250.2265625 34 411.2265625 34 c 0
 454.2265625 34 507.77734375 46 547.729492188 74 c 1
 580.67578125 229 l 2
 587.264648438 260 557.815429688 272 517.815429688 272 c 2
 503.815429688 272 l 2
 499.815429688 272 496.453125 275 497.728515625 281 c 2
 502.6171875 304 l 1
 505.041992188 306 l 1
 505.041992188 306 601.6171875 304 640.6171875 304 c 0
 676.6171875 304 771.041992188 306 771.041992188 306 c 1
 772.6171875 304 l 1
 767.728515625 281 l 2
 766.453125 275 762.815429688 272 757.815429688 272 c 2
 751.815429688 272 l 2
 710.815429688 272 703.4140625 256 697.67578125 229 c 2
EndSplineSet
Position2: "'cpsp' Versalabstaende 1" dx=2 dy=0 dh=5 dv=0
EndChar

StartChar: gcommaaccent
Encoding: 291 291 55
Width: 508
VWidth: 999
Flags: HW
HStem: -238 42<178.622 331.027> -12 68<200.45 373.262> 135 37<205.129 289.171> 409 35<196.474 280.87> 424 43<370.607 460> 511 82<199.561 272.708> 673 17<251.498 273>
VStem: 38 94<-154.282 -55.8943> 62 106<210.3 365.373> 71 84<55.4643 131.752> 166 32<584 635.93> 316 108<211.187 370.331> 406 91<-121.914 -39.1241>
LayerCount: 2
Fore
SplineSet
336.616210938 511 m 0
 297.616210938 511 282.481445312 548 290.1328125 584 c 0
 295.659179688 610 328.813476562 686 419.6640625 690 c 1
 420.05078125 673 l 1
 339.862304688 658 325.108398438 598 324.258789062 594 c 0
 323.408203125 590 323.770507812 587 323.1328125 584 c 1
 336.408203125 590 347.045898438 593 355.045898438 593 c 0
 395.045898438 593 399.732421875 568 396.119140625 551 c 0
 392.717773438 535 371.616210938 511 336.616210938 511 c 0
372.366210938 284 m 0
 389.158203125 363 366.935546875 409 319.935546875 409 c 0
 280.935546875 409 243.708984375 375 227.979492188 301 c 0
 217.138671875 250 220.559570312 172 282.559570312 172 c 0
 308.559570312 172 351.9609375 188 372.366210938 284 c 0
179.811523438 -15 m 0
 167.811523438 -15 156.811523438 -15 147.662109375 -11 c 1
 121.985351562 -33 114.821289062 -62 107.594726562 -96 c 0
 92.5029296875 -167 161.338867188 -196 189.338867188 -196 c 0
 264.338867188 -196 368.840820312 -156 384.783203125 -81 c 0
 398.811523438 -15 298.44921875 -12 253.44921875 -12 c 0
 244.44921875 -12 235.236328125 -13 222.024414062 -14 c 0
 206.811523438 -15 190.811523438 -15 179.811523438 -15 c 0
528.409179688 383 m 0
 503.409179688 383 498.810546875 399 497.573242188 412 c 1
 495.848632812 418 494.124023438 424 485.124023438 424 c 0
 475.124023438 424 462.423828125 416 452.297851562 406 c 1
 480.346679688 378 492.907226562 343 481.00390625 287 c 0
 460.172851562 189 363.6953125 135 269.6953125 135 c 0
 238.6953125 135 208.2578125 140 189.383789062 150 c 1
 181.833007812 138 175.869140625 117 172.467773438 101 c 0
 163.965820312 61 188.415039062 49 206.415039062 49 c 0
 215.415039062 49 263.903320312 56 301.903320312 56 c 0
 464.903320312 56 489.38671875 -17 481.309570312 -55 c 0
 457.927734375 -165 291.411132812 -238 152.411132812 -238 c 0
 70.4111328125 -238 -9.57421875 -205 9.34375 -116 c 0
 17.6328125 -77 55.7734375 -34 115.212890625 1 c 1
 90.826171875 18 75.927734375 42 82.7294921875 74 c 0
 89.318359375 105 118.439453125 138.5 154.390625 166.5 c 1
 122.810546875 192 109.651367188 243 120.06640625 292 c 0
 139.833984375 385 240.375 444 336.375 444 c 0
 381.375 444 410.461914062 435 426.336914062 425 c 1
 460.86328125 451 509.263671875 467 536.263671875 467 c 0
 574.263671875 467 584.950195312 442 580.911132812 423 c 0
 575.810546875 399 556.409179688 383 528.409179688 383 c 0
EndSplineSet
EndChar

StartChar: Hcircumflex
Encoding: 292 292 56
Width: 723
VWidth: 999
Flags: HW
HStem: -2 34<24 92.7241 229.184 297 427 495.724 632.184 700> 321 46<222 502> 613 34<24 92.7241 229.184 297 427 495.724 632.184 700>
VStem: 99 123<37.5094 321 367 607.491> 502 123<37.5094 321 367 607.491>
LayerCount: 2
Fore
SplineSet
622.944335938 569 m 2
 629.74609375 601 617.296875 613 577.296875 613 c 2
 563.296875 613 l 2
 559.296875 613 555.934570312 616 556.998046875 621 c 2
 562.098632812 645 l 1
 564.524414062 647 l 1
 564.524414062 647 661.098632812 645 700.098632812 645 c 0
 736.098632812 645 837.524414062 647 837.524414062 647 c 1
 839.098632812 645 l 1
 833.998046875 621 l 2
 832.934570312 616 829.296875 613 824.296875 613 c 2
 810.296875 613 l 2
 769.296875 613 751.896484375 597 745.944335938 569 c 2
 641.154296875 76 l 2
 635.203125 48 645.801757812 32 686.801757812 32 c 2
 700.801757812 32 l 2
 705.801757812 32 708.1640625 29 706.888671875 23 c 2
 702 0 l 1
 699.575195312 -2 l 1
 699.575195312 -2 599 0 563 0 c 0
 524 0 426.575195312 -2 426.575195312 -2 c 1
 425 0 l 1
 429.888671875 23 l 2
 431.1640625 29 435.801757812 32 439.801757812 32 c 2
 453.801757812 32 l 2
 493.801757812 32 511.352539062 44 518.154296875 76 c 2
 570.23046875 321 l 1
 290.23046875 321 l 1
 238.154296875 76 l 2
 232.203125 48 242.801757812 32 283.801757812 32 c 2
 297.801757812 32 l 2
 302.801757812 32 305.1640625 29 303.888671875 23 c 2
 299 0 l 1
 296.575195312 -2 l 1
 296.575195312 -2 196 0 160 0 c 0
 121 0 23.5751953125 -2 23.5751953125 -2 c 1
 22 0 l 1
 26.888671875 23 l 2
 28.1640625 29 32.8017578125 32 36.8017578125 32 c 2
 50.8017578125 32 l 2
 90.8017578125 32 108.352539062 44 115.154296875 76 c 2
 219.944335938 569 l 2
 226.74609375 601 214.296875 613 174.296875 613 c 2
 160.296875 613 l 2
 156.296875 613 152.934570312 616 153.998046875 621 c 2
 159.098632812 645 l 1
 161.524414062 647 l 1
 161.524414062 647 258.098632812 645 297.098632812 645 c 0
 333.098632812 645 434.524414062 647 434.524414062 647 c 1
 436.098632812 645 l 1
 430.998046875 621 l 2
 429.934570312 616 426.296875 613 421.296875 613 c 2
 407.296875 613 l 2
 366.296875 613 348.896484375 597 342.944335938 569 c 2
 300.0078125 367 l 1
 580.0078125 367 l 1
 622.944335938 569 l 2
538.682617188 803 m 1
 561.03125 767 589.44140625 736 619.702148438 709 c 1
 599.239257812 688 l 1
 564.064453125 706 534.103515625 725 506.416992188 750 c 1
 463.678710938 723 427.852539062 705 386.239257812 688 c 1
 376.702148438 709 l 1
 419.654296875 737 457.456054688 769 495.682617188 803 c 1
 538.682617188 803 l 1
EndSplineSet
Position2: "'cpsp' Versalabstaende 1" dx=2 dy=0 dh=5 dv=0
EndChar

StartChar: hcircumflex
Encoding: 293 293 57
Width: 550
VWidth: 999
Flags: HW
HStem: -2 34<19 37 517 534> 390 55<268.267 393> 638 34<17.016 55> 678 20<169.465 186.5>
VStem: 85 110<43.2797 355.227 381 635.227> 358 110<43.1478 384.199>
LayerCount: 2
Fore
SplineSet
462.846679688 832 m 1
 485.1953125 796 513.60546875 765 543.8671875 738 c 1
 523.403320312 717 l 1
 488.229492188 735 458.267578125 754 430.58203125 779 c 1
 387.842773438 752 352.016601562 734 310.403320312 717 c 1
 300.8671875 738 l 1
 343.818359375 766 381.620117188 798 419.846679688 832 c 1
 462.846679688 832 l 1
484.3671875 77 m 2
 478.415039062 49 492.880859375 39.900390625 524.2265625 34 c 2
 534.801757812 32 l 2
 538.552734375 31.2998046875 542.1640625 29 540.888671875 23 c 2
 536 0 l 1
 533.575195312 -2 l 1
 533.575195312 -2 450 0 411 0 c 0
 376 0 296.575195312 -2 296.575195312 -2 c 1
 295 0 l 1
 299.888671875 23 l 2
 301.1640625 29 304.731445312 31.2001953125 309.801757812 32 c 2
 317.2265625 34 l 2
 349.897460938 42.7998046875 368.415039062 49 374.3671875 77 c 2
 420.704101562 295 l 2
 437.283203125 373 430.897460938 390 390.897460938 390 c 0
 372.897460938 390 320.49609375 374 267.481445312 341 c 1
 211.3671875 77 l 2
 205.415039062 49 221.260742188 43.099609375 251.2265625 34 c 2
 257.801757812 32 l 2
 261.552734375 31.2998046875 265.1640625 29 263.888671875 23 c 2
 259 0 l 1
 256.575195312 -2 l 1
 256.575195312 -2 177 0 138 0 c 0
 103 0 18.5751953125 -2 18.5751953125 -2 c 1
 17 0 l 1
 21.888671875 23 l 2
 23.1640625 29 26.7314453125 31.2001953125 31.8017578125 32 c 2
 44.2265625 34 l 2
 76.953125 39.2998046875 95.4150390625 49 101.3671875 77 c 2
 204.668945312 563 l 2
 218.485351562 628 210.185546875 636 190.185546875 636 c 1
 158.611328125 638 l 2
 155.453125 638.200195312 153.3359375 640 153.673828125 643 c 2
 156.837890625 672 l 1
 197.975585938 675 303.138671875 688 330.364257812 698 c 1
 339.364257812 698 345.7265625 695 344.239257812 688 c 2
 344.239257812 688 332.736328125 648 318.920898438 583 c 2
 275.984375 381 l 1
 339.69921875 422 407.587890625 445 444.587890625 445 c 0
 530.587890625 445 550.684570312 389 528.366210938 284 c 2
 484.3671875 77 l 2
EndSplineSet
EndChar

StartChar: Hbar
Encoding: 294 294 58
Width: 723
VWidth: 999
Flags: HW
HStem: -2 34<24 92.7241 229.184 297 427 495.724 632.184 700> 321 46<222 502> 510 39<41 656> 613 34<24 92.7241 229.184 297 427 495.724 632.184 700>
VStem: 99 123<37.5094 321 367 607.491> 502 123<37.5094 321 367 607.491>
LayerCount: 2
Fore
SplineSet
622.944335938 569 m 2
 629.74609375 601 617.296875 613 577.296875 613 c 2
 563.296875 613 l 2
 559.296875 613 555.934570312 616 556.998046875 621 c 2
 562.098632812 645 l 1
 564.524414062 647 l 1
 564.524414062 647 661.098632812 645 700.098632812 645 c 0
 736.098632812 645 837.524414062 647 837.524414062 647 c 1
 839.098632812 645 l 1
 833.998046875 621 l 2
 832.934570312 616 829.296875 613 824.296875 613 c 2
 810.296875 613 l 2
 769.296875 613 751.896484375 597 745.944335938 569 c 2
 741.693359375 549 l 1
 772.693359375 549 l 1
 764.404296875 510 l 1
 733.404296875 510 l 1
 641.154296875 76 l 2
 635.203125 48 645.801757812 32 686.801757812 32 c 2
 700.801757812 32 l 2
 705.801757812 32 708.1640625 29 706.888671875 23 c 2
 702 0 l 1
 699.575195312 -2 l 1
 699.575195312 -2 599 0 563 0 c 0
 524 0 426.575195312 -2 426.575195312 -2 c 1
 425 0 l 1
 429.888671875 23 l 2
 431.1640625 29 435.801757812 32 439.801757812 32 c 2
 453.801757812 32 l 2
 493.801757812 32 511.352539062 44 518.154296875 76 c 2
 570.23046875 321 l 1
 290.23046875 321 l 1
 238.154296875 76 l 2
 232.203125 48 242.801757812 32 283.801757812 32 c 2
 297.801757812 32 l 2
 302.801757812 32 305.1640625 29 303.888671875 23 c 2
 299 0 l 1
 296.575195312 -2 l 1
 296.575195312 -2 196 0 160 0 c 0
 121 0 23.5751953125 -2 23.5751953125 -2 c 1
 22 0 l 1
 26.888671875 23 l 2
 28.1640625 29 32.8017578125 32 36.8017578125 32 c 2
 50.8017578125 32 l 2
 90.8017578125 32 108.352539062 44 115.154296875 76 c 2
 207.404296875 510 l 1
 149.404296875 510 l 1
 157.693359375 549 l 1
 215.693359375 549 l 1
 219.944335938 569 l 2
 226.74609375 601 214.296875 613 174.296875 613 c 2
 160.296875 613 l 2
 156.296875 613 152.934570312 616 153.998046875 621 c 2
 159.098632812 645 l 1
 161.524414062 647 l 1
 161.524414062 647 258.098632812 645 297.098632812 645 c 0
 333.098632812 645 434.524414062 647 434.524414062 647 c 1
 436.098632812 645 l 1
 430.998046875 621 l 2
 429.934570312 616 426.296875 613 421.296875 613 c 2
 407.296875 613 l 2
 366.296875 613 348.896484375 597 342.944335938 569 c 2
 338.693359375 549 l 1
 618.693359375 549 l 1
 622.944335938 569 l 2
610.404296875 510 m 1
 330.404296875 510 l 1
 300.0078125 367 l 1
 580.0078125 367 l 1
 610.404296875 510 l 1
EndSplineSet
Position2: "'cpsp' Versalabstaende 1" dx=2 dy=0 dh=5 dv=0
EndChar

StartChar: hbar
Encoding: 295 295 59
Width: 550
VWidth: 999
Flags: HW
HStem: -2 34<19 37 517 534> 390 55<268.267 393> 530 39<26 341> 638 34<17.016 55> 678 20<169.465 186.5>
VStem: 85 110<43.2797 355.227 381 635.227> 358 110<43.1478 384.199>
LayerCount: 2
Fore
SplineSet
484.3671875 77 m 2
 478.415039062 49 492.880859375 39.900390625 524.2265625 34 c 2
 534.801757812 32 l 2
 538.552734375 31.2998046875 542.1640625 29 540.888671875 23 c 2
 536 0 l 1
 533.575195312 -2 l 1
 533.575195312 -2 450 0 411 0 c 0
 376 0 296.575195312 -2 296.575195312 -2 c 1
 295 0 l 1
 299.888671875 23 l 2
 301.1640625 29 304.731445312 31.2001953125 309.801757812 32 c 2
 317.2265625 34 l 2
 349.897460938 42.7998046875 368.415039062 49 374.3671875 77 c 2
 420.704101562 295 l 2
 437.283203125 373 430.897460938 390 390.897460938 390 c 0
 372.897460938 390 320.49609375 374 267.481445312 341 c 1
 211.3671875 77 l 2
 205.415039062 49 221.260742188 43.099609375 251.2265625 34 c 2
 257.801757812 32 l 2
 261.552734375 31.2998046875 265.1640625 29 263.888671875 23 c 2
 259 0 l 1
 256.575195312 -2 l 1
 256.575195312 -2 177 0 138 0 c 0
 103 0 18.5751953125 -2 18.5751953125 -2 c 1
 17 0 l 1
 21.888671875 23 l 2
 23.1640625 29 26.7314453125 31.2001953125 31.8017578125 32 c 2
 44.2265625 34 l 2
 76.953125 39.2998046875 95.4150390625 49 101.3671875 77 c 2
 197.655273438 530 l 1
 138.655273438 530 l 1
 146.944335938 569 l 1
 205.944335938 569 l 1
 217.9921875 628.5 209.5859375 636 190.185546875 636 c 1
 158.611328125 638 l 2
 155.453125 638.200195312 153.3359375 640 153.673828125 643 c 2
 156.837890625 672 l 1
 197.975585938 675 303.138671875 688 330.364257812 698 c 1
 339.364257812 698 345.7265625 695 344.239257812 688 c 2
 344.239257812 688 332.736328125 648 318.920898438 583 c 2
 315.944335938 569 l 1
 461.944335938 569 l 1
 453.655273438 530 l 1
 307.655273438 530 l 1
 275.984375 381 l 1
 339.69921875 422 407.587890625 445 444.587890625 445 c 0
 530.587890625 445 550.684570312 389 528.366210938 284 c 2
 484.3671875 77 l 2
EndSplineSet
EndChar

StartChar: Itilde
Encoding: 296 296 60
Width: 319
VWidth: 999
Flags: HW
HStem: -2 34<24 92.7241 228.184 296> 613 34<24 92.7241 228.184 296> 687 58<176 259.543> 741 59<57.7435 144.285>
VStem: 22 25<695.76 721.045> 99 122<37.5094 607.491> 273 26<767.869 793.692>
LayerCount: 2
Fore
SplineSet
386.354492188 745 m 0
 408.354492188 745 423.267578125 754 447.682617188 803 c 1
 473.557617188 793 l 1
 446.103515625 725 407.6015625 685 359.6015625 685 c 0
 336.6015625 685 317.790039062 700 300.977539062 715 c 1
 283.741210938 728 266.504882812 741 248.504882812 741 c 0
 221.504882812 741 207.31640625 726 188.239257812 688 c 1
 163.939453125 696 l 1
 192.393554688 764 224.470703125 802 269.470703125 802 c 0
 300.470703125 802 320.069335938 786 336.668945312 770 c 0
 351.692382812 756 366.354492188 745 386.354492188 745 c 0
237.154296875 76 m 2
 231.203125 48 241.801757812 32 282.801757812 32 c 2
 296.801757812 32 l 2
 301.801757812 32 304.1640625 29 302.888671875 23 c 2
 298 0 l 1
 295.575195312 -2 l 1
 295.575195312 -2 196 0 160 0 c 0
 121 0 23.5751953125 -2 23.5751953125 -2 c 1
 22 0 l 1
 26.888671875 23 l 2
 28.1640625 29 32.8017578125 32 36.8017578125 32 c 2
 50.8017578125 32 l 2
 90.8017578125 32 108.352539062 44 115.154296875 76 c 2
 219.944335938 569 l 2
 226.74609375 601 214.296875 613 174.296875 613 c 2
 160.296875 613 l 2
 156.296875 613 152.934570312 616 153.998046875 621 c 2
 159.098632812 645 l 1
 161.524414062 647 l 1
 161.524414062 647 258.098632812 645 297.098632812 645 c 0
 333.098632812 645 433.524414062 647 433.524414062 647 c 1
 435.098632812 645 l 1
 429.998046875 621 l 2
 428.934570312 616 425.296875 613 420.296875 613 c 2
 406.296875 613 l 2
 365.296875 613 347.896484375 597 341.944335938 569 c 2
 237.154296875 76 l 2
EndSplineSet
Position2: "'cpsp' Versalabstaende 1" dx=2 dy=0 dh=5 dv=0
EndChar

StartChar: itilde
Encoding: 297 297 61
Width: 286
VWidth: 999
Flags: HW
HStem: -2 34<37 54 258 274> 383 34<38 79> 427 20<191.25 208.219> 516 58<150.8 225.989> 570 59<44.3691 122.257>
VStem: 12.2 22.5<524.76 550.045> 101 110<41.5278 379> 238.1 23.4<596.869 622.692>
LayerCount: 2
Fore
SplineSet
319.607421875 574 m 0
 339.407226562 574 353.020507812 583 376.036132812 632 c 1
 399.110351562 622 l 1
 372.956054688 554 337.454101562 514 294.25390625 514 c 0
 273.553710938 514 256.942382812 529 242.130859375 544 c 1
 226.893554688 557 211.657226562 570 195.45703125 570 c 0
 171.157226562 570 158.069335938 555 140.091796875 517 c 1
 118.392578125 525 l 1
 145.446289062 593 175.123046875 631 215.623046875 631 c 0
 243.5234375 631 260.822265625 615 275.420898438 599 c 0
 288.645507812 585 301.607421875 574 319.607421875 574 c 0
279.293945312 321.299804688 m 2
 227.3671875 77 l 2
 221.415039062 49 236.880859375 39.900390625 265.2265625 34 c 2
 274.801757812 32 l 2
 278.510742188 31.099609375 282.1640625 29 280.888671875 23 c 2
 276 0 l 1
 273.575195312 -2 l 1
 273.575195312 -2 193 0 154 0 c 0
 118 0 36.5751953125 -2 36.5751953125 -2 c 1
 35 0 l 1
 39.888671875 23 l 2
 41.1640625 29 44.7529296875 31.2998046875 48.8017578125 32 c 2
 61.2265625 34 l 2
 93.33203125 39.2001953125 111.415039062 49 117.3671875 77 c 2
 169.23046875 321 l 2
 179.858398438 371 173.661132812 377.599609375 159.55859375 379 c 2
 119.409179688 383 l 1
 124.635742188 417 l 1
 196.155273438 426.5 268.387695312 437 302.012695312 447 c 0
 304.413085938 447 308.884765625 446.400390625 308.375 444 c 2
 308.375 444 289.921875 371.299804688 279.293945312 321.299804688 c 2
EndSplineSet
EndChar

StartChar: Imacron
Encoding: 298 298 62
Width: 319
VWidth: 999
Flags: HW
HStem: -2 34<24 92.7241 228.184 296> 613 34<24 92.7241 228.184 296> 731 48<10.8231 309.922>
VStem: 9 303<731.402 778.772> 99 122<37.5094 607.491>
LayerCount: 2
Fore
SplineSet
447.166015625 730 m 2
 173.166015625 730 l 2
 162.166015625 730 160.079101562 739 161.9921875 748 c 0
 164.54296875 760 180.793945312 780 193.793945312 780 c 2
 469.793945312 780 l 2
 479.793945312 780 481.880859375 771 480.180664062 763 c 0
 477.416992188 750 461.166015625 730 447.166015625 730 c 2
237.154296875 76 m 2
 231.203125 48 241.801757812 32 282.801757812 32 c 2
 296.801757812 32 l 2
 301.801757812 32 304.1640625 29 302.888671875 23 c 2
 298 0 l 1
 295.575195312 -2 l 1
 295.575195312 -2 196 0 160 0 c 0
 121 0 23.5751953125 -2 23.5751953125 -2 c 1
 22 0 l 1
 26.888671875 23 l 2
 28.1640625 29 32.8017578125 32 36.8017578125 32 c 2
 50.8017578125 32 l 2
 90.8017578125 32 108.352539062 44 115.154296875 76 c 2
 219.944335938 569 l 2
 226.74609375 601 214.296875 613 174.296875 613 c 2
 160.296875 613 l 2
 156.296875 613 152.934570312 616 153.998046875 621 c 2
 159.098632812 645 l 1
 161.524414062 647 l 1
 161.524414062 647 258.098632812 645 297.098632812 645 c 0
 333.098632812 645 433.524414062 647 433.524414062 647 c 1
 435.098632812 645 l 1
 429.998046875 621 l 2
 428.934570312 616 425.296875 613 420.296875 613 c 2
 406.296875 613 l 2
 365.296875 613 347.896484375 597 341.944335938 569 c 2
 237.154296875 76 l 2
EndSplineSet
Position2: "'cpsp' Versalabstaende 1" dx=2 dy=0 dh=5 dv=0
EndChar

StartChar: imacron
Encoding: 299 299 63
Width: 286
VWidth: 999
Flags: HW
HStem: -2 34<37 54 258 274> 383 34<38 79> 427 20<191.25 208.219> 536 48<0.140752 269.33>
VStem: -1.5 272.7<536.402 583.772> 101 110<41.5278 379>
LayerCount: 2
Fore
SplineSet
366.91796875 535 m 2
 120.317382812 535 l 2
 110.41796875 535 108.73046875 544 110.643554688 553 c 0
 113.194335938 565 128.245117188 585 139.9453125 585 c 2
 388.345703125 585 l 2
 397.345703125 585 399.032226562 576 397.33203125 568 c 0
 394.569335938 555 379.517578125 535 366.91796875 535 c 2
279.293945312 321.299804688 m 2
 227.3671875 77 l 2
 221.415039062 49 236.880859375 39.900390625 265.2265625 34 c 2
 274.801757812 32 l 2
 278.510742188 31.099609375 282.1640625 29 280.888671875 23 c 2
 276 0 l 1
 273.575195312 -2 l 1
 273.575195312 -2 193 0 154 0 c 0
 118 0 36.5751953125 -2 36.5751953125 -2 c 1
 35 0 l 1
 39.888671875 23 l 2
 41.1640625 29 44.7529296875 31.2998046875 48.8017578125 32 c 2
 61.2265625 34 l 2
 93.33203125 39.2001953125 111.415039062 49 117.3671875 77 c 2
 169.23046875 321 l 2
 179.858398438 371 173.661132812 377.599609375 159.55859375 379 c 2
 119.409179688 383 l 1
 124.635742188 417 l 1
 196.155273438 426.5 268.387695312 437 302.012695312 447 c 0
 304.413085938 447 308.884765625 446.400390625 308.375 444 c 2
 308.375 444 289.921875 371.299804688 279.293945312 321.299804688 c 2
EndSplineSet
EndChar

StartChar: Ibreve
Encoding: 300 300 64
Width: 319
VWidth: 999
Flags: HW
HStem: -2 34<24 92.7241 228.184 296> 613 34<24 92.7241 228.184 296> 692 52<69.7383 227.296> 785 20<13 45 253.5 284>
VStem: 13 28<780.047 805> 99 122<37.5094 607.491> 257 27<779.76 805>
LayerCount: 2
Fore
SplineSet
455.108398438 805 m 1
 434.016601562 734 362.088867188 692 296.088867188 692 c 0
 223.088867188 692 174.229492188 735 184.108398438 805 c 1
 212.108398438 805 l 1
 211.818359375 766 254.141601562 744 307.141601562 744 c 0
 356.141601562 744 412.818359375 766 428.108398438 805 c 1
 455.108398438 805 l 1
237.154296875 76 m 2
 231.203125 48 241.801757812 32 282.801757812 32 c 2
 296.801757812 32 l 2
 301.801757812 32 304.1640625 29 302.888671875 23 c 2
 298 0 l 1
 295.575195312 -2 l 1
 295.575195312 -2 196 0 160 0 c 0
 121 0 23.5751953125 -2 23.5751953125 -2 c 1
 22 0 l 1
 26.888671875 23 l 2
 28.1640625 29 32.8017578125 32 36.8017578125 32 c 2
 50.8017578125 32 l 2
 90.8017578125 32 108.352539062 44 115.154296875 76 c 2
 219.944335938 569 l 2
 226.74609375 601 214.296875 613 174.296875 613 c 2
 160.296875 613 l 2
 156.296875 613 152.934570312 616 153.998046875 621 c 2
 159.098632812 645 l 1
 161.524414062 647 l 1
 161.524414062 647 258.098632812 645 297.098632812 645 c 0
 333.098632812 645 433.524414062 647 433.524414062 647 c 1
 435.098632812 645 l 1
 429.998046875 621 l 2
 428.934570312 616 425.296875 613 420.296875 613 c 2
 406.296875 613 l 2
 365.296875 613 347.896484375 597 341.944335938 569 c 2
 237.154296875 76 l 2
EndSplineSet
Position2: "'cpsp' Versalabstaende 1" dx=2 dy=0 dh=5 dv=0
EndChar

StartChar: ibreve
Encoding: 301 301 65
Width: 286
VWidth: 999
Flags: HW
HStem: -2 34<37 54 258 274> 383 34<38 79> 427 20<191.25 208.219> 500 62<75.7674 197.283>
VStem: 14.7 28.8<606.278 641.062> 101 110<41.5278 379> 229.8 27.9<607.121 641.161>
LayerCount: 2
Fore
SplineSet
179.125 655 m 1
 169.446289062 601 199.64453125 561 256.34375 561 c 0
 298.64453125 561 356.321289062 591 372.625 655 c 1
 398.236328125 640 l 1
 366.91796875 535 288.640625 497 242.740234375 497 c 0
 169.840820312 497 135.319335938 559 146.236328125 640 c 1
 179.125 655 l 1
279.293945312 321.299804688 m 2
 227.3671875 77 l 2
 221.415039062 49 236.880859375 39.900390625 265.2265625 34 c 2
 274.801757812 32 l 2
 278.510742188 31.099609375 282.1640625 29 280.888671875 23 c 2
 276 0 l 1
 273.575195312 -2 l 1
 273.575195312 -2 193 0 154 0 c 0
 118 0 36.5751953125 -2 36.5751953125 -2 c 1
 35 0 l 1
 39.888671875 23 l 2
 41.1640625 29 44.7529296875 31.2998046875 48.8017578125 32 c 2
 61.2265625 34 l 2
 93.33203125 39.2001953125 111.415039062 49 117.3671875 77 c 2
 169.23046875 321 l 2
 179.858398438 371 173.661132812 377.599609375 159.55859375 379 c 2
 119.409179688 383 l 1
 124.635742188 417 l 1
 196.155273438 426.5 268.387695312 437 302.012695312 447 c 0
 304.413085938 447 308.884765625 446.400390625 308.375 444 c 2
 308.375 444 289.921875 371.299804688 279.293945312 321.299804688 c 2
EndSplineSet
EndChar

StartChar: Iogonek
Encoding: 302 302 66
Width: 319
VWidth: 999
Flags: HW
HStem: -225 39<153.181 237.134> -2 34<24 92.7241 228.184 296> -1 25<222.256 258.88> 613 34<24 92.7241 228.184 296>
VStem: 79 60<-174.091 -75.5789> 99 122<37.5094 607.491>
LayerCount: 2
Fore
SplineSet
124.174804688 -225 m 0
 71.1748046875 -225 37.763671875 -194 49.2421875 -140 c 0
 59.423828125 -92.099609375 112.622070312 -33.2998046875 180.778320312 -0.099609375 c 1
 172.700195312 0 165.599609375 0 160 0 c 0
 121 0 23.5751953125 -2 23.5751953125 -2 c 1
 22 0 l 1
 26.888671875 23 l 2
 28.1640625 29 32.8017578125 32 36.8017578125 32 c 2
 50.8017578125 32 l 2
 90.8017578125 32 108.352539062 44 115.154296875 76 c 2
 219.944335938 569 l 2
 226.74609375 601 214.296875 613 174.296875 613 c 2
 160.296875 613 l 2
 156.296875 613 152.934570312 616 153.998046875 621 c 2
 159.098632812 645 l 1
 161.524414062 647 l 1
 161.524414062 647 258.098632812 645 297.098632812 645 c 0
 333.098632812 645 433.524414062 647 433.524414062 647 c 1
 435.098632812 645 l 1
 429.998046875 621 l 2
 428.934570312 616 425.296875 613 420.296875 613 c 2
 406.296875 613 l 2
 365.296875 613 347.896484375 597 341.944335938 569 c 2
 237.154296875 76 l 2
 231.203125 48 241.801757812 32 282.801757812 32 c 2
 296.801757812 32 l 2
 301.801757812 32 304.1640625 29 302.888671875 23 c 2
 298 0 l 1
 295.575195312 -2 l 1
 295.575195312 -2 282.338867188 -1.7001953125 263.702148438 -1.400390625 c 1
 187.948242188 -7.2998046875 122.377929688 -78.2001953125 112.004882812 -127 c 0
 105.203125 -159 121.46484375 -186 157.46484375 -186 c 0
 187.46484375 -186 211.65234375 -171 235.116210938 -150 c 1
 248.416015625 -158 l 1
 214.42578125 -205 160.174804688 -225 124.174804688 -225 c 0
EndSplineSet
Position2: "'cpsp' Versalabstaende 1" dx=2 dy=0 dh=5 dv=0
EndChar

StartChar: iogonek
Encoding: 303 303 67
Width: 286
VWidth: 999
Flags: HW
HStem: -225 39<121.213 203.704> -2 34<37 54 258 274> -1 25<188.395 224.88> 387 30<38 79> 427 20<191.25 208.219> 511 120<108.745 201.255>
VStem: 46 60<-174.091 -75.5789> 101 110<41.5278 383 522.108 619.892>
LayerCount: 2
Fore
SplineSet
91.1748046875 -225 m 0
 37.1748046875 -225 4.763671875 -194 16.2421875 -140 c 0
 26.4443359375 -92 79.2431640625 -33.2001953125 147.200195312 0 c 1
 108.657226562 -0.2001953125 36.5751953125 -2 36.5751953125 -2 c 2
 35 0 l 1
 39.888671875 23 l 2
 41.1640625 29 44.7529296875 31.2998046875 48.8017578125 32 c 2
 61.2265625 34 l 2
 93.33203125 39.2001953125 111.415039062 49 117.3671875 77 c 2
 169.23046875 321 l 2
 179.858398438 371 174.196289062 382 160.409179688 383 c 2
 120.259765625 387 l 1
 124.635742188 417 l 1
 196.155273438 426.5 268.387695312 437 302.012695312 447 c 0
 304.413085938 447 308.884765625 446.400390625 308.375 444 c 2
 308.375 444 289.921875 371.299804688 279.293945312 321.299804688 c 2
 227.3671875 77 l 2
 221.415039062 49 236.880859375 39.900390625 265.2265625 34 c 2
 274.801757812 32 l 2
 278.510742188 31.099609375 282.1640625 29 280.888671875 23 c 2
 276 0 l 1
 273.575195312 -2 l 1
 273.575195312 -2 256.459960938 -1.599609375 234.266601562 -1.099609375 c 1
 156.564453125 -4.400390625 89.5908203125 -77.2001953125 79.0048828125 -127 c 0
 72.203125 -159 88.46484375 -186 124.46484375 -186 c 0
 154.46484375 -186 177.65234375 -171 201.116210938 -150 c 1
 215.416015625 -158 l 1
 181.42578125 -205 126.174804688 -225 91.1748046875 -225 c 0
216.370117188 571 m 0
 223.383789062 604 256.123046875 631 289.123046875 631 c 0
 322.123046875 631 343.383789062 604 336.370117188 571 c 0
 329.35546875 538 296.616210938 511 263.616210938 511 c 0
 230.616210938 511 209.35546875 538 216.370117188 571 c 0
EndSplineSet
EndChar

StartChar: Idotaccent
Encoding: 304 304 68
Width: 319
VWidth: 999
Flags: HW
HStem: -2 34<24 92.7241 228.184 296> 613 34<24 92.7241 228.184 296> 691 120<111.745 204.255>
VStem: 98 120<704.745 797.255> 99 122<37.5094 607.491>
LayerCount: 2
Fore
SplineSet
255.629882812 751 m 0
 262.856445312 785 296.80859375 813 330.80859375 813 c 0
 364.80859375 813 386.856445312 785 379.629882812 751 c 0
 372.403320312 717 338.451171875 689 304.451171875 689 c 0
 270.451171875 689 248.403320312 717 255.629882812 751 c 0
237.154296875 76 m 2
 231.203125 48 241.801757812 32 282.801757812 32 c 2
 296.801757812 32 l 2
 301.801757812 32 304.1640625 29 302.888671875 23 c 2
 298 0 l 1
 295.575195312 -2 l 1
 295.575195312 -2 196 0 160 0 c 0
 121 0 23.5751953125 -2 23.5751953125 -2 c 1
 22 0 l 1
 26.888671875 23 l 2
 28.1640625 29 32.8017578125 32 36.8017578125 32 c 2
 50.8017578125 32 l 2
 90.8017578125 32 108.352539062 44 115.154296875 76 c 2
 219.944335938 569 l 2
 226.74609375 601 214.296875 613 174.296875 613 c 2
 160.296875 613 l 2
 156.296875 613 152.934570312 616 153.998046875 621 c 2
 159.098632812 645 l 1
 161.524414062 647 l 1
 161.524414062 647 258.098632812 645 297.098632812 645 c 0
 333.098632812 645 433.524414062 647 433.524414062 647 c 1
 435.098632812 645 l 1
 429.998046875 621 l 2
 428.934570312 616 425.296875 613 420.296875 613 c 2
 406.296875 613 l 2
 365.296875 613 347.896484375 597 341.944335938 569 c 2
 237.154296875 76 l 2
EndSplineSet
Substitution2: "LinLibertine-'c2sc' Versale nach Kapitaelchen 1" idotaccent.sc
Position2: "'cpsp' Versalabstaende 1" dx=2 dy=0 dh=5 dv=0
EndChar

StartChar: afii10057
Encoding: 1032 1032 69
Width: 421
VWidth: 999
Flags: HW
HStem: -12 45<128.368 189.227> 618 27<104 186.714 340.114 407>
VStem: 27 97<34.3298 111.783> 208 122<79.5665 604.618>
LayerCount: 2
Fore
SplineSet
159.014648438 33 m 0
 208.014648438 33 226.705078125 88 246.47265625 181 c 2
 326.819335938 559 l 2
 333.196289062 589 317.360351562 618 277.360351562 618 c 2
 241.360351562 618 l 2
 236.360351562 618 233.998046875 621 235.060546875 626 c 2
 239.098632812 645 l 1
 241.311523438 646 l 1
 241.311523438 646 386.098632812 645 425.098632812 645 c 0
 460.098632812 645 544.311523438 646 544.311523438 646 c 1
 546.098632812 645 l 1
 542.060546875 626 l 2
 540.998046875 621 537.360351562 618 532.360351562 618 c 2
 515.360351562 618 l 2
 474.360351562 618 457.958984375 602 452.0078125 574 c 2
 373.149414062 203 l 2
 335.1015625 24 233.44921875 -12 170.44921875 -12 c 0
 105.44921875 -12 31.888671875 23 41.2412109375 67 c 0
 46.3427734375 91 64.7197265625 121 97.7197265625 121 c 0
 129.719726562 121 141.830078125 98 139.729492188 74 c 0
 138.116210938 57 137.014648438 33 159.014648438 33 c 0
EndSplineSet
EndChar

StartChar: afii10061
Encoding: 1036 1036 70
Width: 602
VWidth: 999
Flags: HW
HStem: -2 34<24 92.7241 228.184 296> 0 33<542.263 589> 320 48<205 297.793> 585 66<442.159 511.033> 613 34<24 92.7241 228.184 296>
VStem: 99 122<37.5094 607.491>
LayerCount: 2
Fore
SplineSet
601.295898438 820 m 1
 652.243164062 768 l 1
 495.915039062 710 l 2
 473.001953125 701 459.364257812 698 450.364257812 698 c 0
 441.364257812 698 437.427734375 703 439.552734375 713 c 0
 441.041015625 720 444.103515625 725 459.016601562 734 c 2
 601.295898438 820 l 1
237.154296875 76 m 2
 231.203125 48 241.801757812 32 282.801757812 32 c 2
 296.801757812 32 l 2
 301.801757812 32 304.1640625 29 302.888671875 23 c 2
 298 0 l 1
 295.575195312 -2 l 1
 295.575195312 -2 196 0 160 0 c 0
 121 0 23.5751953125 -2 23.5751953125 -2 c 1
 22 0 l 1
 26.888671875 23 l 2
 28.1640625 29 32.8017578125 32 36.8017578125 32 c 2
 50.8017578125 32 l 2
 90.8017578125 32 108.352539062 44 115.154296875 76 c 2
 219.944335938 569 l 2
 226.74609375 601 214.296875 613 174.296875 613 c 2
 160.296875 613 l 2
 156.296875 613 152.934570312 616 153.998046875 621 c 2
 159.098632812 645 l 1
 161.524414062 647 l 1
 161.524414062 647 258.098632812 645 297.098632812 645 c 0
 333.098632812 645 433.524414062 647 433.524414062 647 c 1
 435.098632812 645 l 1
 429.998046875 621 l 2
 428.934570312 616 425.296875 613 420.296875 613 c 2
 406.296875 613 l 2
 365.296875 613 347.896484375 597 341.944335938 569 c 2
 299.2421875 368.099609375 l 1
 329.748046875 368.599609375 365.600585938 371.200195312 388.409179688 383 c 0
 448.423828125 416 473.727539062 488 492.630859375 544 c 0
 512.958984375 602 581.374023438 651 644.374023438 651 c 0
 692.374023438 651 717.635742188 624 712.74609375 601 c 0
 704.881835938 564 677.755859375 554 658.755859375 554 c 0
 646.755859375 554 633.819335938 559 627.51953125 567 c 1
 620.857421875 578 610.345703125 585 599.345703125 585 c 0
 578.345703125 585 555.45703125 562 544.29296875 533 c 0
 520.901367188 470 483.220703125 368 405.907226562 343 c 1
 468.907226562 343 476.916992188 296 488.163085938 236 c 0
 511.893554688 103 548.014648438 33 581.014648438 33 c 2
 590.014648438 33 l 2
 594.014648438 33 596.376953125 30 595.1015625 24 c 2
 590.212890625 1 l 1
 588.787109375 -1 l 1
 503 0 l 2
 431.212890625 1 416.87890625 70 402.259765625 180 c 0
 388.71484375 276.700195312 380.846679688 315.900390625 288.954101562 319.700195312 c 1
 237.154296875 76 l 2
EndSplineSet
LCarets2: 1 0 
EndChar

StartChar: uni040D
Encoding: 1037 1037 71
Width: 783
VWidth: 999
Flags: HW
HStem: -1 34<20 99.155 235.539 315 468 548.095 683.276 765> 613 32<20 99.4609 236.442 315 468 547.537 685.451 764>
VStem: 106 123<38.5094 78 146 607.764> 555 122<38.2361 493 561 607.252>
DStem2: 229 146 229 78 0.617738 0.786384<0 474.258>
LayerCount: 2
Fore
SplineSet
471.87109375 818 m 1
 575.016601562 734 l 2
 584.31640625 726 587.041015625 720 585.552734375 713 c 0
 583.427734375 703 577.364257812 698 567.364257812 698 c 0
 559.364257812 698 547.001953125 701 526.915039062 710 c 2
 386.306640625 773 l 1
 471.87109375 818 l 1
797.944335938 569 m 2
 693.154296875 76 l 2
 686.565429688 45 699.014648438 33 739.014648438 33 c 2
 765.014648438 33 l 2
 770.014648438 33 773.376953125 30 772.1015625 24 c 2
 767.212890625 1 l 1
 764.787109375 -1 l 1
 764.787109375 -1 660.212890625 1 621.212890625 1 c 0
 585.212890625 1 467.787109375 -1 467.787109375 -1 c 1
 466.212890625 1 l 1
 471.1015625 24 l 2
 472.376953125 30 476.014648438 33 481.014648438 33 c 2
 507.014648438 33 l 2
 549.014648438 33 565.203125 48 571.154296875 76 c 2
 659.790039062 493 l 1
 245.579101562 78 l 1
 245.3671875 77 l 2
 238.77734375 46 250.014648438 33 290.014648438 33 c 2
 317.014648438 33 l 2
 320.014648438 33 323.376953125 30 322.1015625 24 c 2
 317.212890625 1 l 1
 314.787109375 -1 l 1
 314.787109375 -1 208.212890625 1 169.212890625 1 c 0
 134.212890625 1 19.787109375 -1 19.787109375 -1 c 1
 18.212890625 1 l 1
 23.1015625 24 l 2
 24.376953125 30 28.0146484375 33 32.0146484375 33 c 2
 59.0146484375 33 l 2
 100.014648438 33 116.415039062 49 122.3671875 77 c 2
 227.157226562 570 l 2
 233.74609375 601 222.296875 613 182.296875 613 c 2
 155.296875 613 l 2
 151.296875 613 148.934570312 616 149.998046875 621 c 2
 155.098632812 645 l 1
 157.311523438 646 l 1
 157.311523438 646 263.88671875 644 303.88671875 644 c 0
 338.88671875 644 452.311523438 646 452.311523438 646 c 1
 454.098632812 645 l 1
 448.998046875 621 l 2
 447.934570312 616 444.296875 613 440.296875 613 c 2
 413.296875 613 l 2
 372.296875 613 356.108398438 598 350.157226562 570 c 2
 260.033203125 146 l 1
 674.244140625 561 l 1
 675.944335938 569 l 2
 682.534179688 600 670.296875 613 630.296875 613 c 2
 604.296875 613 l 2
 600.296875 613 596.934570312 616 597.998046875 621 c 2
 603.098632812 645 l 1
 605.311523438 646 l 1
 605.311523438 646 714.88671875 644 753.88671875 644 c 0
 789.88671875 644 901.524414062 647 901.524414062 647 c 1
 903.098632812 645 l 1
 898.209960938 622 l 2
 896.934570312 616 893.296875 613 888.296875 613 c 2
 862.296875 613 l 2
 821.296875 613 803.896484375 597 797.944335938 569 c 2
EndSplineSet
LCarets2: 1 0 
EndChar

StartChar: afii10062
Encoding: 1038 1038 72
Width: 621
VWidth: 999
Flags: HW
HStem: -22 64<180.643 263.693> 613 32<1 59.1675 206.362 277 412 484.667 556.138 620> 697 31<283.536 374.309>
VStem: 204 70<735.681 802.162> 383 70<734.774 802.125>
DStem2: 212 575 88 559 0.419188 -0.907899<-30.5778 352.637> 293 115 383 161 0.361446 0.932393<-71.674 0 153.097 525.366>
LayerCount: 2
Fore
SplineSet
617.518554688 774 m 0
 606.465820312 722 539.15234375 697 476.15234375 697 c 0
 410.15234375 697 357.252929688 721 368.306640625 773 c 0
 372.982421875 795 386.895507812 804 413.895507812 804 c 0
 434.895507812 804 441.494140625 788 438.306640625 773 c 0
 437.880859375 771 435.818359375 766 435.60546875 765 c 0
 431.354492188 745 450.741210938 728 483.741210938 728 c 0
 513.741210938 728 541.716796875 742 546.393554688 764 c 0
 546.60546875 765 547.09375 772 547.306640625 773 c 0
 550.494140625 788 562.895507812 804 585.895507812 804 c 0
 611.895507812 804 621.76953125 794 617.518554688 774 c 0
224.927734375 42 m 0
 254.927734375 42 275.627929688 50 317.444335938 115 c 1
 206.819335938 559 l 2
 202.0703125 579 189.296875 613 140.296875 613 c 0
 134.296875 613 130.934570312 616 131.998046875 621 c 2
 137.098632812 645 l 1
 138.311523438 646 l 1
 138.311523438 646 201.098632812 645 242.098632812 645 c 0
 292.098632812 645 414.311523438 646 414.311523438 646 c 1
 416.098632812 645 l 1
 410.998046875 621 l 2
 409.934570312 616 406.296875 613 402.296875 613 c 2
 364.296875 613 l 2
 331.296875 613 328.958984375 602 334.219726562 575 c 1
 411.989257812 254 l 1
 601.219726562 575 l 2
 622.659179688 610 617.296875 613 576.296875 613 c 2
 546.296875 613 l 2
 543.296875 613 540.934570312 616 541.998046875 621 c 2
 547.098632812 645 l 1
 549.311523438 646 l 1
 549.311523438 646 635.098632812 645 677.098632812 645 c 0
 709.098632812 645 757.311523438 646 757.311523438 646 c 1
 759.098632812 645 l 1
 753.998046875 621 l 2
 752.72265625 615 745.296875 613 741.296875 613 c 0
 695.296875 613 683.809570312 606 660.306640625 566 c 2
 417.221679688 161 l 2
 351.052734375 52 280.32421875 -22 190.32421875 -22 c 0
 130.32421875 -22 85.7001953125 8 92.501953125 40 c 0
 98.4541015625 68 115.705078125 88 147.705078125 88 c 0
 172.705078125 88 186.3671875 77 192.81640625 65 c 1
 198.903320312 56 209.927734375 42 224.927734375 42 c 0
EndSplineSet
LCarets2: 1 0 
EndChar

StartChar: afii10020
Encoding: 1043 1043 73
Width: 511
VWidth: 999
Flags: HW
HStem: -1 34<24 93.4759 228.845 296> 599 47<226.022 406.689> 613 33<26 97.6381>
VStem: 100 122<38.5094 596.457> 473 39<471.385 516.618>
LayerCount: 2
Fore
SplineSet
116.3671875 77 m 2
 221.794921875 573 l 2
 228.596679688 605 224.296875 613 200.296875 613 c 2
 168.296875 613 l 2
 156.296875 613 153.147460938 617 154.84765625 625 c 2
 158.673828125 643 l 1
 163.311523438 646 l 1
 625.311523438 646 l 1
 615.196289062 589 612.8046875 526 612.5390625 473 c 1
 571.625976562 464 l 1
 568.591796875 525 548.321289062 599 469.321289062 599 c 2
 383.321289062 599 l 2
 362.321289062 599 345.920898438 583 339.543945312 553 c 2
 238.3671875 77 l 2
 232.415039062 49 242.014648438 33 283.014648438 33 c 2
 298.014648438 33 l 2
 302.014648438 33 304.376953125 30 303.1015625 24 c 2
 298.212890625 1 l 1
 295.787109375 -1 l 1
 295.787109375 -1 196.212890625 1 161.212890625 1 c 0
 122.212890625 1 23.787109375 -1 23.787109375 -1 c 1
 22.212890625 1 l 1
 27.1015625 24 l 2
 28.376953125 30 33.0146484375 33 38.0146484375 33 c 2
 52.0146484375 33 l 2
 91.0146484375 33 109.565429688 45 116.3671875 77 c 2
EndSplineSet
EndChar

StartChar: afii10021
Encoding: 1044 1044 74
Width: 696
VWidth: 999
Flags: HW
HStem: 0 44<203.009 462.408> 600 46<287.63 462.754> 611 35<149 219.411 590.322 660>
VStem: 34 43<-141 -76.4499> 464 122<44.8806 598.625> 620 43<-141 -83.4829>
LayerCount: 2
Fore
SplineSet
123.052734375 52 m 0
 153.004882812 80 186.8203125 145 251.979492188 301 c 1
 298.2109375 415 330.829101562 512 344.432617188 576 c 0
 349.534179688 600 342.872070312 611 316.872070312 611 c 2
 286.872070312 611 l 2
 281.872070312 611 279.934570312 616 280.78515625 620 c 2
 284.3984375 637 l 2
 285.249023438 641 292.311523438 646 299.311523438 646 c 2
 792.311523438 646 l 2
 795.311523438 646 796.4609375 642 795.823242188 639 c 2
 791.78515625 620 l 2
 790.509765625 614 785.872070312 611 781.872070312 611 c 2
 752.872070312 611 l 2
 720.872070312 611 712.470703125 595 705.03125 560 c 2
 603.642578125 83 l 2
 595.77734375 46 616.014648438 33 633.014648438 33 c 0
 655.014648438 33 660.250976562 20 657.700195312 8 c 2
 633.029296875 -141 l 1
 590.029296875 -141 l 1
 589.932617188 -85 567 0 487 0 c 2
 202 0 l 2
 118 0 69.08203125 -89 47.029296875 -141 c 1
 4.029296875 -141 l 1
 42.7001953125 8 l 2
 45.2509765625 20 59.0146484375 33 69.0146484375 33 c 0
 89.0146484375 33 102.014648438 33 123.052734375 52 c 0
553.534179688 600 m 2
 451.534179688 600 l 2
 424.534179688 600 410.55859375 586 403.244140625 561 c 0
 373.563476562 459 338.733398438 361 311.279296875 293 c 0
 264.41015625 176 220.4296875 82 215.965820312 61 c 0
 213.415039062 49 224.352539062 44 239.352539062 44 c 2
 436.352539062 44 l 2
 460.352539062 44 473.990234375 47 481.642578125 83 c 2
 583.244140625 561 l 2
 589.62109375 591 585.534179688 600 553.534179688 600 c 2
EndSplineSet
EndChar

StartChar: afii10024
Encoding: 1046 1046 75
Width: 897
VWidth: 999
Flags: HW
HStem: -2 34<313 381.724 517.184 585> -1 34<9 55.737 842.263 889> 320 48<300.207 393 505 597.069> 585 66<86.2285 155.465 741.912 811.03> 613 34<313 381.724 517.184 585>
VStem: 388 122<37.5094 607.491>
LayerCount: 2
Fore
SplineSet
888.787109375 -1 m 1
 803 0 l 2
 731.212890625 1 716.87890625 70 702.259765625 180 c 1
 687.201171875 280.400390625 679.262695312 318.799804688 578.018554688 320 c 1
 526.154296875 76 l 2
 520.203125 48 530.801757812 32 571.801757812 32 c 2
 585.801757812 32 l 2
 590.801757812 32 593.1640625 29 591.888671875 23 c 2
 587 0 l 1
 584.575195312 -2 l 1
 584.575195312 -2 485 0 449 0 c 0
 410 0 312.575195312 -2 312.575195312 -2 c 1
 311 0 l 1
 315.888671875 23 l 2
 317.1640625 29 321.801757812 32 325.801757812 32 c 2
 339.801757812 32 l 2
 379.801757812 32 397.352539062 44 404.154296875 76 c 2
 456.018554688 320 l 1
 353.262695312 318.799804688 329.000976562 280.400390625 272.259765625 180 c 0
 209.87890625 70 167.212890625 1 95 0 c 2
 8.787109375 -1 l 1
 7.212890625 1 l 1
 12.1015625 24 l 2
 13.376953125 30 18.0146484375 33 22.0146484375 33 c 2
 31.0146484375 33 l 2
 64.0146484375 33 129.893554688 103 210.163085938 236 c 0
 246.916992188 296 275.33203125 345 337.33203125 345 c 1
 270.858398438 371 275.901367188 470 280.29296875 533 c 0
 281.45703125 562 268.345703125 585 247.345703125 585 c 0
 235.345703125 585 222.857421875 578 210.51953125 567 c 0
 201.819335938 559 186.755859375 554 174.755859375 554 c 0
 155.755859375 554 132.881835938 564 140.74609375 601 c 0
 145.635742188 624 182.374023438 651 229.374023438 651 c 0
 292.374023438 651 340.958984375 602 335.630859375 544 c 1
 331.727539062 488 326.423828125 416 372.409179688 383 c 0
 392.381835938 369.700195312 433.041992188 368.099609375 466.220703125 368 c 1
 508.944335938 569 l 2
 515.74609375 601 503.296875 613 463.296875 613 c 2
 449.296875 613 l 2
 445.296875 613 441.934570312 616 442.998046875 621 c 2
 448.098632812 645 l 1
 450.524414062 647 l 1
 450.524414062 647 547.098632812 645 586.098632812 645 c 0
 622.098632812 645 722.524414062 647 722.524414062 647 c 1
 724.098632812 645 l 1
 718.998046875 621 l 2
 717.934570312 616 714.296875 613 709.296875 613 c 2
 695.296875 613 l 2
 654.296875 613 636.896484375 597 630.944335938 569 c 2
 588.220703125 368 l 1
 620.641601562 368.099609375 662.682617188 369.700195312 687.409179688 383 c 0
 748.423828125 416 773.727539062 488 792.630859375 544 c 0
 812.958984375 602 881.374023438 651 944.374023438 651 c 0
 992.374023438 651 1017.63574219 624 1012.74609375 601 c 0
 1004.88183594 564 976.755859375 554 957.755859375 554 c 0
 946.755859375 554 933.819335938 559 927.51953125 567 c 1
 920.857421875 578 910.345703125 585 898.345703125 585 c 0
 878.345703125 585 854.45703125 562 844.29296875 533 c 0
 820.901367188 470 783.858398438 371 706.33203125 345 c 1
 768.33203125 345 776.916992188 296 788.163085938 236 c 0
 811.893554688 103 848.014648438 33 881.014648438 33 c 2
 890.014648438 33 l 2
 894.014648438 33 896.376953125 30 895.1015625 24 c 2
 890.212890625 1 l 1
 888.787109375 -1 l 1
EndSplineSet
EndChar

StartChar: afii10025
Encoding: 1047 1047 76
Width: 573
VWidth: 999
Flags: HW
HStem: -12 42<166.549 331.064> 335 39<160.004 305.936> 624 38<176.762 323.445>
VStem: 30 104<67.2217 151.592> 66 39<463 553.349> 367 119<450.826 581.599> 395 132<103.835 267.959>
LayerCount: 2
Fore
SplineSet
248.376953125 30 m 0
 318.376953125 30 406.903320312 56 432.41015625 176 c 0
 443.25 227 447.206054688 335 330.206054688 335 c 2
 247.206054688 335 l 2
 236.206054688 335 232.694335938 342 235.245117188 354 c 0
 237.583007812 365 244.49609375 374 255.49609375 374 c 2
 302.49609375 374 l 2
 421.49609375 374 462.86328125 451 474.553710938 506 c 0
 490.0703125 579 455.635742188 624 398.635742188 624 c 0
 264.635742188 624 219.35546875 538 203.4140625 463 c 1
 164.4140625 463 l 1
 208.311523438 646 l 1
 338.311523438 646 369.712890625 662 410.712890625 662 c 0
 529.712890625 662 617.360351562 618 596.954101562 522 c 0
 578.461914062 435 466.0078125 367 447.520507812 360 c 1
 513.26953125 340 590.5546875 299 567.810546875 192 c 0
 537.627929688 50 394.44921875 -12 256.44921875 -12 c 0
 175.44921875 -12 111.0390625 19 85.1396484375 43 c 0
 62.603515625 64 49.3427734375 91 55.08203125 118 c 0
 60.6083984375 144 82.072265625 165 105.072265625 165 c 0
 133.072265625 165 156.30859375 152 159.506835938 120 c 0
 168.203125 48 172.376953125 30 248.376953125 30 c 0
EndSplineSet
EndChar

StartChar: afii10026
Encoding: 1048 1048 77
Width: 783
VWidth: 999
Flags: HW
HStem: -1 34<20 99.155 235.539 315 468 548.095 683.276 765> 613 32<20 99.4609 236.442 315 468 547.537 685.451 764>
VStem: 106 123<38.5094 78 146 607.764> 555 122<38.2361 493 561 607.252>
DStem2: 229 146 229 78 0.617738 0.786384<0 474.258>
LayerCount: 2
Fore
SplineSet
797.944335938 569 m 2
 693.154296875 76 l 2
 686.565429688 45 699.014648438 33 739.014648438 33 c 2
 765.014648438 33 l 2
 770.014648438 33 773.376953125 30 772.1015625 24 c 2
 767.212890625 1 l 1
 764.787109375 -1 l 1
 764.787109375 -1 660.212890625 1 621.212890625 1 c 0
 585.212890625 1 467.787109375 -1 467.787109375 -1 c 1
 466.212890625 1 l 1
 471.1015625 24 l 2
 472.376953125 30 476.014648438 33 481.014648438 33 c 2
 507.014648438 33 l 2
 549.014648438 33 565.203125 48 571.154296875 76 c 2
 659.790039062 493 l 1
 245.579101562 78 l 1
 245.3671875 77 l 2
 238.77734375 46 250.014648438 33 290.014648438 33 c 2
 317.014648438 33 l 2
 320.014648438 33 323.376953125 30 322.1015625 24 c 2
 317.212890625 1 l 1
 314.787109375 -1 l 1
 314.787109375 -1 208.212890625 1 169.212890625 1 c 0
 134.212890625 1 19.787109375 -1 19.787109375 -1 c 1
 18.212890625 1 l 1
 23.1015625 24 l 2
 24.376953125 30 28.0146484375 33 32.0146484375 33 c 2
 59.0146484375 33 l 2
 100.014648438 33 116.415039062 49 122.3671875 77 c 2
 227.157226562 570 l 2
 233.74609375 601 222.296875 613 182.296875 613 c 2
 155.296875 613 l 2
 151.296875 613 148.934570312 616 149.998046875 621 c 2
 155.098632812 645 l 1
 157.311523438 646 l 1
 157.311523438 646 263.88671875 644 303.88671875 644 c 0
 338.88671875 644 452.311523438 646 452.311523438 646 c 1
 454.098632812 645 l 1
 448.998046875 621 l 2
 447.934570312 616 444.296875 613 440.296875 613 c 2
 413.296875 613 l 2
 372.296875 613 356.108398438 598 350.157226562 570 c 2
 260.033203125 146 l 1
 674.244140625 561 l 1
 675.944335938 569 l 2
 682.534179688 600 670.296875 613 630.296875 613 c 2
 604.296875 613 l 2
 600.296875 613 596.934570312 616 597.998046875 621 c 2
 603.098632812 645 l 1
 605.311523438 646 l 1
 605.311523438 646 714.88671875 644 753.88671875 644 c 0
 789.88671875 644 901.524414062 647 901.524414062 647 c 1
 903.098632812 645 l 1
 898.209960938 622 l 2
 896.934570312 616 893.296875 613 888.296875 613 c 2
 862.296875 613 l 2
 821.296875 613 803.896484375 597 797.944335938 569 c 2
EndSplineSet
EndChar

StartChar: afii10027
Encoding: 1049 1049 78
Width: 783
VWidth: 999
Flags: HW
HStem: -1 34<20 99.155 235.539 315 468 548.095 683.276 765> 613 32<20 99.4609 236.442 315 468 547.537 685.451 764> 697 31<349.536 440.309>
VStem: 106 123<38.5094 78 146 607.764> 270 70<735.681 802.162> 449 70<734.774 802.125> 555 122<38.2361 493 561 607.252>
DStem2: 229 146 229 78 0.617738 0.786384<0 474.258>
LayerCount: 2
Fore
SplineSet
683.518554688 774 m 0
 672.465820312 722 605.15234375 697 542.15234375 697 c 0
 476.15234375 697 423.252929688 721 434.306640625 773 c 0
 438.982421875 795 452.895507812 804 479.895507812 804 c 0
 500.895507812 804 507.494140625 788 504.306640625 773 c 0
 503.880859375 771 501.818359375 766 501.60546875 765 c 0
 497.354492188 745 516.741210938 728 549.741210938 728 c 0
 579.741210938 728 607.716796875 742 612.393554688 764 c 0
 612.60546875 765 613.09375 772 613.306640625 773 c 0
 616.494140625 788 628.895507812 804 651.895507812 804 c 0
 677.895507812 804 687.76953125 794 683.518554688 774 c 0
797.944335938 569 m 2
 693.154296875 76 l 2
 686.565429688 45 699.014648438 33 739.014648438 33 c 2
 765.014648438 33 l 2
 770.014648438 33 773.376953125 30 772.1015625 24 c 2
 767.212890625 1 l 1
 764.787109375 -1 l 1
 764.787109375 -1 660.212890625 1 621.212890625 1 c 0
 585.212890625 1 467.787109375 -1 467.787109375 -1 c 1
 466.212890625 1 l 1
 471.1015625 24 l 2
 472.376953125 30 476.014648438 33 481.014648438 33 c 2
 507.014648438 33 l 2
 549.014648438 33 565.203125 48 571.154296875 76 c 2
 659.790039062 493 l 1
 245.579101562 78 l 1
 245.3671875 77 l 2
 238.77734375 46 250.014648438 33 290.014648438 33 c 2
 317.014648438 33 l 2
 320.014648438 33 323.376953125 30 322.1015625 24 c 2
 317.212890625 1 l 1
 314.787109375 -1 l 1
 314.787109375 -1 208.212890625 1 169.212890625 1 c 0
 134.212890625 1 19.787109375 -1 19.787109375 -1 c 1
 18.212890625 1 l 1
 23.1015625 24 l 2
 24.376953125 30 28.0146484375 33 32.0146484375 33 c 2
 59.0146484375 33 l 2
 100.014648438 33 116.415039062 49 122.3671875 77 c 2
 227.157226562 570 l 2
 233.74609375 601 222.296875 613 182.296875 613 c 2
 155.296875 613 l 2
 151.296875 613 148.934570312 616 149.998046875 621 c 2
 155.098632812 645 l 1
 157.311523438 646 l 1
 157.311523438 646 263.88671875 644 303.88671875 644 c 0
 338.88671875 644 452.311523438 646 452.311523438 646 c 1
 454.098632812 645 l 1
 448.998046875 621 l 2
 447.934570312 616 444.296875 613 440.296875 613 c 2
 413.296875 613 l 2
 372.296875 613 356.108398438 598 350.157226562 570 c 2
 260.033203125 146 l 1
 674.244140625 561 l 1
 675.944335938 569 l 2
 682.534179688 600 670.296875 613 630.296875 613 c 2
 604.296875 613 l 2
 600.296875 613 596.934570312 616 597.998046875 621 c 2
 603.098632812 645 l 1
 605.311523438 646 l 1
 605.311523438 646 714.88671875 644 753.88671875 644 c 0
 789.88671875 644 901.524414062 647 901.524414062 647 c 1
 903.098632812 645 l 1
 898.209960938 622 l 2
 896.934570312 616 893.296875 613 888.296875 613 c 2
 862.296875 613 l 2
 821.296875 613 803.896484375 597 797.944335938 569 c 2
EndSplineSet
LCarets2: 1 0 
EndChar

StartChar: afii10033
Encoding: 1055 1055 79
Width: 750
VWidth: 999
Flags: HW
HStem: -1 34<19 98.8165 234.855 311 440 514.816 650.855 731> 600 45<229.654 519.608> 613 32<19 99.2757 653.794 731>
VStem: 106 122<38.748 598.335> 522 122<38.748 597.91>
LayerCount: 2
Fore
SplineSet
538.3671875 77 m 2
 639.96875 555 l 2
 645.920898438 583 644.534179688 600 612.534179688 600 c 2
 391.534179688 600 l 2
 360.534179688 600 352.983398438 588 345.96875 555 c 2
 244.3671875 77 l 2
 237.77734375 46 250.014648438 33 290.014648438 33 c 2
 311.014648438 33 l 2
 316.014648438 33 318.376953125 30 317.1015625 24 c 2
 312.212890625 1 l 1
 310.787109375 -1 l 1
 310.787109375 -1 206.212890625 1 167.212890625 1 c 0
 131.212890625 1 18.787109375 -1 18.787109375 -1 c 1
 17.212890625 1 l 1
 22.1015625 24 l 2
 23.376953125 30 27.0146484375 33 32.0146484375 33 c 2
 58.0146484375 33 l 2
 99.0146484375 33 116.415039062 49 122.3671875 77 c 2
 226.944335938 569 l 2
 234.809570312 606 216.296875 613 185.296875 613 c 2
 155.296875 613 l 2
 149.296875 613 148.147460938 617 148.998046875 621 c 2
 154.098632812 645 l 1
 156.311523438 646 l 1
 163.311523438 646 286.098632812 645 300.098632812 645 c 0
 361.88671875 644 437.673828125 643 508.673828125 643 c 0
 570.673828125 643 641.88671875 644 714.098632812 645 c 0
 720.098632812 645 866.311523438 646 868.311523438 646 c 2
 870.098632812 645 l 1
 864.998046875 621 l 2
 864.147460938 617 860.296875 613 855.296875 613 c 2
 826.296875 613 l 1
 798.084960938 612 771.534179688 600 764.944335938 569 c 2
 660.3671875 77 l 2
 653.77734375 46 666.014648438 33 706.014648438 33 c 2
 732.014648438 33 l 2
 736.014648438 33 739.376953125 30 738.1015625 24 c 2
 733.212890625 1 l 1
 730.787109375 -1 l 1
 730.787109375 -1 620.212890625 1 581.212890625 1 c 0
 545.212890625 1 439.787109375 -1 439.787109375 -1 c 1
 438.212890625 1 l 1
 443.1015625 24 l 2
 444.376953125 30 448.014648438 33 453.014648438 33 c 2
 474.014648438 33 l 2
 515.014648438 33 532.415039062 49 538.3671875 77 c 2
EndSplineSet
EndChar

StartChar: afii10034
Encoding: 1056 1056 80
Width: 550
VWidth: 999
Flags: HW
HStem: -2 34<24 44 281 306> 279 40<221 346.677> 611 36<24 93.1927> 613 41<126.947 352.681>
VStem: 99 122<44.5532 282 319.949 606.701> 406 127<391.868 561.741>
LayerCount: 2
Fore
SplineSet
339.606445312 558 m 2
 289.443359375 322 l 1
 303.018554688 320 323.805664062 319 338.805664062 319 c 0
 420.805664062 319 483.158203125 363 505.263671875 467 c 0
 531.196289062 589 469.296875 613 411.296875 613 c 0
 358.296875 613 347.045898438 593 339.606445312 558 c 2
117.91796875 89 m 2
 218.03125 560 l 2
 225.470703125 595 216.659179688 610 194.872070312 611 c 2
 163.296875 613 l 2
 155.296875 613 153.147460938 617 153.998046875 621 c 2
 159.098632812 645 l 1
 161.524414062 647 l 1
 220.524414062 647 347.01171875 654 428.01171875 654 c 0
 629.01171875 654 649.481445312 548 635.876953125 484 c 0
 615.471679688 388 532.303710938 279 335.303710938 279 c 0
 311.303710938 279 294.515625 280 280.94140625 282 c 1
 239.91796875 89 l 2
 231.840820312 51 249.319335938 38.2001953125 288.2265625 34 c 2
 306.801757812 32 l 2
 312.673828125 31.400390625 314.1640625 29 312.888671875 23 c 2
 308 0 l 1
 305.575195312 -2 l 1
 268.787109375 -1 198 0 160 0 c 0
 122 0 60.787109375 -1 23.5751953125 -2 c 1
 22 0 l 1
 26.888671875 23 l 2
 28.1640625 29 32.7744140625 31.400390625 36.8017578125 32 c 2
 51.2265625 34 l 2
 93.16015625 39.7998046875 109.840820312 51 117.91796875 89 c 2
EndSplineSet
EndChar

StartChar: afii10035
Encoding: 1057 1057 81
Width: 666
VWidth: 999
Flags: HW
HStem: -10 44<290.062 474.801> 437 21<558.5 612> 617 41<295.135 462.38>
VStem: 34 130<195.747 434.804> 574 38<443.526 484.717>
LayerCount: 2
Fore
SplineSet
368.874023438 -10 m 0
 140.874023438 -10 66.7333984375 154 100.955078125 315 c 0
 142.829101562 512 326.862304688 658 511.862304688 658 c 0
 644.862304688 658 669.509765625 614 720.509765625 614 c 1
 712.181640625 556 708.278320312 500 706.587890625 445 c 1
 666.887695312 437 l 1
 656.080078125 532 631.147460938 617 503.147460938 617 c 0
 406.147460938 617 277.080078125 532 234.994140625 334 c 0
 204.810546875 192 238.2265625 34 377.2265625 34 c 0
 458.2265625 34 538.028320312 66 633.521484375 153 c 1
 658.419921875 129 l 1
 571.290039062 39 474.874023438 -10 368.874023438 -10 c 0
EndSplineSet
EndChar

StartChar: afii10036
Encoding: 1058 1058 82
Width: 597
VWidth: 999
Flags: HW
HStem: -2 34<151 230.816 366.855 447> 599 46<70.4923 235.855 362.438 526.846>
VStem: 8 39<518.103 570.778> 30 36<645.204 669> 238 122<37.748 595.906> 532 36<647.479 669> 550 40<518.125 570.778>
LayerCount: 2
Fore
SplineSet
224.098632812 645 m 2
 647.098632812 645 l 2
 668.098632812 645 672.924804688 663 674.200195312 669 c 1
 711.05078125 673 l 1
 704.635742188 624 700.58203125 572 700.31640625 519 c 1
 659.25390625 514 l 1
 656.258789062 594 644.321289062 599 589.321289062 599 c 2
 535.321289062 599 l 2
 499.321289062 599 485.408203125 590 478.393554688 557 c 2
 376.154296875 76 l 2
 369.565429688 45 381.801757812 32 421.801757812 32 c 2
 447.801757812 32 l 2
 451.801757812 32 455.1640625 29 453.888671875 23 c 2
 449 0 l 1
 446.575195312 -2 l 1
 446.575195312 -2 328 0 289 0 c 0
 253 0 150.575195312 -2 150.575195312 -2 c 1
 149 0 l 1
 153.888671875 23 l 2
 155.1640625 29 158.801757812 32 163.801757812 32 c 2
 189.801757812 32 l 2
 230.801757812 32 248.203125 48 254.154296875 76 c 2
 357.03125 560 l 2
 363.408203125 590 353.321289062 599 316.321289062 599 c 2
 263.321289062 599 l 2
 208.321289062 599 193.258789062 594 156.25390625 514 c 1
 118.31640625 519 l 1
 140.58203125 572 158.635742188 624 173.05078125 673 c 1
 208.200195312 669 l 1
 206.924804688 663 203.098632812 645 224.098632812 645 c 2
EndSplineSet
EndChar

StartChar: afii10037
Encoding: 1059 1059 83
Width: 621
VWidth: 999
Flags: HW
HStem: -22 64<180.643 263.693> 613 32<1 59.1675 206.362 277 412 484.667 556.138 620>
DStem2: 212 575 88 559 0.419188 -0.907899<-30.5778 352.637> 293 115 383 161 0.361446 0.932393<-71.674 0 153.097 525.366>
LayerCount: 2
Fore
SplineSet
224.927734375 42 m 0
 254.927734375 42 275.627929688 50 317.444335938 115 c 1
 206.819335938 559 l 2
 202.0703125 579 189.296875 613 140.296875 613 c 0
 134.296875 613 130.934570312 616 131.998046875 621 c 2
 137.098632812 645 l 1
 138.311523438 646 l 1
 138.311523438 646 201.098632812 645 242.098632812 645 c 0
 292.098632812 645 414.311523438 646 414.311523438 646 c 1
 416.098632812 645 l 1
 410.998046875 621 l 2
 409.934570312 616 406.296875 613 402.296875 613 c 2
 364.296875 613 l 2
 331.296875 613 328.958984375 602 334.219726562 575 c 1
 411.989257812 254 l 1
 601.219726562 575 l 2
 622.659179688 610 617.296875 613 576.296875 613 c 2
 546.296875 613 l 2
 543.296875 613 540.934570312 616 541.998046875 621 c 2
 547.098632812 645 l 1
 549.311523438 646 l 1
 549.311523438 646 635.098632812 645 677.098632812 645 c 0
 709.098632812 645 757.311523438 646 757.311523438 646 c 1
 759.098632812 645 l 1
 753.998046875 621 l 2
 752.72265625 615 745.296875 613 741.296875 613 c 0
 695.296875 613 683.809570312 606 660.306640625 566 c 2
 417.221679688 161 l 2
 351.052734375 52 280.32421875 -22 190.32421875 -22 c 0
 130.32421875 -22 85.7001953125 8 92.501953125 40 c 0
 98.4541015625 68 115.705078125 88 147.705078125 88 c 0
 172.705078125 88 186.3671875 77 192.81640625 65 c 1
 198.903320312 56 209.927734375 42 224.927734375 42 c 0
EndSplineSet
EndChar

StartChar: afii10039
Encoding: 1061 1061 84
Width: 708
VWidth: 999
Flags: HW
HStem: -2 34<6 77.2637 175.139 221 431 479.696 642.975 703> 613 32<24 81.6763 243.172 295 464 510.913 615.064 682>
DStem2: 253 572 129 549 0.578967 -0.815351<-30.4141 207.826 286.619 564.202> 388 412 565 552 0.640675 0.767812<-16.6551 209.908>
LayerCount: 2
Fore
SplineSet
155.78515625 620 m 2
 161.098632812 645 l 1
 166.311523438 646 l 1
 192.311523438 646 256.098632812 645 267.098632812 645 c 0
 272.098632812 645 397.311523438 646 428.311523438 646 c 1
 428.311523438 646 431.098632812 645 432.098632812 645 c 1
 426.78515625 620 l 2
 425.72265625 615 423.296875 613 420.296875 613 c 0
 369.296875 613 361.171875 603 374.58203125 572 c 2
 447.998046875 414 l 2
 457.172851562 396 459.384765625 397 475.573242188 412 c 0
 525.98828125 461 590.379882812 524 627.58203125 572 c 0
 655.447265625 609 622.296875 613 599.296875 613 c 0
 596.296875 613 592.72265625 615 593.78515625 620 c 2
 599.098632812 645 l 1
 601.311523438 646 l 1
 623.311523438 646 710.098632812 645 721.098632812 645 c 0
 726.098632812 645 801.311523438 646 819.311523438 646 c 1
 821.098632812 645 l 1
 815.78515625 620 l 2
 815.147460938 617 814.296875 613 805.296875 613 c 0
 754.296875 613 718.55859375 586 682.331054688 552 c 2
 502.409179688 383 l 2
 479.9453125 362 480.095703125 358 504.317382812 312 c 2
 612.680664062 102 l 2
 632.390625 63 659.801757812 32 703.801757812 32 c 0
 708.801757812 32 709.951171875 28 709.1015625 24 c 2
 704 0 l 1
 702.575195312 -2 l 1
 674.787109375 -1 609 0 597 0 c 0
 591 0 430.575195312 -2 430.575195312 -2 c 1
 428 0 l 1
 433.313476562 25 l 2
 434.1640625 29 437.801757812 32 440.801757812 32 c 0
 500.801757812 32 500.077148438 38 482.516601562 73 c 2
 397.2890625 246 l 2
 382.877929688 277 379.877929688 277 361.83984375 258 c 0
 305.723632812 201 247.907226562 136 199.3671875 77 c 0
 165.439453125 35 201.801757812 32 224.801757812 32 c 0
 228.801757812 32 229.951171875 28 229.1015625 24 c 2
 224 0 l 1
 220.575195312 -2 l 1
 220.575195312 -2 104 0 90 0 c 0
 85 0 5.5751953125 -2 5.5751953125 -2 c 1
 5 0 l 1
 10.3134765625 25 l 2
 11.376953125 30 16.8017578125 32 22.8017578125 32 c 0
 81.8017578125 32 113.81640625 65 153.10546875 104 c 2
 338.853515625 291 l 1
 360.10546875 311 360.16796875 316 346.119140625 344 c 2
 245.693359375 549 l 2
 218.596679688 605 182.296875 613 165.296875 613 c 0
 158.296875 613 154.72265625 615 155.78515625 620 c 2
EndSplineSet
EndChar

StartChar: afii10040
Encoding: 1062 1062 85
Width: 722
VWidth: 487
Flags: HW
HStem: -1 34<20 88.5142> 0 42<215.974 501.971> 613 32<19 88.6542 217.213 286 433 501.091 628.883 697>
VStem: 92 122<43.533 611.651> 504 122<44.0875 611.234> 662 41<-136 -78.8302>
LayerCount: 2
Fore
SplineSet
525 0 m 2
 525 0 306 0 166 0 c 2
 19.787109375 -1 l 1
 17.212890625 1 l 1
 21.67578125 22 l 2
 22.951171875 28 28.0146484375 33 33.0146484375 33 c 2
 59.0146484375 33 l 2
 91.0146484375 33 100.501953125 40 109.004882812 80 c 2
 212.51953125 567 l 2
 220.809570312 606 216.296875 613 182.296875 613 c 2
 152.296875 613 l 2
 149.296875 613 147.509765625 614 148.360351562 618 c 2
 154.098632812 645 l 1
 156.311523438 646 l 1
 296.098632812 645 l 1
 423.311523438 646 l 1
 425.098632812 645 l 1
 419.360351562 618 l 2
 418.72265625 615 416.296875 613 413.296875 613 c 2
 383.296875 613 l 2
 351.296875 613 343.021484375 607 334.51953125 567 c 2
 232.705078125 88 l 2
 223.990234375 47 230.927734375 42 261.927734375 42 c 2
 473.927734375 42 l 2
 509.927734375 42 516.116210938 57 522.91796875 89 c 2
 624.51953125 567 l 2
 631.321289062 599 633.296875 613 595.296875 613 c 2
 566.296875 613 l 2
 562.296875 613 560.509765625 614 561.360351562 618 c 2
 567.098632812 645 l 1
 570.311523438 646 l 1
 689.098632812 645 l 1
 834.311523438 646 l 1
 837.098632812 645 l 1
 832.422851562 623 l 2
 831.78515625 620 828.296875 613 824.296875 613 c 2
 795.296875 613 l 1
 758.084960938 612 753.74609375 601 746.51953125 567 c 2
 643.4296875 82 l 2
 638.116210938 57 650.014648438 33 674.014648438 33 c 0
 699.014648438 33 700.463867188 21 699.763671875 13 c 2
 674.092773438 -136 l 1
 633.092773438 -136 l 1
 633.18359375 -65 603 0 525 0 c 2
EndSplineSet
EndChar

StartChar: afii10041
Encoding: 1063 1063 86
Width: 687
VWidth: 999
Flags: HW
HStem: -1 34<386 466.5 595.051 666> 248 63<243.549 386.648> 613 33<29 94.6501 221.253 287 396 467.719 594.197 666>
VStem: 97 122<333.393 611.375> 470 122<34.8668 314 344.538 611.828>
LayerCount: 2
Fore
SplineSet
437.014648438 33 m 2
 473.014648438 33 479.77734375 46 487.004882812 80 c 2
 536.743164062 314 l 1
 452.90234375 263 381.713867188 248 323.713867188 248 c 0
 209.713867188 248 166.505859375 327 187.548828125 426 c 2
 218.58203125 572 l 2
 225.809570312 606 222.296875 613 183.296875 613 c 2
 166.296875 613 l 2
 161.296875 613 159.72265625 615 160.572265625 619 c 2
 166.311523438 646 l 1
 315.098632812 645 l 1
 424.311523438 646 l 1
 418.360351562 618 l 2
 417.72265625 615 415.296875 613 411.296875 613 c 2
 393.296875 613 l 2
 351.296875 613 347.171875 603 340.58203125 572 c 2
 308.2734375 420 l 2
 290.84375 338 307.10546875 311 379.10546875 311 c 0
 408.10546875 311 472.955078125 315 545.8828125 357 c 1
 591.370117188 571 l 2
 598.596679688 605 596.296875 613 560.296875 613 c 2
 530.296875 613 l 2
 527.296875 613 526.509765625 614 527.360351562 618 c 2
 533.311523438 646 l 1
 688.88671875 644 l 1
 803.311523438 646 l 1
 797.572265625 619 l 2
 796.72265625 615 794.296875 613 791.296875 613 c 2
 761.296875 613 l 2
 727.296875 613 721.234375 608 713.370117188 571 c 2
 609.004882812 80 l 2
 601.139648438 43 604.014648438 33 638.014648438 33 c 2
 668.014648438 33 l 2
 671.014648438 33 672.376953125 30 671.739257812 27 c 2
 665.787109375 -1 l 1
 552.212890625 1 l 1
 385.787109375 -1 l 1
 391.739257812 27 l 2
 392.588867188 31 394.014648438 33 398.014648438 33 c 2
 437.014648438 33 l 2
EndSplineSet
EndChar

StartChar: afii10042
Encoding: 1064 1064 87
Width: 1087
VWidth: 487
Flags: HW
HStem: -1 34<34 103.253 984.033 1054> 2 40<230.584 479.921 606.71 856.864> 613 32<19 98.5971 237.067 313 397 474.538 612.451 690 774 851.597 989.451 1068>
VStem: 106 123<43.9395 607.491> 482 122<43.6743 607.252> 859 122<43.3821 607.252>
LayerCount: 2
Fore
SplineSet
1101.94433594 569 m 2
 996.94140625 75 l 2
 989.501953125 40 997.014648438 33 1028.01464844 33 c 2
 1058.01464844 33 l 2
 1061.01464844 33 1062.58886719 31 1061.95117188 28 c 2
 1056.21289062 1 l 1
 1053.78710938 -1 l 1
 939.424804688 2 l 1
 221.424804688 2 l 1
 33.787109375 -1 l 1
 32.212890625 1 l 1
 37.951171875 28 l 2
 38.5888671875 31 41.0146484375 33 44.0146484375 33 c 2
 74.0146484375 33 l 2
 108.014648438 33 114.71484375 41 123.004882812 80 c 2
 226.944335938 569 l 2
 233.534179688 600 221.296875 613 182.296875 613 c 2
 155.296875 613 l 2
 151.296875 613 147.934570312 616 148.998046875 621 c 2
 154.098632812 645 l 1
 156.311523438 646 l 1
 156.311523438 646 264.098632812 645 304.098632812 645 c 0
 339.098632812 645 450.311523438 646 450.311523438 646 c 1
 452.098632812 645 l 1
 446.998046875 621 l 2
 445.934570312 616 442.296875 613 437.296875 613 c 2
 413.296875 613 l 2
 372.296875 613 355.896484375 597 349.944335938 569 c 2
 247.705078125 88 l 2
 240.903320312 56 237.927734375 42 276.927734375 42 c 2
 456.927734375 42 l 2
 487.927734375 42 494.116210938 57 500.705078125 88 c 2
 602.944335938 569 l 2
 609.534179688 600 597.296875 613 557.296875 613 c 2
 533.296875 613 l 2
 529.296875 613 525.934570312 616 526.998046875 621 c 2
 532.098632812 645 l 1
 534.311523438 646 l 1
 534.311523438 646 640.098632812 645 679.098632812 645 c 0
 715.098632812 645 805.311523438 646 805.311523438 646 c 1
 827.098632812 645 l 1
 821.998046875 621 l 2
 820.934570312 616 818.296875 613 813.296875 613 c 2
 789.296875 613 l 2
 748.296875 613 730.896484375 597 724.944335938 569 c 2
 622.705078125 88 l 2
 616.328125 58 616.927734375 42 649.927734375 42 c 2
 828.927734375 42 l 2
 861.927734375 42 869.415039062 49 877.705078125 88 c 2
 979.944335938 569 l 2
 986.534179688 600 974.296875 613 935.296875 613 c 2
 911.296875 613 l 2
 906.296875 613 902.934570312 616 903.998046875 621 c 2
 909.098632812 645 l 1
 911.311523438 646 l 1
 911.311523438 646 1017.09863281 645 1056.09863281 645 c 0
 1092.09863281 645 1205.31152344 646 1205.31152344 646 c 1
 1207.09863281 645 l 1
 1201.99804688 621 l 2
 1200.93457031 616 1197.296875 613 1192.296875 613 c 2
 1166.296875 613 l 2
 1125.296875 613 1107.89648438 597 1101.94433594 569 c 2
EndSplineSet
EndChar

StartChar: afii10043
Encoding: 1065 1065 88
Width: 1089
VWidth: 487
Flags: HW
HStem: 0 31<34 103.32> 1 40<231.307 479.648 606.781 856.754> 613 32<19 98.5971 237.067 313 397 474.538 612.451 688 774 851.597 989.451 1068>
VStem: 106 123<43.2559 607.491> 482 122<43.5908 607.252> 859 122<42.9083 607.252> 1014 44<-141 -88.5684>
LayerCount: 2
Fore
SplineSet
349.944335938 569 m 2
 247.705078125 88 l 2
 241.328125 58 239.71484375 41 276.71484375 41 c 2
 448.71484375 41 l 2
 486.71484375 41 493.052734375 52 500.705078125 88 c 2
 602.944335938 569 l 2
 609.534179688 600 597.296875 613 557.296875 613 c 2
 533.296875 613 l 2
 529.296875 613 525.934570312 616 526.998046875 621 c 2
 532.098632812 645 l 1
 534.311523438 646 l 1
 534.311523438 646 646.098632812 645 685.098632812 645 c 0
 721.098632812 645 825.311523438 646 825.311523438 646 c 1
 827.098632812 645 l 1
 821.998046875 621 l 2
 820.934570312 616 818.296875 613 813.296875 613 c 2
 789.296875 613 l 2
 748.296875 613 730.896484375 597 724.944335938 569 c 2
 622.705078125 88 l 2
 615.052734375 52 617.71484375 41 660.71484375 41 c 2
 828.71484375 41 l 2
 863.71484375 41 870.052734375 52 877.705078125 88 c 2
 979.944335938 569 l 2
 986.534179688 600 974.296875 613 935.296875 613 c 2
 911.296875 613 l 2
 906.296875 613 902.934570312 616 903.998046875 621 c 2
 909.098632812 645 l 1
 911.311523438 646 l 1
 911.311523438 646 1021.09863281 645 1060.09863281 645 c 0
 1095.09863281 645 1205.31152344 646 1205.31152344 646 c 1
 1207.09863281 645 l 1
 1201.99804688 621 l 2
 1200.93457031 616 1197.296875 613 1192.296875 613 c 2
 1166.296875 613 l 2
 1125.296875 613 1107.89648438 597 1101.94433594 569 c 2
 999.067382812 85 l 2
 990.77734375 46 1013.01464844 33 1028.01464844 33 c 0
 1046.01464844 33 1055.88867188 23 1053.27539062 6 c 2
 1028.02929688 -141 l 1
 984.029296875 -141 l 1
 986.381835938 -97 944.212890625 1 858.212890625 1 c 2
 188.212890625 1 l 1
 33.787109375 -1 l 1
 32 0 l 1
 37.5263671875 26 l 2
 38.376953125 30 40.5888671875 31 43.5888671875 31 c 2
 73.5888671875 31 l 2
 106.588867188 31 113.439453125 35 121.729492188 74 c 2
 226.944335938 569 l 2
 233.534179688 600 221.296875 613 182.296875 613 c 2
 155.296875 613 l 2
 151.296875 613 147.934570312 616 148.998046875 621 c 2
 154.098632812 645 l 1
 156.311523438 646 l 1
 156.311523438 646 271.098632812 645 310.098632812 645 c 0
 345.098632812 645 450.311523438 646 450.311523438 646 c 1
 452.098632812 645 l 1
 446.998046875 621 l 2
 445.934570312 616 442.296875 613 437.296875 613 c 2
 413.296875 613 l 2
 372.296875 613 355.896484375 597 349.944335938 569 c 2
EndSplineSet
EndChar

StartChar: afii10044
Encoding: 1066 1066 89
Width: 780
VWidth: 999
Flags: HW
HStem: -1 35<178 258.408 393.048 541.239> 331 44<387 557.861> 602 44<130.709 261.935> 613 33<394.803 474>
VStem: 26 47<473.255 529.979> 265 122<39.0136 331 375 599.078> 613 131<97.6675 271.008>
LayerCount: 2
Fore
SplineSet
457.356445312 331 m 1
 404.854492188 84 l 2
 397.840820312 51 399.2265625 34 454.2265625 34 c 0
 606.2265625 34 638.719726562 121 651.897460938 183 c 0
 664.651367188 243 673.356445312 331 545.356445312 331 c 2
 457.356445312 331 l 1
461.098632812 645 m 2
 497.098632812 645 611.311523438 646 611.311523438 646 c 1
 613.098632812 645 l 1
 607.998046875 621 l 2
 606.934570312 616 603.296875 613 598.296875 613 c 2
 572.296875 613 l 2
 531.296875 613 513.896484375 597 507.944335938 569 c 2
 466.708984375 375 l 1
 527.708984375 375 l 2
 772.708984375 375 801.815429688 272 782.897460938 183 c 0
 747.401367188 16 565.787109375 -1 444.787109375 -1 c 0
 408.787109375 -1 357.212890625 1 328.212890625 1 c 0
 292.212890625 1 177.787109375 -1 177.787109375 -1 c 1
 176.212890625 1 l 1
 181.1015625 24 l 2
 182.376953125 30 186.014648438 33 191.014648438 33 c 2
 217.014648438 33 l 2
 258.014648438 33 275.415039062 49 281.3671875 77 c 2
 383.819335938 559 l 2
 389.55859375 586 381.958984375 602 353.958984375 602 c 2
 308.958984375 602 l 2
 242.958984375 602 190.829101562 512 172.689453125 469 c 1
 126.751953125 474 l 1
 147.655273438 530 164.1328125 584 179.311523438 646 c 1
 402.311523438 646 l 1
 461.098632812 645 l 2
EndSplineSet
EndChar

StartChar: afii10045
Encoding: 1067 1067 90
Width: 908
VWidth: 999
Flags: HW
HStem: -1 34<612 680.724 816.184 884> -1 35<19 99.4082 234.048 379.573> 331 45<228 397.119> 613 32<19 97.5488 235.462 315> 614 34<612 680.724 816.184 884>
VStem: 106 122<39.0136 331 376 607.252> 454 127<93.6435 279.371> 687 122<38.5094 608.491>
LayerCount: 2
Fore
SplineSet
825.3671875 77 m 2
 819.415039062 49 830.014648438 33 871.014648438 33 c 2
 885.014648438 33 l 2
 890.014648438 33 892.376953125 30 891.1015625 24 c 2
 886.212890625 1 l 1
 883.787109375 -1 l 1
 883.787109375 -1 784.212890625 1 748.212890625 1 c 0
 709.212890625 1 611.787109375 -1 611.787109375 -1 c 1
 610.212890625 1 l 1
 615.1015625 24 l 2
 616.376953125 30 621.014648438 33 625.014648438 33 c 2
 639.014648438 33 l 2
 679.014648438 33 696.565429688 45 703.3671875 77 c 2
 808.157226562 570 l 2
 814.958984375 602 802.509765625 614 762.509765625 614 c 2
 748.509765625 614 l 2
 744.509765625 614 741.147460938 617 742.209960938 622 c 2
 747.311523438 646 l 1
 749.736328125 648 l 1
 749.736328125 648 846.311523438 646 885.311523438 646 c 0
 921.311523438 646 1021.73632812 648 1021.73632812 648 c 1
 1023.31152344 646 l 1
 1018.20996094 622 l 2
 1017.14746094 617 1013.50976562 614 1008.50976562 614 c 2
 994.509765625 614 l 2
 953.509765625 614 936.108398438 598 930.157226562 570 c 2
 825.3671875 77 l 2
226.944335938 569 m 2
 232.896484375 597 222.296875 613 181.296875 613 c 2
 155.296875 613 l 2
 150.296875 613 147.934570312 616 148.998046875 621 c 2
 154.098632812 645 l 1
 156.311523438 646 l 1
 156.311523438 646 267.098632812 645 303.098632812 645 c 0
 342.098632812 645 452.311523438 646 452.311523438 646 c 1
 454.098632812 645 l 1
 448.998046875 621 l 2
 447.934570312 616 443.296875 613 439.296875 613 c 2
 413.296875 613 l 2
 373.296875 613 355.534179688 600 348.944335938 569 c 2
 307.920898438 376 l 1
 385.920898438 376 l 2
 630.920898438 376 638.815429688 272 619.897460938 183 c 0
 584.401367188 16 423.787109375 -1 302.787109375 -1 c 0
 266.787109375 -1 195.212890625 1 166.212890625 1 c 0
 137.212890625 1 18.787109375 -1 18.787109375 -1 c 1
 17.212890625 1 l 1
 22.1015625 24 l 2
 23.376953125 30 27.0146484375 33 32.0146484375 33 c 2
 58.0146484375 33 l 2
 99.0146484375 33 116.415039062 49 122.3671875 77 c 2
 226.944335938 569 l 2
298.356445312 331 m 1
 245.854492188 84 l 2
 238.840820312 51 240.2265625 34 295.2265625 34 c 0
 446.2265625 34 479.719726562 121 492.897460938 183 c 0
 505.651367188 243 514.356445312 331 385.356445312 331 c 2
 298.356445312 331 l 1
EndSplineSet
EndChar

StartChar: afii10046
Encoding: 1068 1068 91
Width: 617
VWidth: 999
Flags: HW
HStem: -1 35<19 99.4082 234.048 379.573> 331 45<228 397.119> 613 32<19 97.5488 235.462 315>
VStem: 106 122<39.0136 331 376 607.252> 454 127<93.6435 279.371>
LayerCount: 2
Fore
SplineSet
226.944335938 569 m 2
 232.896484375 597 222.296875 613 181.296875 613 c 2
 155.296875 613 l 2
 150.296875 613 147.934570312 616 148.998046875 621 c 2
 154.098632812 645 l 1
 156.311523438 646 l 1
 156.311523438 646 267.098632812 645 303.098632812 645 c 0
 342.098632812 645 452.311523438 646 452.311523438 646 c 1
 454.098632812 645 l 1
 448.998046875 621 l 2
 447.934570312 616 443.296875 613 439.296875 613 c 2
 413.296875 613 l 2
 373.296875 613 355.534179688 600 348.944335938 569 c 2
 307.920898438 376 l 1
 385.920898438 376 l 2
 630.920898438 376 638.815429688 272 619.897460938 183 c 0
 584.401367188 16 423.787109375 -1 302.787109375 -1 c 0
 266.787109375 -1 195.212890625 1 166.212890625 1 c 0
 137.212890625 1 18.787109375 -1 18.787109375 -1 c 1
 17.212890625 1 l 1
 22.1015625 24 l 2
 23.376953125 30 27.0146484375 33 32.0146484375 33 c 2
 58.0146484375 33 l 2
 99.0146484375 33 116.415039062 49 122.3671875 77 c 2
 226.944335938 569 l 2
298.356445312 331 m 1
 245.854492188 84 l 2
 238.840820312 51 240.2265625 34 295.2265625 34 c 0
 446.2265625 34 479.719726562 121 492.897460938 183 c 0
 505.651367188 243 514.356445312 331 385.356445312 331 c 2
 298.356445312 331 l 1
EndSplineSet
EndChar

StartChar: afii10047
Encoding: 1069 1069 92
Width: 625
VWidth: 999
Flags: HW
HStem: -12 38<199.301 353.574> 273 66<307.887 449.597> 311 59<161.217 283.679> 616 42<190.147 341.059>
VStem: 42 39<457.282 500.885> 54 89<77.2543 155.168> 451 131<196.438 295 341.365 467.623>
LayerCount: 2
Fore
SplineSet
513.704101562 295 m 1
 464.028320312 273 429.028320312 273 418.028320312 273 c 0
 356.028320312 273 321.10546875 311 262.10546875 311 c 0
 224.10546875 311 204.704101562 295 196.704101562 295 c 0
 192.704101562 295 189.404296875 303 191.317382812 312 c 0
 196.418945312 336 266.645507812 370 325.645507812 370 c 0
 391.645507812 370 414.056640625 339 472.056640625 339 c 0
 491.056640625 339 508.694335938 342 524.544921875 346 c 1
 558.90625 550 481.934570312 616 401.934570312 616 c 0
 306.934570312 616 220.780273438 540 177.500976562 454 c 1
 139.350585938 458 l 1
 161.616210938 511 179.606445312 558 193.296875 613 c 1
 251.934570312 616 313.862304688 658 418.862304688 658 c 0
 583.862304688 658 698.90625 550 652.78125 333 c 0
 606.018554688 113 442.44921875 -12 272.44921875 -12 c 0
 186.44921875 -12 137.0390625 19 111.139648438 43 c 0
 88.603515625 64 74.193359375 95 79.931640625 122 c 0
 85.4580078125 148 105.072265625 165 123.072265625 165 c 0
 152.072265625 165 164.30859375 152 168.506835938 120 c 0
 177.203125 48 219.526367188 26 291.526367188 26 c 0
 414.526367188 26 483.221679688 161 513.704101562 295 c 1
EndSplineSet
EndChar

StartChar: afii10048
Encoding: 1070 1070 93
Width: 937
VWidth: 999
Flags: HW
HStem: -12 39<554.854 687.491> -1 34<24 92.7241 228.184 296> 300 49<221 317> 613 32<24 91.5375 229.451 296> 619 39<533.072 673.166>
VStem: 99 122<38.5094 300 349 607.491> 317 126<178.838 300 349 443.243> 771 127<190.805 458.298>
LayerCount: 2
Fore
SplineSet
724.572265625 619 m 0
 640.572265625 619 557.142578125 537 512.505859375 327 c 0
 471.6953125 135 521.739257812 27 629.739257812 27 c 0
 732.739257812 27 798.844726562 131 836.892578125 310 c 0
 881.104492188 518 849.572265625 619 724.572265625 619 c 0
237.3671875 77 m 2
 231.415039062 49 242.014648438 33 283.014648438 33 c 2
 297.014648438 33 l 2
 302.014648438 33 304.376953125 30 303.1015625 24 c 2
 298.212890625 1 l 1
 295.787109375 -1 l 1
 295.787109375 -1 196.212890625 1 160.212890625 1 c 0
 121.212890625 1 23.787109375 -1 23.787109375 -1 c 1
 22.212890625 1 l 1
 27.1015625 24 l 2
 28.376953125 30 33.0146484375 33 37.0146484375 33 c 2
 51.0146484375 33 l 2
 91.0146484375 33 108.565429688 45 115.3671875 77 c 2
 219.944335938 569 l 2
 226.74609375 601 214.296875 613 174.296875 613 c 2
 160.296875 613 l 2
 156.296875 613 152.934570312 616 153.998046875 621 c 2
 159.098632812 645 l 1
 161.311523438 646 l 1
 161.311523438 646 258.098632812 645 297.098632812 645 c 0
 333.098632812 645 433.311523438 646 433.311523438 646 c 1
 435.098632812 645 l 1
 429.998046875 621 l 2
 428.934570312 616 425.296875 613 420.296875 613 c 2
 406.296875 613 l 2
 365.296875 613 347.896484375 597 341.944335938 569 c 2
 295.182617188 349 l 1
 392.182617188 349 l 1
 444.8046875 526 589.862304688 658 744.862304688 658 c 0
 911.862304688 658 1010.01757812 527 967.930664062 329 c 0
 925.419921875 129 781.44921875 -12 603.44921875 -12 c 0
 445.44921875 -12 344.168945312 109 380.766601562 300 c 1
 284.766601562 300 l 1
 237.3671875 77 l 2
EndSplineSet
EndChar

StartChar: afii10049
Encoding: 1071 1071 94
Width: 612
VWidth: 999
Flags: HW
HStem: -1 34<11 57.5665 296 376.155 511.524 593> 320 48<298.94 383> 606 40<215.181 381.843> 613 33<510.485 596>
VStem: 69 108<410.473 564.69> 383 122<38.2361 320 368 602.434>
LayerCount: 2
Fore
SplineSet
451.018554688 320 m 1
 345.018554688 320 342.94140625 282 285.259765625 180 c 0
 222.87890625 70 179.212890625 1 107 0 c 2
 10.787109375 -1 l 1
 10.212890625 1 l 1
 15.1015625 24 l 2
 16.376953125 30 20.0146484375 33 24.0146484375 33 c 2
 33.0146484375 33 l 2
 66.0146484375 33 130.893554688 103 212.163085938 236 c 0
 236.877929688 277 258.10546875 311 287.930664062 329 c 1
 222.056640625 339 150.833984375 385 172.514648438 487 c 0
 187.181640625 556 250.311523438 646 436.311523438 646 c 0
 471.311523438 646 552.098632812 645 584.098632812 645 c 0
 616.098632812 645 733.311523438 646 733.311523438 646 c 1
 727.78515625 620 l 2
 726.934570312 616 724.296875 613 718.296875 613 c 2
 689.296875 613 l 2
 647.296875 613 633.171875 603 625.944335938 569 c 2
 521.154296875 76 l 2
 514.565429688 45 528.014648438 33 567.014648438 33 c 2
 593.014648438 33 l 2
 598.014648438 33 601.376953125 30 600.1015625 24 c 2
 595.212890625 1 l 1
 592.787109375 -1 l 1
 592.787109375 -1 486.212890625 1 447.212890625 1 c 0
 411.212890625 1 295.787109375 -1 295.787109375 -1 c 1
 294.212890625 1 l 1
 299.1015625 24 l 2
 300.376953125 30 304.014648438 33 309.014648438 33 c 2
 336.014648438 33 l 2
 377.014648438 33 393.203125 48 399.154296875 76 c 2
 451.018554688 320 l 1
504.157226562 570 m 2
 511.171875 603 507.809570312 606 420.809570312 606 c 0
 364.809570312 606 303.470703125 595 283.703125 502 c 0
 261.172851562 396 301.220703125 368 384.220703125 368 c 2
 461.220703125 368 l 1
 504.157226562 570 l 2
EndSplineSet
EndChar

StartChar: afii10089
Encoding: 1095 1095 95
Width: 581
VWidth: 999
Flags: HW
HStem: -1 34<310 367.151 483.217 540> 146 40<195.202 332.641> 402 34<18 67.6078 184.253 241 310 366.902 483.294 550>
VStem: 71 110<211.872 400.259> 370 110<34.624 189 212.403 400.488>
LayerCount: 2
Fore
SplineSet
445.245117188 354 m 2
 453.53515625 393 450.447265625 402 415.447265625 402 c 2
 399.447265625 402 l 2
 396.447265625 402 394.66015625 403 395.510742188 407 c 2
 401.25 434 l 1
 402.674804688 436 l 1
 512.25 434 l 1
 642.674804688 436 l 1
 644.25 434 l 1
 638.510742188 407 l 2
 637.873046875 404 635.447265625 402 631.447265625 402 c 2
 606.447265625 402 l 2
 572.447265625 402 563.959960938 395 555.245117188 354 c 2
 497.216796875 81 l 2
 489.139648438 43 491.014648438 33 528.014648438 33 c 2
 544.014648438 33 l 2
 548.014648438 33 548.588867188 31 547.951171875 28 c 2
 542.212890625 1 l 1
 539.787109375 -1 l 1
 539.787109375 -1 449.212890625 1 412.212890625 1 c 0
 372.212890625 1 309.787109375 -1 309.787109375 -1 c 1
 308.212890625 1 l 1
 313.739257812 27 l 2
 314.588867188 31 317.014648438 33 320.014648438 33 c 2
 337.014648438 33 l 2
 373.014648438 33 378.927734375 42 387.216796875 81 c 2
 410.172851562 189 l 1
 365.008789062 160 330.033203125 146 270.033203125 146 c 0
 172.033203125 146 111.598632812 191 134.12890625 297 c 2
 146.458007812 355 l 2
 154.53515625 393 150.447265625 402 115.447265625 402 c 2
 107.447265625 402 l 2
 104.447265625 402 102.66015625 403 103.510742188 407 c 2
 109.25 434 l 1
 110.674804688 436 l 1
 213.037109375 433 l 1
 333.674804688 436 l 1
 334.25 434 l 1
 328.72265625 408 l 2
 327.873046875 404 325.447265625 402 321.447265625 402 c 2
 306.447265625 402 l 2
 273.447265625 402 264.322265625 392 257.520507812 360 c 2
 243.279296875 293 l 2
 226.69921875 215 227.53515625 186 289.53515625 186 c 0
 338.53515625 186 380.0859375 198 418.67578125 229 c 1
 445.245117188 354 l 2
EndSplineSet
EndChar

StartChar: afii10090
Encoding: 1096 1096 96
Width: 923
VWidth: 999
Flags: HW
HStem: -1 34<43 102.064 816.857 890> 0 41<215.46 401.772 517.304 702.1> 402 34<33 100.608 215.968 277 340 400.902 517.294 583 636 701.902 817.932 880>
VStem: 104 109<43.0804 400.422> 404 110<43.0065 400.488> 705 110<43.4492 400.499>
LayerCount: 2
Fore
SplineSet
890.458007812 355 m 2
 830.729492188 74 l 2
 822.2265625 34 829.014648438 33 863.014648438 33 c 2
 893.014648438 33 l 2
 897.014648438 33 898.376953125 30 897.739257812 27 c 2
 892.212890625 1 l 1
 889.787109375 -1 l 1
 758 0 l 1
 154 0 l 1
 42.787109375 -1 l 1
 42.212890625 1 l 1
 47.951171875 28 l 2
 48.5888671875 31 50.0146484375 33 54.0146484375 33 c 2
 70.0146484375 33 l 2
 105.014648438 33 111.65234375 36 119.94140625 75 c 2
 179.458007812 355 l 2
 187.53515625 393 183.447265625 402 148.447265625 402 c 2
 122.447265625 402 l 2
 119.447265625 402 117.66015625 403 118.510742188 407 c 2
 124.25 434 l 1
 125.674804688 436 l 1
 246.037109375 433 l 1
 369.674804688 436 l 1
 371.25 434 l 1
 365.72265625 408 l 2
 364.873046875 404 362.447265625 402 358.447265625 402 c 2
 339.447265625 402 l 2
 305.447265625 402 297.172851562 396 288.458007812 355 c 2
 232.129882812 90 l 2
 223.627929688 50 227.71484375 41 262.71484375 41 c 2
 372.71484375 41 l 2
 407.71484375 41 415.052734375 52 422.91796875 89 c 2
 479.245117188 354 l 2
 487.53515625 393 484.447265625 402 449.447265625 402 c 2
 429.447265625 402 l 2
 426.447265625 402 424.66015625 403 425.510742188 407 c 2
 431.25 434 l 1
 432.674804688 436 l 1
 546.25 434 l 1
 675.674804688 436 l 1
 676.25 434 l 1
 670.510742188 407 l 2
 669.873046875 404 668.447265625 402 664.447265625 402 c 2
 640.447265625 402 l 2
 606.447265625 402 597.959960938 395 589.245117188 354 c 2
 533.129882812 90 l 2
 524.203125 48 534.71484375 41 563.71484375 41 c 2
 673.71484375 41 l 2
 710.71484375 41 717.541015625 59 724.129882812 90 c 2
 780.458007812 355 l 2
 788.53515625 393 785.447265625 402 750.447265625 402 c 2
 725.447265625 402 l 2
 722.447265625 402 720.66015625 403 721.510742188 407 c 2
 727.25 434 l 1
 728.674804688 436 l 1
 847.037109375 433 l 1
 972.674804688 436 l 1
 974.25 434 l 1
 968.72265625 408 l 2
 967.873046875 404 965.447265625 402 961.447265625 402 c 2
 940.447265625 402 l 2
 907.447265625 402 899.172851562 396 890.458007812 355 c 2
EndSplineSet
EndChar

StartChar: afii10091
Encoding: 1097 1097 97
Width: 917
VWidth: 999
Flags: HW
HStem: -1 34<43 101.812> 0 40<215.46 401.502 517.304 702.1> 402 34<33 100.608 215.968 277 340 400.902 517.294 583 636 701.902 817.932 880>
VStem: 104 109<42.1362 400.422> 404 110<41.8323 400.488> 705 110<42.9362 400.499> 843 43<-128 -68.6074>
LayerCount: 2
Fore
SplineSet
890.458007812 355 m 2
 831.791992188 79 l 2
 826.478515625 54 835.014648438 33 858.014648438 33 c 0
 872.014648438 33 884.526367188 26 881.700195312 8 c 2
 858.79296875 -128 l 1
 815.79296875 -128 l 1
 814.208007812 -79 804 0 724 0 c 2
 155 0 l 1
 42.787109375 -1 l 1
 42.212890625 1 l 1
 47.7392578125 27 l 2
 48.5888671875 31 50.0146484375 33 54.0146484375 33 c 2
 70.0146484375 33 l 2
 105.014648438 33 111.864257812 37 119.94140625 75 c 2
 179.458007812 355 l 2
 187.53515625 393 183.447265625 402 148.447265625 402 c 2
 122.447265625 402 l 2
 119.447265625 402 117.66015625 403 118.510742188 407 c 2
 124.25 434 l 1
 125.674804688 436 l 1
 246.037109375 433 l 1
 369.674804688 436 l 1
 371.25 434 l 1
 365.72265625 408 l 2
 364.873046875 404 362.447265625 402 358.447265625 402 c 2
 339.447265625 402 l 2
 305.447265625 402 297.172851562 396 288.458007812 355 c 2
 231.705078125 88 l 2
 223.415039062 49 227.501953125 40 262.501953125 40 c 2
 372.501953125 40 l 2
 407.501953125 40 414.840820312 51 422.705078125 88 c 2
 479.245117188 354 l 2
 487.53515625 393 484.447265625 402 449.447265625 402 c 2
 429.447265625 402 l 2
 426.447265625 402 424.66015625 403 425.510742188 407 c 2
 431.25 434 l 1
 432.674804688 436 l 1
 546.25 434 l 1
 675.674804688 436 l 1
 676.25 434 l 1
 670.510742188 407 l 2
 669.873046875 404 668.447265625 402 664.447265625 402 c 2
 640.447265625 402 l 2
 606.447265625 402 597.959960938 395 589.245117188 354 c 2
 532.705078125 88 l 2
 523.77734375 46 534.501953125 40 563.501953125 40 c 2
 673.71484375 41 l 2
 710.71484375 41 716.903320312 56 723.91796875 89 c 2
 780.458007812 355 l 2
 788.53515625 393 785.447265625 402 750.447265625 402 c 2
 725.447265625 402 l 2
 722.447265625 402 720.66015625 403 721.510742188 407 c 2
 727.25 434 l 1
 728.674804688 436 l 1
 847.037109375 433 l 1
 972.674804688 436 l 1
 974.25 434 l 1
 968.72265625 408 l 2
 967.873046875 404 965.447265625 402 961.447265625 402 c 2
 940.447265625 402 l 2
 907.447265625 402 899.172851562 396 890.458007812 355 c 2
EndSplineSet
EndChar

StartChar: afii10092
Encoding: 1098 1098 98
Width: 590
VWidth: 999
Flags: HW
HStem: -1 34<128 190.926 315.978 425.383> 224 37<306 429.16> 393 41<96.8817 193.94> 402 34<308.281 380>
VStem: 26 35<279 343.414> 196 110<42.1465 224 261 392.378> 449 110<64.672 203.325>
LayerCount: 2
Fore
SplineSet
212.3671875 77 m 2
 269.756835938 347 l 2
 277.622070312 384 272.53515625 393 250.53515625 393 c 0
 168.53515625 393 153.8828125 357 119.453125 275 c 1
 85.515625 280 l 1
 102.29296875 326 117.133789062 377 130.461914062 435 c 1
 343.25 434 l 1
 472.674804688 436 l 1
 474.25 434 l 1
 468.297851562 406 l 2
 467.447265625 402 465.447265625 402 462.447265625 402 c 2
 431.447265625 402 l 2
 395.447265625 402 389.747070312 394 382.307617188 359 c 2
 361.477539062 261 l 1
 427.477539062 261 l 2
 523.477539062 261 607.887695312 230 587.907226562 136 c 0
 570.052734375 52 488 0 376 0 c 2
 249.212890625 1 l 2
 213.212890625 1 127.787109375 -1 127.787109375 -1 c 1
 126.212890625 1 l 1
 131.1015625 24 l 2
 132.376953125 30 136.014648438 33 141.014648438 33 c 2
 160.014648438 33 l 2
 194.014648438 33 206.203125 48 212.3671875 77 c 2
475.782226562 126 m 0
 487.047851562 179 491.612304688 224 420.612304688 224 c 2
 353.612304688 224 l 1
 323.642578125 83 l 2
 315.990234375 47 330.65234375 36 376.65234375 36 c 0
 426.65234375 36 458.352539062 44 475.782226562 126 c 0
EndSplineSet
EndChar

StartChar: afii10093
Encoding: 1099 1099 99
Width: 749
VWidth: 999
Flags: HW
HStem: -1 34<38 100.926 223.805 335.983 475 537.648 658.352 721> 224 37<216 339.16> 401 34<38 100.926 221.352 284> 402 34<475 537.648 658.352 721>
VStem: 106 110<40.9339 224 261 397.844> 359 110<64.672 203.325> 543 110<36.1563 398.688>
LayerCount: 2
Fore
SplineSet
619.095703125 358 m 2
 625.046875 386 618.447265625 402 585.447265625 402 c 2
 566.447265625 402 l 2
 561.447265625 402 559.084960938 405 560.1484375 410 c 2
 565.25 434 l 1
 567.674804688 436 l 1
 567.674804688 436 652.25 434 688.25 434 c 0
 727.25 434 813.674804688 436 813.674804688 436 c 1
 815.25 434 l 1
 810.1484375 410 l 2
 809.084960938 405 804.447265625 402 800.447265625 402 c 2
 781.447265625 402 l 2
 748.447265625 402 735.046875 386 729.095703125 358 c 2
 669.3671875 77 l 2
 663.203125 48 670.014648438 33 703.014648438 33 c 2
 722.014648438 33 l 2
 726.014648438 33 729.376953125 30 728.1015625 24 c 2
 723.212890625 1 l 1
 720.787109375 -1 l 1
 720.787109375 -1 635.212890625 1 596.212890625 1 c 0
 560.212890625 1 474.787109375 -1 474.787109375 -1 c 1
 473.212890625 1 l 1
 478.1015625 24 l 2
 479.376953125 30 483.014648438 33 488.014648438 33 c 2
 507.014648438 33 l 2
 540.014648438 33 553.203125 48 559.3671875 77 c 2
 619.095703125 358 l 2
385.782226562 126 m 0
 397.047851562 179 401.612304688 224 330.612304688 224 c 2
 263.612304688 224 l 1
 232.791992188 79 l 2
 225.139648438 43 240.65234375 36 286.65234375 36 c 0
 336.65234375 36 368.352539062 44 385.782226562 126 c 0
122.3671875 77 m 2
 181.8828125 357 l 2
 188.046875 386 182.235351562 401 148.235351562 401 c 2
 129.235351562 401 l 2
 124.235351562 401 121.873046875 404 123.1484375 410 c 2
 128.037109375 433 l 1
 130.461914062 435 l 1
 130.461914062 435 216.037109375 433 251.037109375 433 c 0
 290.037109375 433 376.461914062 435 376.461914062 435 c 1
 378.037109375 433 l 1
 373.1484375 410 l 2
 371.873046875 404 367.235351562 401 363.235351562 401 c 2
 344.235351562 401 l 2
 311.235351562 401 298.046875 386 291.8828125 357 c 2
 271.477539062 261 l 1
 337.477539062 261 l 2
 433.477539062 261 517.887695312 230 497.907226562 136 c 0
 480.052734375 52 398 0 287 0 c 2
 159.212890625 1 l 2
 124.212890625 1 37.787109375 -1 37.787109375 -1 c 1
 36.212890625 1 l 1
 41.1015625 24 l 2
 42.376953125 30 46.0146484375 33 51.0146484375 33 c 2
 70.0146484375 33 l 2
 104.014648438 33 116.203125 48 122.3671875 77 c 2
EndSplineSet
EndChar

StartChar: afii10094
Encoding: 1100 1100 100
Width: 500
VWidth: 999
Flags: HW
HStem: -1 34<38 100.926 223.805 335.983> 224 37<216 339.16> 401 34<38 100.926 221.352 284>
VStem: 106 110<40.9339 224 261 397.844> 359 110<64.672 203.325>
LayerCount: 2
Fore
SplineSet
385.782226562 126 m 0
 397.047851562 179 401.612304688 224 330.612304688 224 c 2
 263.612304688 224 l 1
 232.791992188 79 l 2
 225.139648438 43 240.65234375 36 286.65234375 36 c 0
 336.65234375 36 368.352539062 44 385.782226562 126 c 0
122.3671875 77 m 2
 181.8828125 357 l 2
 188.046875 386 182.235351562 401 148.235351562 401 c 2
 129.235351562 401 l 2
 124.235351562 401 121.873046875 404 123.1484375 410 c 2
 128.037109375 433 l 1
 130.461914062 435 l 1
 130.461914062 435 216.037109375 433 251.037109375 433 c 0
 290.037109375 433 376.461914062 435 376.461914062 435 c 1
 378.037109375 433 l 1
 373.1484375 410 l 2
 371.873046875 404 367.235351562 401 363.235351562 401 c 2
 344.235351562 401 l 2
 311.235351562 401 298.046875 386 291.8828125 357 c 2
 271.477539062 261 l 1
 337.477539062 261 l 2
 433.477539062 261 517.887695312 230 497.907226562 136 c 0
 480.052734375 52 398 0 287 0 c 2
 159.212890625 1 l 2
 124.212890625 1 37.787109375 -1 37.787109375 -1 c 1
 36.212890625 1 l 1
 41.1015625 24 l 2
 42.376953125 30 46.0146484375 33 51.0146484375 33 c 2
 70.0146484375 33 l 2
 104.014648438 33 116.203125 48 122.3671875 77 c 2
EndSplineSet
EndChar

StartChar: afii10095
Encoding: 1101 1101 101
Width: 452
VWidth: 999
Flags: HW
HStem: -12 35<135.21 247.128> 180 49<160.832 296.342> 207 41<92.6331 188.46> 406 36<125.918 245.651>
VStem: 37 77<40.7447 108.21> 40 35<296.2 346.239> 297 111<121.734 199 229.057 318.451>
LayerCount: 2
Fore
SplineSet
346.100585938 231 m 1
 359.6171875 304 369.297851562 406 277.297851562 406 c 0
 196.297851562 406 164.245117188 354 137.279296875 293 c 1
 103.12890625 297 l 1
 118.481445312 341 128.708984375 375 142.399414062 430 c 1
 212.399414062 430 222.950195312 442 294.950195312 442 c 0
 417.950195312 442 479.206054688 335 455.825195312 225 c 0
 422.454101562 68 290.44921875 -12 184.44921875 -12 c 0
 101.44921875 -12 43.8017578125 32 54.8544921875 84 c 0
 57.830078125 98 77.0185546875 113 95.0185546875 113 c 0
 106.018554688 113 132.168945312 109 130.154296875 76 c 0
 128.927734375 42 155.888671875 23 197.888671875 23 c 0
 288.888671875 23 321.931640625 122 339.298828125 199 c 1
 317.172851562 189 290.259765625 180 266.259765625 180 c 0
 222.259765625 180 198.999023438 207 163.999023438 207 c 0
 151.999023438 207 140.936523438 202 132.936523438 202 c 0
 126.936523438 202 127.849609375 211 128.69921875 215 c 0
 131.887695312 230 180.713867188 248 223.713867188 248 c 0
 268.713867188 248 281.67578125 229 319.67578125 229 c 0
 329.67578125 229 337.887695312 230 346.100585938 231 c 1
EndSplineSet
EndChar

StartChar: afii10096
Encoding: 1102 1102 102
Width: 774
VWidth: 999
Flags: HW
HStem: -10 43<491.623 588.559> -1 34<29 91.6475 212.352 275> 402 34<29 91.6475 212.352 275> 403 41<472.16 567.482>
VStem: 97 110<36.1563 398.688> 200 119<196 240> 311.3 115.9<119.406 317.729> 624.8 115<118.762 320.282>
LayerCount: 2
Fore
SplineSet
173.095703125 358 m 2
 179.046875 386 172.447265625 402 139.447265625 402 c 2
 120.447265625 402 l 2
 115.447265625 402 113.084960938 405 114.1484375 410 c 2
 119.25 434 l 1
 121.674804688 436 l 1
 121.674804688 436 206.25 434 242.25 434 c 0
 281.25 434 367.674804688 436 367.674804688 436 c 1
 369.25 434 l 1
 364.1484375 410 l 2
 363.084960938 405 358.447265625 402 354.447265625 402 c 2
 335.447265625 402 l 2
 302.447265625 402 289.046875 386 283.095703125 358 c 2
 258.013671875 240 l 1
 363.9140625 240 l 1
 400.877929688 359.799804688 493.975585938 444 620.375 444 c 0
 775.174804688 444 808.030273438 321 785.711914062 216 c 0
 764.244140625 115 670.07421875 -10 522.874023438 -10 c 0
 388.174804688 -10 337.126953125 96.099609375 353.260742188 196 c 1
 248.661132812 196 l 1
 223.3671875 77 l 2
 217.203125 48 224.014648438 33 257.014648438 33 c 2
 276.014648438 33 l 2
 280.014648438 33 283.376953125 30 282.1015625 24 c 2
 277.212890625 1 l 1
 274.787109375 -1 l 1
 274.787109375 -1 189.212890625 1 150.212890625 1 c 0
 114.212890625 1 28.787109375 -1 28.787109375 -1 c 1
 27.212890625 1 l 1
 32.1015625 24 l 2
 33.376953125 30 37.0146484375 33 42.0146484375 33 c 2
 61.0146484375 33 l 2
 94.0146484375 33 107.203125 48 113.3671875 77 c 2
 173.095703125 358 l 2
602.16015625 403 m 0
 541.360351562 403 493.942382812 314 475.875 229 c 0
 460.146484375 155 469.314453125 33 547.21484375 33 c 0
 581.4140625 33 636.916015625 57 663.91015625 184 c 0
 694.305664062 327 666.760742188 403 602.16015625 403 c 0
EndSplineSet
EndChar

StartChar: afii10097
Encoding: 1103 1103 103
Width: 479
VWidth: 999
Flags: HW
HStem: -1 34<19 64.1167 231 284.833 389.366 450> 195 40<220.82 287> 204 31<163 174> 402 33<171.489 285.05 382.047 448>
VStem: 42 110<251.526 368.984> 287 92<38.896 195 235 399.272>
LayerCount: 2
Fore
SplineSet
336.951171875 235 m 1
 364.795898438 366 l 2
 371.59765625 398 365.447265625 402 326.447265625 402 c 0
 239.447265625 402 230.220703125 368 220.23046875 321 c 0
 209.602539062 271 212.951171875 235 268.951171875 235 c 2
 336.951171875 235 l 1
137.907226562 136 m 0
 162.622070312 177 188.0859375 198 217.361328125 204 c 1
 162.361328125 204 92.80078125 239 107.892578125 310 c 0
 123.622070312 384 224.461914062 435 298.461914062 435 c 2
 375.461914062 435 l 1
 435.25 434 l 1
 540.674804688 436 l 1
 542.25 434 l 1
 536.084960938 405 l 2
 535.66015625 403 534.447265625 402 531.447265625 402 c 2
 506.447265625 402 l 2
 481.447265625 402 462.53515625 393 458.071289062 372 c 2
 396.216796875 81 l 2
 390.690429688 55 406.014648438 33 425.014648438 33 c 2
 446.014648438 33 l 2
 454.014648438 33 455.313476562 25 455.1015625 24 c 2
 449.787109375 -1 l 1
 449.787109375 -1 384.212890625 1 341.212890625 1 c 0
 298.212890625 1 230.787109375 -1 230.787109375 -1 c 1
 236.526367188 26 l 2
 237.376953125 30 240.014648438 33 244.014648438 33 c 2
 258.014648438 33 l 2
 292.014648438 33 295.927734375 42 304.216796875 81 c 2
 328.448242188 195 l 1
 300.448242188 195 l 2
 261.448242188 195 226.8203125 145 192.854492188 84 c 1
 171.139648438 43 132 0 100 0 c 2
 18.787109375 -1 l 1
 16.212890625 1 l 1
 20.2509765625 20 l 2
 21.7392578125 27 27.951171875 28 31.951171875 28 c 2
 39.951171875 28 l 2
 68.951171875 28 115.830078125 98 137.907226562 136 c 0
EndSplineSet
EndChar

StartChar: uni04AE
Encoding: 1198 1198 104
Width: 541
Flags: HW
HStem: -1 36<154 228.839 358.336 435> 611 36<-9 41.811 186.001 236 379 429.999 514.645 584>
VStem: 232 123<36.304 280>
DStem2: 313 377 235 280 0.502568 -0.864537<-258.021 0> 313 377 353 292 0.468767 0.883322<0 253.301>
LayerCount: 2
Fore
SplineSet
247.94140625 75 m 2
 291.94140625 282 l 1
 294.515625 280 l 1
 258.920898438 376 223.5390625 473 187.944335938 569 c 0
 179.833007812 592 175.383789062 604 171.021484375 607 c 0
 167.447265625 609 161.872070312 611 154.872070312 611 c 2
 139.872070312 611 l 1
 131.084960938 612 111.72265625 615 113.209960938 622 c 2
 116.611328125 638 l 1
 128.524414062 647 l 1
 128.524414062 647 233.098632812 645 246.098632812 645 c 0
 252.098632812 645 373.524414062 647 373.524414062 647 c 1
 381.611328125 638 l 1
 378.422851562 623 l 2
 377.147460938 617 366.872070312 611 347.872070312 611 c 2
 318.872070312 611 l 2
 316.872070312 611 315.234375 608 313.958984375 602 c 0
 312.258789062 594 313.345703125 585 317.219726562 575 c 0
 346.278320312 500 364.500976562 454 393.133789062 377 c 1
 444.162109375 443 494.19140625 509 543.219726562 575 c 0
 551.55859375 586 556.470703125 595 557.958984375 602 c 0
 559.447265625 609 558.872070312 611 555.872070312 611 c 2
 525.872070312 611 l 1
 504.296875 613 501.360351562 618 502.209960938 622 c 2
 505.611328125 638 l 1
 516.524414062 647 l 1
 516.524414062 647 608.098632812 645 621.098632812 645 c 0
 629.098632812 645 721.524414062 647 721.524414062 647 c 1
 728.611328125 638 l 1
 725.422851562 623 l 2
 723.509765625 614 711.872070312 611 691.872070312 611 c 2
 670.872070312 611 l 2
 655.872070312 611 644.534179688 600 620.944335938 569 c 2
 415.06640625 292 l 1
 417.279296875 293 l 1
 370.94140625 75 l 2
 364.990234375 47 372.439453125 35 395.439453125 35 c 2
 421.439453125 35 l 2
 437.439453125 35 450.588867188 31 448.888671875 23 c 2
 445.700195312 8 l 1
 434.787109375 -1 l 1
 434.787109375 -1 334.212890625 1 296.212890625 1 c 0
 261.212890625 1 153.787109375 -1 153.787109375 -1 c 1
 146.700195312 8 l 1
 149.888671875 23 l 2
 151.588867188 31 163.439453125 35 181.439453125 35 c 2
 207.439453125 35 l 2
 231.439453125 35 242.627929688 50 247.94140625 75 c 2
EndSplineSet
EndChar

StartChar: uni04C0
Encoding: 1216 1216 105
Width: 317
VWidth: 999
Flags: HW
HStem: -2 34<36 104.724 240.184 308> 613 34<36 104.724 240.184 308>
VStem: 111 122<37.5094 607.491>
LayerCount: 2
Fore
SplineSet
249.154296875 76 m 2
 243.203125 48 253.801757812 32 294.801757812 32 c 2
 308.801757812 32 l 2
 313.801757812 32 316.1640625 29 314.888671875 23 c 2
 310 0 l 1
 307.575195312 -2 l 1
 307.575195312 -2 208 0 172 0 c 0
 133 0 35.5751953125 -2 35.5751953125 -2 c 1
 34 0 l 1
 38.888671875 23 l 2
 40.1640625 29 44.8017578125 32 48.8017578125 32 c 2
 62.8017578125 32 l 2
 102.801757812 32 120.352539062 44 127.154296875 76 c 2
 231.944335938 569 l 2
 238.74609375 601 226.296875 613 186.296875 613 c 2
 172.296875 613 l 2
 168.296875 613 164.934570312 616 165.998046875 621 c 2
 171.098632812 645 l 1
 173.524414062 647 l 1
 173.524414062 647 270.098632812 645 309.098632812 645 c 0
 345.098632812 645 445.524414062 647 445.524414062 647 c 1
 447.098632812 645 l 1
 441.998046875 621 l 2
 440.934570312 616 437.296875 613 432.296875 613 c 2
 418.296875 613 l 2
 377.296875 613 359.896484375 597 353.944335938 569 c 2
 249.154296875 76 l 2
EndSplineSet
EndChar

StartChar: uni04D0
Encoding: 1232 1232 106
Width: 699
VWidth: 999
Flags: HW
HStem: -1 34<10 60.0229 142.897 211 414 482.841 622.594 692> 241 47<234.168 403> 638 20<348.5 364.5> 698 31<313.536 404.309>
VStem: 234 70<736.681 803.162> 413 70<735.774 803.125>
DStem2: 89 91 148 79 0.384126 0.923281<-23.1403 196.063 246.684 479.281> 399 627 320 514 0.352654 -0.935754<77.8806 318.631 368.607 561.264>
LayerCount: 2
Fore
SplineSet
647.731445312 775 m 0
 636.678710938 723 569.364257812 698 506.364257812 698 c 0
 440.364257812 698 387.465820312 722 398.518554688 774 c 0
 403.1953125 796 417.108398438 805 444.108398438 805 c 0
 465.108398438 805 471.70703125 789 468.518554688 774 c 0
 468.09375 772 466.03125 767 465.818359375 766 c 0
 461.567382812 746 480.954101562 729 513.954101562 729 c 0
 543.954101562 729 571.9296875 743 576.60546875 765 c 0
 576.818359375 766 577.306640625 773 577.518554688 774 c 0
 580.70703125 789 593.108398438 805 616.108398438 805 c 0
 642.108398438 805 651.982421875 795 647.731445312 775 c 0
314.215820312 288 m 2
 464.215820312 288 l 1
 429.25390625 514 l 1
 297.766601562 300 l 1
 295.853515625 291 296.215820312 288 314.215820312 288 c 2
164.791992188 79 m 2
 147.627929688 50 143.014648438 33 202.014648438 33 c 0
 218.014648438 33 222.588867188 31 220.888671875 23 c 2
 216.637695312 3 l 1
 210.787109375 -1 l 1
 210.787109375 -1 119.212890625 1 95.212890625 1 c 0
 70.212890625 1 9.787109375 -1 9.787109375 -1 c 1
 2.4248046875 2 l 1
 6.888671875 23 l 2
 9.0146484375 33 17.0146484375 33 29.0146484375 33 c 0
 49.0146484375 33 82.6279296875 50 108.342773438 91 c 2
 445.2734375 627 l 2
 460.374023438 651 482.862304688 658 493.862304688 658 c 0
 514.862304688 658 528.736328125 648 532.2734375 627 c 2
 620.342773438 91 l 2
 626.478515625 54 636.014648438 33 661.014648438 33 c 2
 689.014648438 33 l 2
 704.014648438 33 703.588867188 31 701.888671875 23 c 2
 697.637695312 3 l 1
 691.787109375 -1 l 1
 691.787109375 -1 596.212890625 1 558.212890625 1 c 0
 522.212890625 1 413.787109375 -1 413.787109375 -1 c 1
 406.850585938 4 l 1
 410.888671875 23 l 2
 412.588867188 31 421.014648438 33 439.014648438 33 c 2
 466.014648438 33 l 2
 483.014648438 33 493.352539062 44 496.541015625 59 c 0
 497.603515625 64 498.87890625 70 497.516601562 73 c 2
 471.2265625 241 l 1
 287.2265625 241 l 2
 267.2265625 241 262.013671875 240 253.25 227 c 2
 164.791992188 79 l 2
EndSplineSet
LCarets2: 1 0 
EndChar

StartChar: uni04D1
Encoding: 1233 1233 107
Width: 476
VWidth: 999
Flags: HW
HStem: -10 55<110.871 229.853 351 447.215> 406 38<148.426 256.61> 489 31<188.971 263.548>
VStem: 36 105<56.7004 159.155> 48 93<295.994 379.736> 105 73<526.632 605.612> 274 73<526.548 606.547> 282 108<69.6589 219 257 374.929>
DStem2: 210 236 225 202 0.96 0.28<-70.2096 64.36>
LayerCount: 2
Fore
SplineSet
469.645507812 577 m 0
 457.954101562 522 392.940429688 489 328.940429688 489 c 0
 263.940429688 489 215.954101562 522 227.432617188 576 c 0
 231.258789062 594 250.447265625 609 273.447265625 609 c 0
 295.447265625 609 304.470703125 595 301.0703125 579 c 0
 300.645507812 577 299.0078125 574 298.370117188 571 c 0
 296.732421875 568 296.094726562 565 295.668945312 563 c 0
 290.993164062 541 306.529296875 520 336.529296875 520 c 0
 365.529296875 520 390.780273438 540 395.45703125 562 c 0
 396.094726562 565 396.732421875 568 396.370117188 571 c 0
 395.794921875 573 396.432617188 576 396.857421875 578 c 0
 400.470703125 595 419.447265625 609 438.447265625 609 c 0
 462.447265625 609 473.68359375 596 469.645507812 577 c 0
291.203125 48 m 1
 245.58203125 14.5 195.874023438 -10 153.874023438 -10 c 0
 66.8740234375 -10 41.5263671875 26 56.193359375 95 c 0
 72.984375 174 150.665039062 205.900390625 260.163085938 236 c 2
 336.626953125 257 l 1
 363.622070312 384 340.297851562 406 298.297851562 406 c 0
 260.297851562 406 224.53515625 393 219.858398438 371 c 0
 215.607421875 351 219.26953125 340 216.71875 328 c 0
 213.743164062 314 184.641601562 290 156.641601562 290 c 0
 120.641601562 290 113.041992188 306 118.568359375 332 c 0
 131.322265625 392 247.375 444 320.375 444 c 0
 402.375 444 478.2109375 415 447.602539062 271 c 2
 416.782226562 126 l 2
 407.004882812 80 399.927734375 42 438.927734375 42 c 0
 463.126953125 42 467.528320312 58 473.328125 58 c 0
 477.328125 58 483.565429688 45 482.077148438 38 c 0
 481.014648438 33 433.874023438 -10 378.874023438 -10 c 0
 318.874023438 -10 297.01953125 9.5 293.203125 48 c 1
 291.203125 48 l 1
300.067382812 85 m 1
 328.549804688 219 l 1
 267.936523438 202 l 2
 193.172851562 181 173.095703125 151 164.380859375 110 c 0
 156.94140625 75 165.565429688 45 213.565429688 45 c 0
 231.565429688 45 270.81640625 65 300.067382812 85 c 1
EndSplineSet
LCarets2: 1 0 
EndChar

StartChar: uni04D2
Encoding: 1234 1234 108
Width: 699
VWidth: 999
Flags: HW
HStem: -1 34<10 60.0229 142.897 211 414 482.841 622.594 692> 241 47<234.168 403> 638 20<348.5 364.5> 703 107<235.97 322.324 416.676 503.03>
VStem: 225 108<714.388 798.537> 406 108<714.388 798.537>
DStem2: 89 91 148 79 0.384126 0.923281<-23.1403 196.063 246.684 479.281> 399 627 320 514 0.352654 -0.935754<77.8806 318.631 368.607 561.264>
LayerCount: 2
Fore
SplineSet
566.692382812 756 m 0
 573.069335938 786 602.170898438 810 632.170898438 810 c 0
 661.170898438 810 681.069335938 786 674.692382812 756 c 0
 668.528320312 727 638.427734375 703 609.427734375 703 c 0
 579.427734375 703 560.528320312 727 566.692382812 756 c 0
385.692382812 756 m 0
 392.069335938 786 422.170898438 810 451.170898438 810 c 0
 481.170898438 810 500.069335938 786 493.692382812 756 c 0
 487.528320312 727 458.427734375 703 428.427734375 703 c 0
 399.427734375 703 379.528320312 727 385.692382812 756 c 0
314.215820312 288 m 2
 464.215820312 288 l 1
 429.25390625 514 l 1
 297.766601562 300 l 1
 295.853515625 291 296.215820312 288 314.215820312 288 c 2
164.791992188 79 m 2
 147.627929688 50 143.014648438 33 202.014648438 33 c 0
 218.014648438 33 222.588867188 31 220.888671875 23 c 2
 216.637695312 3 l 1
 210.787109375 -1 l 1
 210.787109375 -1 119.212890625 1 95.212890625 1 c 0
 70.212890625 1 9.787109375 -1 9.787109375 -1 c 1
 2.4248046875 2 l 1
 6.888671875 23 l 2
 9.0146484375 33 17.0146484375 33 29.0146484375 33 c 0
 49.0146484375 33 82.6279296875 50 108.342773438 91 c 2
 445.2734375 627 l 2
 460.374023438 651 482.862304688 658 493.862304688 658 c 0
 514.862304688 658 528.736328125 648 532.2734375 627 c 2
 620.342773438 91 l 2
 626.478515625 54 636.014648438 33 661.014648438 33 c 2
 689.014648438 33 l 2
 704.014648438 33 703.588867188 31 701.888671875 23 c 2
 697.637695312 3 l 1
 691.787109375 -1 l 1
 691.787109375 -1 596.212890625 1 558.212890625 1 c 0
 522.212890625 1 413.787109375 -1 413.787109375 -1 c 1
 406.850585938 4 l 1
 410.888671875 23 l 2
 412.588867188 31 421.014648438 33 439.014648438 33 c 2
 466.014648438 33 l 2
 483.014648438 33 493.352539062 44 496.541015625 59 c 0
 497.603515625 64 498.87890625 70 497.516601562 73 c 2
 471.2265625 241 l 1
 287.2265625 241 l 2
 267.2265625 241 262.013671875 240 253.25 227 c 2
 164.791992188 79 l 2
EndSplineSet
LCarets2: 1 0 
EndChar

StartChar: uni04D3
Encoding: 1235 1235 109
Width: 476
VWidth: 999
Flags: HW
HStem: -10 55<110.871 229.853 351 447.215> 406 38<148.426 256.61> 518 107<91.9699 178.324 272.676 359.03>
VStem: 36 105<56.7004 159.155> 48 93<295.994 379.736> 81 108<529.388 613.537> 262 108<529.388 613.537> 282 108<69.6589 219 257 374.929>
DStem2: 210 236 225 202 0.96 0.28<-70.2096 64.36>
LayerCount: 2
Fore
SplineSet
383.370117188 571 m 0
 389.74609375 601 418.84765625 625 448.84765625 625 c 0
 477.84765625 625 497.74609375 601 491.370117188 571 c 0
 485.206054688 542 455.104492188 518 426.104492188 518 c 0
 396.104492188 518 377.206054688 542 383.370117188 571 c 0
202.370117188 571 m 0
 208.74609375 601 238.84765625 625 267.84765625 625 c 0
 297.84765625 625 316.74609375 601 310.370117188 571 c 0
 304.206054688 542 275.104492188 518 245.104492188 518 c 0
 216.104492188 518 196.206054688 542 202.370117188 571 c 0
291.203125 48 m 1
 245.58203125 14.5 195.874023438 -10 153.874023438 -10 c 0
 66.8740234375 -10 41.5263671875 26 56.193359375 95 c 0
 72.984375 174 150.665039062 205.900390625 260.163085938 236 c 2
 336.626953125 257 l 1
 363.622070312 384 340.297851562 406 298.297851562 406 c 0
 260.297851562 406 224.53515625 393 219.858398438 371 c 0
 215.607421875 351 219.26953125 340 216.71875 328 c 0
 213.743164062 314 184.641601562 290 156.641601562 290 c 0
 120.641601562 290 113.041992188 306 118.568359375 332 c 0
 131.322265625 392 247.375 444 320.375 444 c 0
 402.375 444 478.2109375 415 447.602539062 271 c 2
 416.782226562 126 l 2
 407.004882812 80 399.927734375 42 438.927734375 42 c 0
 463.126953125 42 467.528320312 58 473.328125 58 c 0
 477.328125 58 483.565429688 45 482.077148438 38 c 0
 481.014648438 33 433.874023438 -10 378.874023438 -10 c 0
 318.874023438 -10 297.01953125 9.5 293.203125 48 c 1
 291.203125 48 l 1
300.067382812 85 m 1
 328.549804688 219 l 1
 267.936523438 202 l 2
 193.172851562 181 173.095703125 151 164.380859375 110 c 0
 156.94140625 75 165.565429688 45 213.565429688 45 c 0
 231.565429688 45 270.81640625 65 300.067382812 85 c 1
EndSplineSet
LCarets2: 1 0 
EndChar

StartChar: uni04D4
Encoding: 1236 1236 110
Width: 910
VWidth: 999
Flags: HW
HStem: -1 34<4 81.5469 161.374 218 362 442.155> 1 46<571.232 790.184> 266 39<291 449> 324 42<571 708.75> 428 20<730 762> 601 45<571.232 768.482> 613 33<296 356.281>
VStem: 449 122<47.4756 266 305 324 366 558.22> 719 36<252.814 316.565 373.435 437.232> 821 40<483.425 532.807> 846 44<116.362 171.591>
DStem2: 95 70 165 68 0.465821 0.884879<8.60003 255.421 299.247 590.236>
LayerCount: 2
Fore
SplineSet
355.830078125 305 m 1
 513.830078125 305 l 1
 564.84375 545 l 2
 570.370117188 571 559.857421875 578 536.055664062 546 c 2
 355.830078125 305 l 1
516.212890625 1 m 1
 361.787109375 -1 l 1
 360.212890625 1 l 1
 364.888671875 23 l 2
 366.1640625 29 370.014648438 33 375.014648438 33 c 2
 402.014648438 33 l 2
 443.014648438 33 459.415039062 49 465.3671875 77 c 2
 505.540039062 266 l 1
 327.540039062 266 l 1
 179.454101562 68 l 2
 157.290039062 39 187.014648438 33 221.014648438 33 c 0
 225.014648438 33 226.1640625 29 225.739257812 27 c 2
 220.212890625 1 l 1
 217.787109375 -1 l 1
 217.787109375 -1 143.212890625 1 104.212890625 1 c 0
 69.212890625 1 3.787109375 -1 3.787109375 -1 c 1
 2.212890625 1 l 1
 7.3134765625 25 l 2
 8.376953125 30 13.0146484375 33 19.0146484375 33 c 2
 42.0146484375 33 l 2
 70.0146484375 33 83.439453125 35 109.87890625 70 c 2
 473.45703125 562 l 2
 500.321289062 599 478.296875 613 432.296875 613 c 0
 426.296875 613 424.934570312 616 425.78515625 620 c 2
 431.098632812 645 l 1
 433.311523438 646 l 1
 654.311523438 646 l 1
 977.311523438 646 l 1
 969.196289062 589 965.930664062 536 964.08984375 485 c 1
 922.176757812 476 l 1
 919.017578125 527 909.74609375 601 842.74609375 601 c 2
 712.74609375 601 l 2
 703.74609375 601 697.045898438 593 692.58203125 572 c 2
 648.795898438 366 l 1
 762.795898438 366 l 2
 786.795898438 366 797.172851562 396 811.887695312 437 c 0
 812.737304688 441 820.225585938 448 830.225585938 448 c 2
 851.225585938 448 l 1
 855.099609375 438 l 1
 849.69921875 422 835.984375 381 828.33203125 345 c 0
 820.6796875 309 817.177734375 269 815.564453125 252 c 1
 807.651367188 243 l 1
 786.651367188 243 l 2
 776.651367188 243 771.926757812 249 772.776367188 253 c 0
 775.491210938 294 777.868164062 324 753.868164062 324 c 2
 639.868164062 324 l 1
 587.154296875 76 l 2
 582.265625 53 585.990234375 47 594.990234375 47 c 2
 747.990234375 47 l 2
 802.990234375 47 852.53125 106 884.259765625 180 c 1
 926.134765625 170 l 1
 903.869140625 117 881.690429688 55 862.212890625 1 c 1
 516.212890625 1 l 1
EndSplineSet
EndChar

StartChar: uni04D5
Encoding: 1237 1237 111
Width: 715
VWidth: 999
Flags: HW
HStem: -12 50<170.4 265.865 476.5 578.383> 209 44<222.016 301> 399 45<457.148 555.404> 407 37<161.99 261.109>
VStem: 47 104<57.8405 157.134> 58 97<311.521 385.652> 301 105<117.991 209 260 335.245> 574 104<295.592 383.979>
LayerCount: 2
Fore
SplineSet
590.810546875 399 m 0
 538.810546875 399 489.056640625 339 463.264648438 260 c 1
 571.752929688 267 634.579101562 285 646.056640625 339 c 0
 654.346679688 378 625.810546875 399 590.810546875 399 c 0
309.893554688 103 m 0
 318.08203125 118 334.434570312 162 345.424804688 209 c 1
 247.874023438 197 184.159179688 156 174.59375 111 c 0
 165.87890625 70 189.077148438 38 225.077148438 38 c 0
 256.077148438 38 280.840820312 51 309.893554688 103 c 0
324.375 444 m 0
 374.375 444 425.674804688 436 449.622070312 384 c 1
 487.911132812 423 549.587890625 445 607.375 444 c 1
 730.375 444 761.747070312 394 750.694335938 342 c 0
 732.626953125 257 637.974609375 221 452.125 217 c 1
 431.65625 116 472.352539062 44 533.352539062 44 c 0
 575.352539062 44 612.241210938 67 656.168945312 109 c 1
 691.067382812 85 l 1
 650.588867188 31 586.44921875 -12 508.44921875 -12 c 0
 426.44921875 -12 395.463867188 21 366.87890625 70 c 1
 324.401367188 16 261.44921875 -12 199.44921875 -12 c 0
 124.44921875 -12 49.1259765625 10 65.91796875 89 c 0
 85.0478515625 179 184.80078125 239 354.776367188 253 c 1
 377.095703125 358 351.510742188 407 304.510742188 407 c 0
 267.510742188 407 238.53515625 393 233.858398438 371 c 0
 229.607421875 351 234.26953125 340 231.71875 328 c 0
 228.743164062 314 214.00390625 287 169.00390625 287 c 0
 134.00390625 287 124.530273438 313 130.056640625 339 c 0
 142.810546875 399 252.375 444 324.375 444 c 0
EndSplineSet
EndChar

StartChar: uni04D6
Encoding: 1238 1238 112
Width: 562
VWidth: 999
Flags: HW
HStem: 0 33<27 94.1445> 0 46<224.232 442.935> 323 42<224 361.625> 427 20<383 415> 600 46<224.232 421.482> 613 33<27 94.1445> 698 31<228.536 319.309>
VStem: 101 123<46.578 323 365 599.422> 149 70<736.681 803.162> 328 70<735.774 803.125> 372 36<251.814 315.565 372.621 436.233> 474 40<482.425 531.807> 499 43<118.211 170.628>
LayerCount: 2
Fore
SplineSet
562.731445312 775 m 0
 551.678710938 723 484.364257812 698 421.364257812 698 c 0
 355.364257812 698 302.465820312 722 313.518554688 774 c 0
 318.1953125 796 332.108398438 805 359.108398438 805 c 0
 380.108398438 805 386.70703125 789 383.518554688 774 c 0
 383.09375 772 381.03125 767 380.818359375 766 c 0
 376.567382812 746 395.954101562 729 428.954101562 729 c 0
 458.954101562 729 486.9296875 743 491.60546875 765 c 0
 491.818359375 766 492.306640625 773 492.518554688 774 c 0
 495.70703125 789 508.108398438 805 531.108398438 805 c 0
 557.108398438 805 566.982421875 795 562.731445312 775 c 0
27 0 m 1
 24.4248046875 2 l 1
 29.1015625 24 l 2
 30.376953125 30 35.0146484375 33 39.0146484375 33 c 2
 53.0146484375 33 l 2
 93.0146484375 33 110.565429688 45 117.3671875 77 c 2
 221.944335938 569 l 2
 228.74609375 601 216.296875 613 176.296875 613 c 2
 162.296875 613 l 2
 158.296875 613 154.934570312 616 155.998046875 621 c 2
 160.88671875 644 l 1
 164.311523438 646 l 1
 630.311523438 646 l 1
 621.983398438 588 617.717773438 535 616.876953125 484 c 1
 574.96484375 475 l 1
 571.8046875 526 562.534179688 600 495.534179688 600 c 2
 365.534179688 600 l 2
 356.534179688 600 349.833007812 592 345.370117188 571 c 2
 301.583007812 365 l 1
 414.583007812 365 l 2
 439.583007812 365 450.172851562 396 464.674804688 436 c 0
 465.524414062 440 473.012695312 447 483.012695312 447 c 2
 504.012695312 447 l 1
 507.887695312 437 l 1
 502.486328125 421 488.984375 381 481.119140625 344 c 0
 473.467773438 308 469.96484375 268 468.3515625 251 c 1
 460.438476562 242 l 1
 439.438476562 242 l 2
 429.438476562 242 424.713867188 248 425.564453125 252 c 0
 428.279296875 293 430.65625 323 405.65625 323 c 2
 292.65625 323 l 1
 239.94140625 75 l 2
 235.052734375 52 238.77734375 46 247.77734375 46 c 2
 400.77734375 46 l 2
 455.77734375 46 504.318359375 105 537.047851562 179 c 1
 577.921875 169 l 1
 556.65625 116 533.478515625 54 515 0 c 1
 27 0 l 1
EndSplineSet
LCarets2: 1 0 
EndChar

StartChar: uni04D7
Encoding: 1239 1239 113
Width: 461
VWidth: 999
Flags: HW
HStem: -10 56<218.732 346.305> 245 40<154 316> 402 42<199.114 288.493> 489 31<201.971 276.548>
VStem: 34 115<124.669 245 285 306.603> 118 73<526.632 605.612> 287 73<526.548 606.547> 316 115<259 363.973>
LayerCount: 2
Fore
SplineSet
482.645507812 577 m 0
 470.954101562 522 405.940429688 489 341.940429688 489 c 0
 276.940429688 489 228.954101562 522 240.432617188 576 c 0
 244.258789062 594 263.447265625 609 286.447265625 609 c 0
 308.447265625 609 317.470703125 595 314.0703125 579 c 0
 313.645507812 577 312.0078125 574 311.370117188 571 c 0
 309.732421875 568 309.094726562 565 308.668945312 563 c 0
 303.993164062 541 319.529296875 520 349.529296875 520 c 0
 378.529296875 520 403.780273438 540 408.45703125 562 c 0
 409.094726562 565 409.732421875 568 409.370117188 571 c 0
 408.794921875 573 409.432617188 576 409.857421875 578 c 0
 413.470703125 595 432.447265625 609 451.447265625 609 c 0
 475.447265625 609 486.68359375 596 482.645507812 577 c 0
214.579101562 285 m 1
 374.579101562 285 l 1
 377.00390625 287 377.641601562 290 378.916992188 296 c 0
 395.920898438 376 360.447265625 402 333.447265625 402 c 0
 312.447265625 402 250.259765625 387 214.579101562 285 c 1
420.168945312 109 m 1
 440.705078125 88 l 1
 387.763671875 13 312.874023438 -10 243.874023438 -10 c 0
 91.8740234375 -10 52.705078125 88 76.0859375 198 c 0
 108.607421875 351 238.375 444 343.375 444 c 0
 490.375 444 505.607421875 351 487.540039062 266 c 0
 484.564453125 252 468.076171875 245 444.076171875 245 c 2
 201.076171875 245 l 1
 200.013671875 240 197.038085938 226 195.549804688 219 c 0
 174.719726562 121 216.77734375 46 294.77734375 46 c 0
 332.77734375 46 373.603515625 64 420.168945312 109 c 1
EndSplineSet
LCarets2: 1 0 
EndChar

StartChar: uni04D8
Encoding: 1240 1240 114
Width: 692
VWidth: 999
Flags: HW
HStem: -12 41<271.879 417.179> 213 52<163 523> 617 41<239.681 396.442>
VStem: 534 132<228.384 438.088>
LayerCount: 2
Fore
SplineSet
568.274414062 213 m 1
 208.274414062 213 l 1
 214.129882812 90 272.1640625 29 356.1640625 29 c 0
 445.1640625 29 529.08203125 118 568.274414062 213 c 1
221.916015625 503 m 1
 190.84375 545 l 1
 287.78515625 620 355.862304688 658 475.862304688 658 c 0
 703.862304688 658 769.08984375 485 735.505859375 327 c 0
 693.844726562 131 544.44921875 -12 340.44921875 -12 c 0
 134.44921875 -12 77.5068359375 120 96.3271484375 265 c 1
 589.327148438 265 l 1
 592.240234375 274 595.00390625 287 597.12890625 297 c 0
 635.814453125 479 573.147460938 617 453.147460938 617 c 0
 373.147460938 617 295.244140625 561 221.916015625 503 c 1
EndSplineSet
EndChar

